{"glyphs":{"0":{"ha":833,"x_min":114,"x_max":720,"o":"m 720 516 l 720 363 q 642 104 720 228 q 418 -20 564 -20 q 276 17 334 -20 q 166 153 218 54 q 114 363 114 252 l 114 516 q 192 775 114 651 q 416 900 270 900 q 557 863 499 900 q 668 727 615 827 q 720 516 720 628 m 581 516 q 517 714 581 629 q 416 761 481 761 q 313 709 353 761 q 253 516 253 631 l 253 363 q 317 165 253 250 q 418 119 352 119 q 520 170 480 119 q 581 363 581 248 l 581 516 z "},"1":{"ha":833,"x_min":115,"x_max":721,"o":"m 488 900 l 488 139 l 628 139 q 700 120 678 139 q 721 69 721 100 q 700 19 721 39 q 628 0 678 0 l 208 0 q 137 19 158 0 q 115 70 115 39 q 137 120 115 100 q 208 139 158 139 l 349 139 l 349 719 l 224 686 q 180 678 195 678 q 134 699 153 678 q 115 751 115 720 q 129 794 115 779 q 189 823 143 810 l 488 900 z "},"2":{"ha":833,"x_min":75,"x_max":708,"o":"m 287 139 l 591 139 q 639 159 616 159 q 689 138 671 159 q 708 66 708 117 l 708 0 l 75 0 l 75 147 q 528 546 450 457 q 568 632 568 591 q 523 722 568 683 q 405 761 479 761 q 281 718 330 761 q 239 649 255 694 q 213 608 230 621 q 172 596 197 596 q 123 616 144 596 q 102 664 102 637 q 140 766 102 705 q 250 863 178 827 q 407 900 322 900 q 623 820 538 900 q 707 627 707 741 q 683 520 707 570 q 567 385 659 471 q 287 139 495 316 z "},"3":{"ha":833,"x_min":92,"x_max":738,"o":"m 615 465 q 707 367 677 422 q 738 243 738 312 q 697 107 738 170 q 581 12 657 44 q 380 -20 504 -20 q 137 30 218 -20 q 92 98 92 58 q 112 148 92 127 q 160 169 132 169 q 201 155 180 169 q 257 128 231 135 q 369 119 298 119 q 545 150 490 119 q 599 239 599 182 q 567 322 599 282 q 483 383 536 361 q 380 400 452 395 q 327 421 345 402 q 308 469 308 441 q 328 519 308 499 q 380 540 349 540 q 454 541 449 540 q 508 558 481 543 q 552 599 535 573 q 568 653 568 625 q 529 729 568 697 q 412 762 490 762 q 259 703 312 762 q 234 682 243 686 q 202 674 220 674 q 153 694 174 674 q 133 745 133 715 q 195 836 133 791 q 422 900 286 900 q 629 827 551 900 q 707 650 707 753 q 684 550 707 597 q 615 465 661 504 z "},"4":{"ha":833,"x_min":104,"x_max":707,"o":"m 621 878 l 621 334 q 686 314 665 334 q 707 264 707 295 q 685 214 707 234 q 621 195 664 195 l 621 139 q 686 119 665 139 q 707 69 707 100 q 685 19 707 39 q 614 0 664 0 l 427 0 q 356 19 377 0 q 334 70 334 39 q 356 120 334 100 q 427 139 377 139 l 481 139 l 481 195 l 104 195 l 104 311 l 437 878 l 621 878 m 481 334 l 481 675 l 280 334 l 481 334 z "},"5":{"ha":833,"x_min":90,"x_max":738,"o":"m 300 739 l 300 573 q 440 597 377 597 q 653 510 568 597 q 738 284 738 422 q 652 61 738 142 q 389 -20 566 -20 q 142 39 233 -20 q 90 117 90 73 q 110 165 90 144 q 159 186 131 186 q 211 163 183 186 q 269 132 239 140 q 380 119 313 119 q 553 159 507 119 q 599 283 599 199 q 554 412 599 365 q 440 458 510 458 q 269 410 365 458 q 231 398 247 398 q 181 420 201 398 q 161 476 161 441 l 161 878 l 586 878 q 657 858 636 878 q 679 808 679 839 q 657 758 679 777 q 586 739 636 739 l 300 739 z "},"6":{"ha":833,"x_min":146,"x_max":752,"o":"m 286 475 q 382 536 336 517 q 479 555 427 555 q 670 469 588 555 q 752 251 752 382 q 676 55 752 130 q 469 -20 600 -20 q 289 31 359 -20 q 182 187 218 81 q 146 423 146 293 q 218 683 146 579 q 385 843 289 786 q 589 900 481 900 q 720 867 673 900 q 751 810 751 844 q 730 759 751 779 q 682 738 710 738 q 635 754 665 738 q 600 764 616 764 q 462 726 533 764 q 338 610 391 688 q 286 475 302 556 m 307 260 q 365 149 328 178 q 471 119 402 119 q 576 155 539 119 q 613 252 613 191 q 571 370 613 323 q 475 416 528 416 q 386 375 433 416 q 307 260 338 334 z "},"7":{"ha":833,"x_min":103,"x_max":707,"o":"m 560 739 l 242 739 q 221 680 239 698 q 173 662 203 662 q 122 683 142 662 q 103 754 103 704 l 103 878 l 707 878 l 707 739 l 481 68 q 450 13 467 26 q 408 -1 433 -1 q 358 19 379 -1 q 338 66 338 39 q 349 113 338 81 l 560 739 z "},"8":{"ha":833,"x_min":115,"x_max":721,"o":"m 614 444 q 694 350 667 403 q 721 235 721 298 q 687 106 721 165 q 579 14 652 47 q 416 -20 506 -20 q 255 14 327 -20 q 149 106 183 47 q 115 235 115 165 q 141 350 115 298 q 222 444 168 403 q 151 536 175 488 q 127 640 127 585 q 209 823 127 746 q 418 900 290 900 q 627 823 545 900 q 708 640 708 746 q 685 536 708 585 q 614 444 661 487 m 566 637 q 525 725 566 688 q 416 761 485 761 q 307 725 347 761 q 267 637 267 688 q 307 548 267 585 q 416 512 347 512 q 525 548 485 512 q 566 637 566 585 m 582 228 q 535 327 582 283 q 418 372 488 372 q 301 327 348 372 q 254 227 254 283 q 294 151 254 183 q 418 119 335 119 q 542 151 501 119 q 582 228 582 183 z "},"9":{"ha":833,"x_min":146,"x_max":753,"o":"m 612 365 q 517 301 560 320 q 425 283 473 283 q 230 372 313 283 q 146 595 146 462 q 203 783 146 699 q 425 900 282 900 q 604 839 528 900 q 717 662 681 777 q 753 420 753 546 q 588 79 753 208 q 309 -20 460 -20 q 178 14 224 -20 q 147 73 147 36 q 167 122 147 102 q 216 142 187 142 q 253 132 233 142 q 309 119 279 119 q 503 190 414 119 q 612 365 591 262 m 593 584 q 527 721 570 680 q 427 761 483 761 q 326 716 368 761 q 285 596 285 671 q 327 470 285 518 q 422 422 368 422 q 593 584 516 422 z "}," ":{"ha":833,"x_min":0,"x_max":0,"o":""},"!":{"ha":833,"x_min":301,"x_max":524,"o":"m 520 741 l 481 322 q 460 272 479 290 q 412 254 441 254 q 365 272 384 254 q 343 322 346 290 l 304 741 q 301 783 301 773 q 333 868 301 836 q 412 901 365 901 q 491 868 459 901 q 524 786 524 836 q 520 741 524 776 m 498 51 q 475 0 498 21 q 414 -20 453 -20 q 352 0 374 -20 q 330 51 330 21 q 352 101 330 80 q 414 121 374 121 q 476 101 454 121 q 498 51 498 81 z "},"\"":{"ha":833,"x_min":179,"x_max":648,"o":"m 179 839 l 358 839 l 314 507 q 299 471 311 481 q 271 460 288 460 q 241 471 252 460 q 227 506 231 481 l 179 839 m 469 839 l 648 839 l 604 507 q 589 471 600 481 q 560 460 578 460 q 531 471 542 460 q 517 506 520 481 l 469 839 z "},"#":{"ha":833,"x_min":83,"x_max":747,"o":"m 622 626 l 654 626 q 726 607 705 626 q 747 556 747 587 q 726 506 747 526 q 655 487 705 487 l 612 487 l 602 335 l 626 335 q 697 316 676 335 q 719 265 719 296 q 698 215 719 235 q 627 196 677 196 l 591 196 l 575 -43 q 565 -91 574 -48 q 541 -119 558 -107 q 503 -130 523 -130 q 455 -110 475 -130 q 435 -58 435 -89 q 437 -32 435 -52 l 453 196 l 349 196 l 333 -42 q 328 -85 330 -78 q 302 -118 320 -105 q 262 -130 284 -130 q 213 -110 233 -130 q 193 -58 193 -90 q 194 -33 193 -50 l 210 196 l 176 196 q 104 215 125 196 q 83 266 83 235 q 104 316 83 296 q 176 335 125 335 l 220 335 l 230 487 l 205 487 q 133 506 155 487 q 112 557 112 526 q 133 607 112 587 q 204 626 155 626 l 240 626 l 256 865 q 262 909 259 900 q 288 941 270 928 q 328 953 306 953 q 376 932 356 953 q 397 878 397 912 q 395 854 397 870 l 380 626 l 483 626 l 499 865 q 521 933 502 913 q 570 953 541 953 q 620 932 600 953 q 640 882 640 911 q 640 870 640 875 l 637 854 l 622 626 m 473 487 l 370 487 l 359 335 l 463 335 l 473 487 z "},"$":{"ha":833,"x_min":113,"x_max":720,"o":"m 486 835 q 581 808 534 829 q 601 817 591 814 q 621 820 611 820 q 671 799 652 820 q 690 727 690 777 l 690 682 q 671 611 690 632 q 621 589 652 589 q 574 608 593 589 q 551 661 555 626 q 429 700 503 700 q 317 672 353 700 q 281 612 281 645 q 303 566 281 586 q 394 531 325 545 l 486 511 q 654 440 603 488 q 720 281 720 380 q 660 126 720 194 q 486 37 599 59 l 486 -81 q 467 -152 486 -131 q 416 -174 448 -174 q 367 -152 386 -174 q 347 -81 347 -131 l 347 37 q 239 73 293 49 q 184 49 210 49 q 132 70 151 49 q 113 141 113 91 l 113 229 q 132 300 113 279 q 182 321 151 321 q 224 308 208 321 q 249 266 241 294 q 270 224 256 238 q 332 188 290 202 q 418 173 374 173 q 547 213 495 173 q 581 281 581 239 q 558 338 581 316 q 461 375 535 360 l 357 396 q 195 475 246 418 q 143 614 143 533 q 199 756 143 694 q 347 835 254 819 l 347 873 q 367 944 347 922 q 417 965 386 965 q 467 944 448 965 q 486 873 486 922 l 486 835 z "},"%":{"ha":833,"x_min":107,"x_max":729,"o":"m 524 675 q 466 536 524 593 q 328 479 409 479 q 189 536 246 479 q 131 675 131 593 q 189 814 131 756 q 328 871 246 871 q 466 814 409 871 q 524 675 524 757 m 438 675 q 406 753 438 721 q 328 785 373 785 q 249 753 281 785 q 217 675 217 721 q 250 597 217 629 q 328 564 282 564 q 406 597 373 564 q 438 675 438 629 m 688 468 l 175 302 q 147 296 156 296 q 119 309 132 296 q 107 341 107 321 q 117 367 107 355 q 149 384 123 376 l 661 550 q 689 556 680 556 q 717 543 705 556 q 729 511 729 530 q 720 485 729 496 q 688 468 713 476 m 700 176 q 642 37 700 94 q 503 -20 585 -20 q 364 37 422 -20 q 307 176 307 95 q 364 315 307 257 q 503 372 422 372 q 642 315 585 372 q 700 176 700 258 m 614 176 q 581 254 614 222 q 503 286 549 286 q 425 254 458 286 q 393 176 393 222 q 425 98 393 130 q 503 66 458 66 q 581 98 549 66 q 614 176 614 130 z "},"&":{"ha":833,"x_min":153,"x_max":761,"o":"m 562 276 l 595 394 l 667 394 q 726 384 710 394 q 759 323 759 363 q 742 276 759 295 q 700 255 724 256 q 657 139 683 182 q 728 129 712 139 q 761 69 761 109 q 740 19 761 39 q 668 0 718 0 l 585 0 l 569 22 q 511 -8 538 0 q 410 -20 469 -20 q 220 42 288 -20 q 153 201 153 105 q 186 327 153 267 q 289 428 220 387 q 250 505 259 477 q 241 564 241 532 q 304 711 241 648 q 456 774 368 774 q 503 769 479 774 q 553 751 528 763 q 590 762 578 762 q 639 741 618 762 q 659 692 659 720 q 648 653 659 668 q 603 619 637 637 l 545 588 q 491 628 511 618 q 455 635 475 635 q 401 614 423 635 q 380 565 380 593 q 420 483 380 541 l 562 276 m 369 311 q 292 202 292 275 q 318 141 292 163 q 410 119 345 119 q 488 139 452 119 l 369 311 z "},"'":{"ha":833,"x_min":326,"x_max":505,"o":"m 326 849 l 505 849 l 461 491 q 447 452 458 463 q 417 441 435 441 q 389 452 400 441 q 374 490 378 463 l 326 849 z "},"(":{"ha":833,"x_min":367,"x_max":679,"o":"m 367 338 q 406 578 367 456 q 496 777 435 667 q 562 874 541 856 q 608 892 583 892 q 659 871 638 892 q 679 823 679 851 q 663 776 679 803 q 556 551 589 656 q 522 338 522 446 q 556 124 522 229 q 663 -101 589 19 q 679 -148 679 -127 q 659 -197 679 -176 q 608 -217 638 -217 q 564 -201 583 -217 q 492 -94 537 -177 q 404 104 428 26 q 367 338 367 223 z "},")":{"ha":833,"x_min":164,"x_max":476,"o":"m 476 338 q 437 97 476 219 q 347 -102 408 7 q 281 -199 302 -180 q 235 -217 260 -217 q 184 -197 205 -217 q 164 -148 164 -176 q 180 -101 164 -127 q 287 124 254 19 q 321 338 321 229 q 287 551 321 446 q 180 776 254 656 q 164 823 164 803 q 184 871 164 851 q 235 892 205 892 q 279 876 260 892 q 351 769 306 852 q 439 572 415 649 q 476 338 476 452 z "},"*":{"ha":833,"x_min":113,"x_max":718,"o":"m 303 526 l 183 565 q 129 594 140 578 q 113 638 113 614 q 133 687 113 667 q 178 708 153 708 q 226 697 194 708 l 346 659 l 346 785 q 365 856 346 835 q 416 878 385 878 q 466 856 447 878 q 485 785 485 835 l 485 659 l 605 697 q 652 708 637 708 q 698 688 678 708 q 718 639 718 667 q 704 596 718 614 q 648 565 690 579 l 528 526 l 602 424 q 629 365 629 387 q 609 315 629 336 q 560 295 589 295 q 525 304 539 295 q 490 342 511 313 l 416 444 l 341 342 q 306 303 320 313 q 271 294 292 294 q 222 315 243 294 q 201 366 201 336 q 229 424 201 387 l 303 526 z "},"+":{"ha":833,"x_min":56,"x_max":778,"o":"m 486 326 l 486 93 q 467 21 486 43 q 417 0 448 0 q 367 21 386 0 q 347 93 347 43 l 347 326 l 149 326 q 77 345 98 326 q 56 395 56 364 q 77 446 56 427 q 149 465 98 465 l 347 465 l 347 696 q 367 768 347 746 q 417 789 386 789 q 468 768 448 789 q 487 696 487 747 l 486 465 l 685 465 q 756 446 735 465 q 778 395 778 427 q 756 345 778 364 q 685 326 735 326 l 486 326 z "},",":{"ha":833,"x_min":283,"x_max":570,"o":"m 384 187 l 570 187 l 370 -190 q 326 -223 352 -223 q 295 -212 308 -223 q 283 -186 283 -200 q 288 -158 283 -176 l 384 187 z "},"-":{"ha":833,"x_min":127,"x_max":708,"o":"m 708 331 l 127 331 l 127 458 l 708 458 l 708 331 z "},".":{"ha":833,"x_min":314,"x_max":523,"o":"m 523 70 q 495 4 523 31 q 418 -22 467 -22 q 342 4 370 -22 q 314 70 314 31 q 342 136 314 109 q 418 162 370 162 q 495 136 467 162 q 523 70 523 109 z "},"/":{"ha":833,"x_min":115,"x_max":720,"o":"m 703 861 l 258 -99 q 227 -146 241 -135 q 184 -160 210 -160 q 135 -140 156 -160 q 115 -94 115 -119 q 131 -40 115 -75 l 578 920 q 608 966 595 956 q 650 981 626 981 q 699 961 679 981 q 720 915 720 941 q 703 861 720 897 z "},":":{"ha":833,"x_min":313,"x_max":523,"o":"m 522 523 q 494 457 522 484 q 417 431 466 431 q 340 457 368 431 q 313 523 313 484 q 340 589 313 562 q 417 615 368 615 q 494 589 466 615 q 522 523 522 562 m 523 68 q 495 2 523 28 q 418 -24 467 -24 q 342 2 370 -24 q 314 68 314 28 q 342 134 314 107 q 418 160 370 160 q 495 134 467 160 q 523 68 523 107 z "},";":{"ha":833,"x_min":274,"x_max":586,"o":"m 586 519 q 558 454 586 480 q 481 427 530 427 q 406 454 433 427 q 378 520 378 481 q 405 586 378 559 q 481 612 433 612 q 558 586 530 612 q 586 519 586 559 m 371 203 l 548 203 l 352 -115 q 315 -147 333 -147 q 286 -137 298 -147 q 274 -115 274 -127 q 279 -92 274 -106 l 371 203 z "},"<":{"ha":833,"x_min":-18,"x_max":778,"o":"m 271 396 l 722 146 q 767 113 755 127 q 778 75 778 98 q 757 24 778 45 q 708 3 736 3 q 653 23 690 3 l -18 396 l 653 769 q 707 789 690 789 q 757 768 736 789 q 778 718 778 747 q 767 680 778 694 q 722 646 755 665 l 271 396 z "},"=":{"ha":833,"x_min":28,"x_max":808,"o":"m 715 457 l 121 457 q 49 476 71 457 q 28 527 28 496 q 49 577 28 557 q 121 596 71 596 l 715 596 q 786 577 765 596 q 808 526 808 557 q 786 476 808 496 q 715 457 765 457 m 715 195 l 121 195 q 49 214 71 195 q 28 264 28 233 q 49 315 28 296 q 121 334 71 334 l 715 334 q 786 315 765 334 q 808 264 808 296 q 786 214 808 233 q 715 195 765 195 z "},">":{"ha":833,"x_min":57,"x_max":852,"o":"m 564 396 l 113 646 q 68 680 79 665 q 57 718 57 694 q 78 768 57 747 q 127 789 99 789 q 182 769 145 789 l 852 396 l 182 23 q 127 3 145 3 q 78 24 99 3 q 57 75 57 45 q 68 113 57 98 q 113 146 79 127 l 564 396 z "},"?":{"ha":833,"x_min":142,"x_max":720,"o":"m 488 321 q 465 263 484 281 q 418 245 446 245 q 368 267 387 245 q 349 338 349 288 l 349 416 q 547 513 513 479 q 581 583 581 547 q 542 668 581 632 q 429 704 502 704 q 281 669 353 704 l 281 648 q 262 577 281 599 q 212 556 243 556 q 162 577 181 556 q 142 648 142 598 l 142 760 q 308 827 249 810 q 430 843 367 843 q 641 767 562 843 q 720 576 720 691 q 672 438 720 495 q 488 321 625 381 m 517 52 q 494 0 517 20 q 418 -20 471 -20 q 343 0 366 -20 q 320 52 320 20 q 342 104 320 84 q 418 124 365 124 q 494 104 471 124 q 517 52 517 84 z "},"@":{"ha":833,"x_min":122,"x_max":691,"o":"m 559 606 l 559 649 q 520 757 559 716 q 420 798 481 798 q 328 765 371 798 q 263 682 285 733 q 224 502 224 592 l 224 296 q 295 47 224 139 q 424 -14 341 -14 q 505 -2 468 -14 q 562 30 542 9 q 600 50 583 50 q 637 35 622 50 q 652 -3 652 20 q 605 -69 652 -37 q 420 -115 537 -115 q 272 -75 330 -115 q 159 81 197 -22 q 122 286 122 184 l 122 509 q 203 786 122 672 q 418 900 283 900 q 532 875 478 900 q 623 787 585 850 q 661 649 661 725 l 661 278 q 691 233 691 264 q 675 194 691 209 q 620 180 659 180 l 559 180 l 559 184 q 512 179 527 179 q 370 239 431 179 q 309 381 309 300 q 376 533 309 468 q 559 606 443 599 m 559 501 q 449 459 487 494 q 411 380 411 425 q 443 313 411 341 q 526 284 474 284 q 559 286 536 284 l 559 501 z "},"A":{"ha":833,"x_min":-31,"x_max":865,"o":"m 587 224 l 249 224 l 215 139 l 249 139 q 320 120 299 139 q 342 69 342 100 q 320 19 342 39 q 249 0 299 0 l 62 0 q -10 19 12 0 q -31 70 -31 39 q -9 121 -31 101 q 65 139 14 140 l 283 683 l 193 683 q 121 702 142 683 q 100 753 100 722 q 121 803 100 784 q 193 823 142 823 l 493 822 l 770 139 q 834 128 819 139 q 865 69 865 106 q 844 19 865 39 q 773 0 823 0 l 586 0 q 514 19 536 0 q 493 70 493 39 q 514 120 493 100 q 586 139 536 139 l 620 139 l 587 224 m 529 363 l 417 638 l 304 363 l 529 363 z "},"B":{"ha":833,"x_min":18,"x_max":797,"o":"m 133 139 l 133 683 l 111 683 q 40 702 61 683 q 18 753 18 722 q 40 803 18 784 q 111 823 61 823 l 460 823 q 661 753 585 823 q 736 588 736 684 q 719 503 736 543 q 665 429 701 463 q 764 337 731 389 q 797 218 797 284 q 773 119 797 165 q 730 64 755 85 q 645 18 695 36 q 519 0 595 0 l 111 0 q 40 19 61 0 q 18 70 18 39 q 40 120 18 100 q 111 139 62 139 l 133 139 m 272 481 l 425 481 q 561 522 507 481 q 597 591 597 550 q 563 655 597 628 q 453 683 528 683 l 272 683 l 272 481 m 272 139 l 512 139 q 631 164 597 139 q 658 218 658 183 q 606 301 658 260 q 456 342 553 342 l 272 342 l 272 139 z "},"C":{"ha":833,"x_min":43,"x_max":787,"o":"m 635 787 q 663 813 648 804 q 696 822 678 822 q 746 801 726 822 q 765 730 765 780 l 765 612 q 746 540 765 562 q 696 519 726 519 q 651 534 668 519 q 626 593 634 550 q 607 637 621 621 q 529 686 579 667 q 429 704 479 704 q 315 677 367 704 q 222 589 262 650 q 182 444 182 528 l 182 353 q 255 186 182 253 q 458 119 328 119 q 589 140 535 119 q 655 188 620 152 q 689 216 677 210 q 717 222 701 222 q 766 201 745 222 q 787 152 787 180 q 758 91 787 123 q 652 16 717 43 q 458 -20 564 -20 q 236 31 335 -20 q 100 159 156 71 q 43 351 43 247 l 43 445 q 94 647 43 553 q 234 792 144 741 q 424 843 323 843 q 537 829 484 843 q 635 787 589 815 z "},"D":{"ha":833,"x_min":20,"x_max":767,"o":"m 106 139 l 106 683 q 41 703 62 684 q 20 753 20 722 q 41 803 20 784 q 113 823 62 823 l 404 822 q 536 797 471 822 q 640 733 601 772 q 702 653 670 704 q 751 552 734 602 q 767 429 767 502 l 767 363 q 737 207 767 275 q 659 95 707 138 q 568 32 610 52 q 392 0 500 0 l 113 0 q 41 19 62 0 q 20 70 20 39 q 41 120 20 100 q 106 139 62 140 m 245 139 l 393 139 q 517 163 475 139 q 600 242 572 194 q 628 367 628 290 l 628 433 q 603 548 628 498 q 514 654 564 625 q 391 683 465 683 l 245 683 l 245 139 z "},"E":{"ha":833,"x_min":20,"x_max":768,"o":"m 274 343 l 274 139 l 629 139 l 629 214 q 648 286 629 264 q 699 307 667 307 q 748 286 729 307 q 768 214 768 264 l 768 0 l 113 0 q 42 19 63 0 q 20 70 20 39 q 42 120 20 100 q 113 139 64 139 l 135 139 l 135 683 l 113 683 q 42 702 63 683 q 20 753 20 722 q 42 803 20 784 q 113 823 63 823 l 737 822 l 737 610 q 718 539 737 561 q 668 518 699 518 q 617 539 637 518 q 598 610 598 560 l 598 683 l 274 683 l 274 482 l 396 482 q 406 552 396 536 q 466 585 427 585 q 516 564 496 585 q 535 492 535 543 l 535 332 q 524 271 535 287 q 466 239 503 239 q 406 273 427 239 q 396 343 396 288 l 274 343 z "},"F":{"ha":833,"x_min":68,"x_max":815,"o":"m 321 342 l 321 139 l 464 139 q 535 120 514 139 q 557 69 557 100 q 535 19 557 39 q 464 0 514 0 l 161 0 q 89 19 111 0 q 68 70 68 39 q 90 120 68 100 q 161 139 111 139 l 182 139 l 182 683 l 161 683 q 89 702 111 683 q 68 753 68 722 q 89 803 68 784 q 161 823 111 823 l 815 822 l 815 610 q 796 539 815 560 q 745 517 777 517 q 695 538 715 517 q 676 610 676 559 l 676 683 l 321 683 l 321 481 l 444 481 q 454 551 444 536 q 513 585 475 585 q 563 563 544 585 q 583 492 583 542 l 583 332 q 563 260 583 281 q 513 239 544 239 q 454 272 475 239 q 444 342 444 288 l 321 342 z "},"G":{"ha":833,"x_min":44,"x_max":826,"o":"m 767 254 l 767 68 q 607 -2 673 17 q 464 -20 541 -20 q 267 12 357 -20 q 154 73 195 36 q 79 183 113 111 q 44 347 44 256 l 44 447 q 129 695 44 586 q 439 843 243 843 q 547 831 496 843 q 644 797 598 820 q 699 822 672 822 q 748 801 729 822 q 767 730 767 780 l 767 640 q 748 568 767 589 q 698 547 728 547 q 656 562 673 547 q 633 607 642 572 q 612 654 624 642 q 548 689 594 673 q 444 704 501 704 q 300 670 361 704 q 220 583 256 645 q 183 447 183 520 l 183 347 q 248 177 183 235 q 454 119 313 119 q 628 155 549 119 l 628 254 l 486 254 q 415 274 436 254 q 393 324 393 293 q 415 375 393 355 q 486 394 436 394 l 733 393 q 805 374 783 393 q 826 324 826 355 q 811 281 826 300 q 767 254 797 263 z "},"H":{"ha":833,"x_min":31,"x_max":810,"o":"m 569 340 l 272 340 l 272 139 l 294 139 q 365 120 344 139 q 387 69 387 100 q 365 19 387 39 q 294 0 344 0 l 123 0 q 52 19 73 0 q 31 70 31 39 q 64 129 31 108 q 133 139 80 140 l 133 683 q 78 705 96 686 q 59 753 59 724 q 80 803 59 784 q 152 823 102 823 l 294 822 q 365 803 344 822 q 387 753 387 784 q 365 702 387 722 q 294 683 344 683 l 272 683 l 272 479 l 569 479 l 569 683 l 547 683 q 476 702 497 683 q 454 753 454 722 q 476 803 454 784 q 547 823 497 823 l 689 822 q 761 803 739 822 q 782 753 782 784 q 763 705 782 724 q 708 683 745 686 l 708 139 q 777 129 762 139 q 810 69 810 108 q 789 19 810 39 q 718 0 768 0 l 547 0 q 476 19 497 0 q 454 70 454 39 q 476 120 454 100 q 547 139 498 139 l 569 139 l 569 340 z "},"I":{"ha":833,"x_min":114,"x_max":720,"o":"m 486 683 l 486 139 l 627 139 q 698 120 677 139 q 720 69 720 100 q 698 19 720 39 q 627 0 677 0 l 207 0 q 135 19 157 0 q 114 70 114 39 q 135 120 114 100 q 207 139 157 139 l 347 139 l 347 683 l 207 683 q 135 702 157 683 q 114 753 114 722 q 135 803 114 784 q 207 823 157 823 l 627 822 q 698 803 677 822 q 720 753 720 784 q 698 702 720 722 q 627 683 677 683 l 486 683 z "},"J":{"ha":833,"x_min":75,"x_max":852,"o":"m 678 683 l 678 262 q 652 136 678 183 q 534 22 611 64 q 372 -20 457 -20 q 75 72 263 -20 l 75 300 q 94 372 75 351 q 144 393 113 393 q 194 372 175 393 q 214 300 214 351 l 214 164 q 377 119 309 119 q 452 135 413 119 q 510 175 490 152 q 536 220 530 198 q 539 279 539 233 l 539 683 l 370 683 q 299 702 320 683 q 277 753 277 722 q 299 803 277 784 q 370 823 320 823 l 760 822 q 831 803 810 822 q 852 753 852 784 q 831 702 852 722 q 760 683 810 683 l 678 683 z "},"K":{"ha":833,"x_min":18,"x_max":840,"o":"m 272 293 l 272 139 l 322 139 q 394 120 372 139 q 415 69 415 100 q 394 19 415 39 q 322 0 372 0 l 111 0 q 40 19 61 0 q 18 70 18 39 q 40 120 18 100 q 111 139 62 139 l 133 139 l 133 683 l 111 683 q 40 702 61 683 q 18 753 18 722 q 40 803 18 784 q 111 823 61 823 l 322 822 q 394 803 372 822 q 415 753 415 784 q 394 702 415 722 q 322 683 372 683 l 272 683 l 272 477 l 519 689 q 489 718 497 705 q 481 751 481 732 q 502 803 481 783 q 574 823 524 823 l 715 822 q 787 803 766 822 q 808 753 808 784 q 787 703 808 722 q 720 683 766 683 l 471 465 q 602 342 541 425 q 711 139 663 260 l 748 139 q 819 120 798 139 q 840 69 840 100 q 819 19 840 39 q 748 0 798 0 l 622 0 q 527 198 578 104 q 447 310 485 275 q 357 366 410 345 l 272 293 z "},"L":{"ha":833,"x_min":46,"x_max":798,"o":"m 359 683 l 359 139 l 659 139 l 659 271 q 678 342 659 321 q 728 363 697 363 q 778 342 759 363 q 798 271 798 321 l 798 0 l 139 0 q 67 19 89 0 q 46 70 46 39 q 67 120 46 100 q 139 139 89 139 l 220 139 l 220 683 l 139 683 q 67 702 89 683 q 46 753 46 722 q 67 803 46 784 q 139 823 89 823 l 440 822 q 512 803 490 822 q 533 753 533 784 q 512 702 533 722 q 440 683 490 683 l 359 683 z "},"M":{"ha":833,"x_min":-26,"x_max":866,"o":"m 199 553 l 199 139 l 250 139 q 321 120 300 139 q 342 69 342 100 q 321 19 342 39 q 250 0 300 0 l 67 0 q -4 19 17 0 q -26 70 -26 39 q -5 120 -26 100 q 60 139 16 139 l 60 683 q 5 705 24 686 q -14 753 -14 724 q 8 803 -14 784 q 79 823 29 823 l 232 822 l 421 404 l 607 823 l 761 822 q 832 803 811 822 q 854 753 854 784 q 835 705 854 724 q 780 683 816 686 l 780 139 q 845 119 824 139 q 866 69 866 100 q 845 19 866 39 q 773 0 823 0 l 590 0 q 519 19 541 0 q 498 70 498 39 q 519 120 498 100 q 590 139 541 139 l 641 139 l 641 553 l 481 195 l 361 195 l 199 553 z "},"N":{"ha":833,"x_min":-11,"x_max":823,"o":"m 243 559 l 243 139 l 293 139 q 365 120 343 139 q 386 69 386 100 q 365 19 386 39 q 293 0 343 0 l 111 0 q 39 19 60 0 q 18 70 18 39 q 39 119 18 100 q 104 139 60 139 l 104 683 l 82 683 q 11 702 32 683 q -11 753 -11 722 q 11 803 -11 784 q 82 823 32 823 l 243 822 l 598 264 l 598 683 l 548 683 q 476 702 498 683 q 455 753 455 722 q 476 803 455 784 q 548 823 498 823 l 730 822 q 802 803 781 822 q 823 753 823 784 q 802 703 823 722 q 738 683 781 683 l 738 0 l 600 0 l 243 559 z "},"O":{"ha":833,"x_min":28,"x_max":807,"o":"m 807 411 q 689 103 807 226 q 417 -20 572 -20 q 166 82 278 -20 q 28 411 28 209 q 166 741 28 613 q 417 843 278 843 q 689 720 572 843 q 807 411 807 597 m 668 411 q 591 621 668 538 q 417 704 515 704 q 243 621 320 704 q 167 411 167 537 q 243 202 167 285 q 417 119 320 119 q 591 201 515 119 q 668 411 668 284 z "},"P":{"ha":833,"x_min":83,"x_max":802,"o":"m 336 282 l 336 139 l 477 139 q 548 120 527 139 q 570 69 570 100 q 548 19 570 39 q 477 0 527 0 l 176 0 q 104 19 125 0 q 83 70 83 39 q 104 120 83 100 q 176 139 126 139 l 197 139 l 197 683 l 176 683 q 104 702 125 683 q 83 753 83 722 q 104 803 83 784 q 176 823 125 823 l 496 822 q 719 745 637 822 q 802 557 802 668 q 774 442 802 496 q 704 362 753 401 q 603 302 654 322 q 468 282 552 282 l 336 282 m 336 421 l 465 421 q 609 462 556 421 q 663 561 663 503 q 620 646 663 610 q 496 683 576 683 l 336 683 l 336 421 z "},"Q":{"ha":833,"x_min":27,"x_max":807,"o":"m 449 -19 l 445 -25 q 580 -54 517 -25 q 623 -66 606 -66 q 682 -43 647 -66 q 738 -20 718 -20 q 787 -40 767 -20 q 807 -90 807 -60 q 770 -153 807 -126 q 621 -205 696 -205 q 545 -191 583 -205 q 446 -166 482 -166 q 266 -197 387 -166 q 227 -203 241 -203 q 180 -182 200 -203 q 160 -130 160 -161 q 187 -77 160 -103 l 276 9 q 97 164 166 57 q 27 411 27 271 q 166 741 27 613 q 416 843 277 843 q 667 741 556 843 q 806 411 806 613 q 701 116 806 237 q 449 -19 596 -5 m 667 411 q 591 621 667 538 q 416 704 514 704 q 243 621 319 704 q 166 411 166 537 q 243 202 166 285 q 416 119 319 119 q 591 201 514 119 q 667 411 667 284 z "},"R":{"ha":833,"x_min":20,"x_max":863,"o":"m 273 314 l 273 139 l 323 139 q 395 120 374 139 q 416 69 416 100 q 395 19 416 39 q 323 0 374 0 l 113 0 q 41 19 62 0 q 20 70 20 39 q 41 120 20 100 q 113 139 63 139 l 134 139 l 134 683 l 113 683 q 41 702 62 683 q 20 753 20 722 q 41 803 20 784 q 113 823 62 823 l 427 822 q 655 749 574 822 q 736 572 736 676 q 699 453 736 507 q 584 359 661 400 q 678 260 628 320 q 762 139 709 221 q 832 128 815 139 q 863 69 863 107 q 842 19 863 39 q 770 0 821 0 l 691 0 q 411 314 522 261 l 273 314 m 273 453 l 382 453 q 490 471 442 453 q 575 523 553 496 q 597 576 597 550 q 555 649 597 616 q 433 683 513 683 l 273 683 l 273 453 z "},"S":{"ha":833,"x_min":86,"x_max":750,"o":"m 214 35 q 184 7 195 14 q 157 1 173 1 q 105 23 125 1 q 86 94 86 44 l 86 187 q 105 259 86 237 q 157 280 125 280 q 198 267 181 280 q 223 224 214 254 q 241 183 232 194 q 311 140 261 162 q 421 119 361 119 q 574 162 514 119 q 612 227 612 189 q 593 276 612 253 q 534 313 575 298 q 412 341 507 323 q 240 392 298 362 q 148 476 182 422 q 114 593 114 530 q 197 768 114 693 q 414 843 281 843 q 514 831 468 843 q 597 795 559 819 q 651 821 624 821 q 701 800 682 821 q 720 729 720 779 l 720 625 q 701 553 720 574 q 651 532 682 532 q 606 547 625 532 q 584 593 591 559 q 565 643 576 628 q 506 686 545 669 q 415 704 467 704 q 296 669 340 704 q 252 596 252 634 q 270 546 252 570 q 323 509 288 522 q 453 478 346 499 q 617 432 559 457 q 712 353 674 407 q 750 226 750 300 q 677 61 750 123 q 432 -20 581 -20 q 320 -6 374 -20 q 214 35 265 7 z "},"T":{"ha":833,"x_min":56,"x_max":776,"o":"m 484 683 l 484 139 l 578 139 q 649 120 628 139 q 671 69 671 100 q 649 19 671 39 q 578 0 628 0 l 252 0 q 181 19 202 0 q 159 70 159 39 q 181 120 159 100 q 252 139 202 139 l 345 139 l 345 683 l 195 683 l 195 551 q 175 480 195 501 q 125 458 156 458 q 75 480 94 458 q 56 551 56 501 l 56 823 l 776 822 l 776 551 q 756 480 776 501 q 706 458 737 458 q 656 480 675 458 q 637 551 637 501 l 637 683 l 484 683 z "},"U":{"ha":833,"x_min":15,"x_max":821,"o":"m 734 683 l 734 289 q 642 70 734 160 q 419 -20 549 -20 q 298 2 355 -20 q 196 69 241 25 q 126 161 151 113 q 101 289 101 209 l 101 683 q 36 703 57 683 q 15 753 15 722 q 36 803 15 784 q 108 822 57 822 l 290 823 q 362 803 340 823 q 383 753 383 784 q 362 702 383 722 q 290 683 340 683 l 240 683 l 240 277 q 292 166 240 214 q 417 119 344 119 q 509 142 466 119 q 578 209 551 165 q 595 277 595 237 l 595 683 l 545 683 q 474 702 495 683 q 452 753 452 722 q 474 803 452 784 q 545 823 495 823 l 728 822 q 799 803 778 822 q 821 753 821 784 q 800 703 821 722 q 734 683 779 683 z "},"V":{"ha":833,"x_min":-32,"x_max":865,"o":"m 416 203 l 618 683 l 586 683 q 514 702 536 683 q 493 753 493 722 q 514 803 493 784 q 586 823 536 823 l 772 822 q 844 803 823 822 q 865 753 865 784 q 833 694 865 715 q 769 683 817 683 l 484 0 l 350 0 l 65 683 q 1 694 16 683 q -32 753 -32 715 q -11 803 -32 784 q 61 823 11 823 l 249 822 q 320 803 298 822 q 341 753 341 784 q 320 702 341 722 q 249 683 299 683 l 216 683 l 416 203 z "},"W":{"ha":833,"x_min":-15,"x_max":850,"o":"m 417 395 l 288 0 l 132 0 l 50 683 q 1 705 18 687 q -15 751 -15 723 q 6 803 -15 783 q 78 823 28 823 l 263 822 q 335 803 313 822 q 356 753 356 784 q 335 702 356 722 q 263 683 313 683 l 191 683 l 237 294 l 346 618 l 490 618 l 599 294 l 645 683 l 572 683 q 501 702 522 683 q 479 753 479 722 q 501 803 479 784 q 572 823 522 823 l 757 822 q 828 803 807 822 q 850 753 850 784 q 833 707 850 726 q 784 683 816 688 l 704 0 l 551 0 l 417 395 z "},"X":{"ha":833,"x_min":15,"x_max":823,"o":"m 508 419 l 740 139 q 802 119 781 138 q 823 69 823 100 q 801 19 823 39 q 730 0 780 0 l 573 0 q 502 19 524 0 q 481 70 481 39 q 500 118 481 99 q 559 139 520 138 l 420 311 l 279 139 q 337 118 317 138 q 357 69 357 98 q 335 19 357 39 q 264 0 314 0 l 108 0 q 36 19 58 0 q 15 70 15 39 q 36 119 15 100 q 98 139 57 139 l 328 420 l 109 683 q 48 704 68 684 q 28 753 28 723 q 49 803 28 784 q 121 823 71 823 l 249 822 q 320 803 299 822 q 342 753 342 784 q 328 711 342 730 q 289 683 319 699 l 418 528 l 545 683 q 506 711 515 699 q 492 753 492 730 q 514 803 492 783 q 585 823 535 823 l 713 822 q 784 803 763 822 q 806 753 806 784 q 785 703 806 723 q 725 683 764 684 l 508 419 z "},"Y":{"ha":833,"x_min":29,"x_max":807,"o":"m 487 345 l 487 139 l 581 139 q 652 120 631 139 q 673 69 673 100 q 652 19 673 39 q 581 0 631 0 l 254 0 q 183 19 205 0 q 162 70 162 39 q 183 120 162 100 q 254 139 205 139 l 348 139 l 348 345 l 118 683 q 51 703 72 683 q 29 753 29 722 q 51 803 29 784 q 122 823 72 823 l 248 822 q 320 803 298 822 q 341 753 341 784 q 286 683 341 706 l 418 489 l 547 683 q 503 712 516 694 q 490 753 490 730 q 512 803 490 784 q 583 823 533 822 l 714 822 q 786 803 764 822 q 807 753 807 784 q 785 702 807 722 q 715 683 764 683 l 487 345 z "},"Z":{"ha":833,"x_min":102,"x_max":735,"o":"m 280 139 l 595 139 l 595 242 q 615 314 595 292 q 665 335 634 335 q 716 314 696 335 q 735 242 735 292 l 734 0 l 102 0 l 102 139 l 526 683 l 270 683 l 270 583 q 251 512 270 533 q 201 490 232 490 q 150 512 170 490 q 131 583 131 533 l 131 823 l 706 822 l 706 686 l 280 139 z "},"[":{"ha":833,"x_min":346,"x_max":662,"o":"m 485 739 l 485 -78 l 569 -78 q 641 -97 619 -78 q 662 -147 662 -116 q 641 -198 662 -178 q 569 -217 619 -217 l 346 -217 l 346 878 l 568 878 q 640 858 618 878 q 661 808 661 839 q 640 758 661 777 q 568 739 618 739 l 485 739 z "},"\\":{"ha":833,"x_min":115,"x_max":720,"o":"m 258 920 l 704 -37 q 715 -71 707 -44 q 720 -95 720 -87 q 700 -138 720 -119 q 652 -156 681 -156 q 610 -144 626 -156 q 578 -96 595 -132 l 132 861 q 115 914 115 897 q 136 960 115 940 q 184 981 157 981 q 225 968 210 981 q 258 920 241 956 z "},"]":{"ha":833,"x_min":172,"x_max":488,"o":"m 349 -78 l 349 739 l 264 739 q 193 758 214 739 q 172 808 172 777 q 193 858 172 839 q 264 878 214 878 l 488 878 l 488 -217 l 265 -217 q 194 -198 215 -217 q 172 -147 172 -178 q 194 -97 172 -117 q 265 -78 215 -78 l 349 -78 z "},"^":{"ha":833,"x_min":113,"x_max":720,"o":"m 415 699 l 252 503 q 216 467 229 475 q 184 459 202 459 q 134 480 155 459 q 113 530 113 500 q 144 591 113 554 l 415 919 l 688 591 q 714 555 708 568 q 720 530 720 543 q 699 480 720 500 q 650 459 678 459 q 617 467 631 459 q 581 502 604 475 l 415 699 z "},"_":{"ha":833,"x_min":-55,"x_max":894,"o":"m 802 -417 l 38 -417 q -34 -398 -12 -417 q -55 -348 -55 -379 q -34 -297 -55 -317 q 38 -278 -12 -278 l 802 -278 q 872 -297 851 -278 q 894 -348 894 -317 q 873 -398 894 -378 q 802 -417 852 -417 z "},"`":{"ha":833,"x_min":285,"x_max":549,"o":"m 369 909 l 522 785 q 549 741 549 763 q 536 709 549 722 q 504 696 523 696 q 465 715 488 696 l 312 839 q 285 882 285 861 q 298 914 285 901 q 330 927 311 927 q 369 909 346 927 z "},"a":{"ha":833,"x_min":60,"x_max":798,"o":"m 542 0 l 542 33 q 427 -9 490 5 q 312 -23 363 -23 q 130 36 200 -23 q 60 168 60 96 q 150 330 60 255 q 396 405 239 405 q 542 391 459 405 l 542 425 q 515 475 542 456 q 413 495 488 495 q 253 471 351 495 q 196 462 216 462 q 149 482 168 462 q 130 533 130 502 q 136 564 130 551 q 155 584 143 576 q 206 603 168 592 q 311 626 258 617 q 408 634 365 634 q 609 578 538 634 q 681 425 681 522 l 681 139 l 705 139 q 776 120 755 139 q 798 69 798 100 q 776 19 798 39 q 705 0 755 0 l 542 0 m 542 249 q 388 265 458 265 q 242 224 303 265 q 204 170 204 197 q 222 138 204 151 q 315 116 256 116 q 429 136 366 116 q 542 189 492 155 l 542 249 z "},"b":{"ha":833,"x_min":-14,"x_max":796,"o":"m 241 880 l 241 568 q 345 617 292 601 q 451 634 397 634 q 696 534 595 634 q 796 294 796 435 q 701 68 796 159 q 448 -22 605 -22 q 341 -8 393 -22 q 241 34 290 6 l 241 0 l 79 0 q 7 19 28 0 q -14 70 -14 39 q 7 120 -14 100 q 79 139 29 139 l 102 139 l 102 741 l 79 741 q 7 760 28 741 q -14 810 -14 779 q 7 860 -14 841 q 79 880 28 880 l 241 880 m 657 290 q 597 435 657 376 q 449 495 536 495 q 302 435 362 495 q 241 292 241 376 q 296 166 241 215 q 449 117 350 117 q 603 166 548 117 q 657 290 657 215 z "},"c":{"ha":833,"x_min":77,"x_max":789,"o":"m 633 591 q 685 614 659 614 q 734 593 715 614 q 753 522 753 572 l 753 433 q 734 361 753 382 q 684 340 715 340 q 635 357 655 340 q 613 407 621 369 q 574 463 605 444 q 433 495 519 495 q 276 437 335 495 q 216 292 216 380 q 273 163 216 210 q 463 116 330 116 q 604 134 549 116 q 666 171 637 144 q 719 197 695 197 q 768 176 747 197 q 789 126 789 155 q 726 39 789 80 q 452 -23 632 -23 q 199 44 290 -23 q 77 291 77 134 q 176 537 77 439 q 435 634 275 634 q 542 623 492 634 q 633 591 591 612 z "},"d":{"ha":833,"x_min":42,"x_max":852,"o":"m 736 880 l 736 139 l 760 139 q 831 120 809 139 q 852 69 852 100 q 831 19 852 39 q 760 0 810 0 l 597 0 l 597 34 q 497 -8 549 6 q 390 -22 446 -22 q 138 68 233 -22 q 42 294 42 159 q 142 534 42 435 q 387 634 243 634 q 494 617 441 634 q 597 568 546 601 l 597 741 l 573 741 q 502 760 523 741 q 480 810 480 779 q 502 860 480 841 q 573 880 523 880 l 736 880 m 597 290 q 536 435 597 376 q 389 495 476 495 q 241 435 302 495 q 181 292 181 376 q 235 166 181 215 q 389 117 290 117 q 542 166 487 117 q 597 290 597 215 z "},"e":{"ha":833,"x_min":45,"x_max":766,"o":"m 766 237 l 195 237 q 272 150 217 183 q 422 117 328 117 q 627 150 499 117 q 701 163 680 163 q 747 144 728 163 q 766 94 766 124 q 746 48 766 67 q 614 0 719 23 q 412 -22 509 -22 q 145 72 245 -22 q 45 304 45 166 q 153 542 45 450 q 402 634 261 634 q 558 604 487 634 q 663 540 629 574 q 744 416 712 490 q 766 296 766 364 l 766 237 m 612 376 q 528 466 580 436 q 406 495 477 495 q 283 466 335 495 q 199 376 232 436 l 612 376 z "},"f":{"ha":833,"x_min":101,"x_max":794,"o":"m 416 477 l 416 139 l 614 139 q 685 120 664 139 q 707 69 707 100 q 685 19 707 39 q 614 0 664 0 l 194 0 q 122 19 144 0 q 101 70 101 39 q 122 120 101 100 q 194 139 144 139 l 277 139 l 277 477 l 210 477 q 139 496 160 477 q 117 547 117 515 q 139 596 117 577 q 210 616 160 616 l 277 616 l 277 669 q 345 820 277 760 q 543 880 413 880 q 676 869 600 880 q 773 840 751 859 q 794 791 794 821 q 775 739 794 759 q 728 719 756 719 q 690 724 715 719 q 537 741 604 741 q 442 720 468 741 q 416 669 416 699 l 416 616 l 630 616 q 702 596 680 616 q 723 546 723 577 q 702 496 723 515 q 630 477 680 477 l 416 477 z "},"g":{"ha":833,"x_min":45,"x_max":825,"o":"m 570 574 l 570 616 l 732 616 q 804 596 783 616 q 825 546 825 577 q 804 496 825 515 q 732 477 783 477 l 709 477 l 709 -29 q 678 -157 709 -102 q 583 -251 647 -212 q 439 -290 519 -290 l 282 -290 q 211 -271 232 -290 q 189 -221 189 -252 q 211 -171 189 -190 q 282 -151 232 -151 l 435 -151 q 534 -117 499 -151 q 570 -29 570 -82 l 570 39 q 476 -6 524 9 q 378 -21 428 -21 q 140 74 236 -21 q 45 307 45 168 q 140 542 45 447 q 378 636 236 636 q 478 621 431 636 q 570 574 526 606 m 569 308 q 512 441 569 385 q 376 497 456 497 q 240 441 297 497 q 184 308 184 385 q 240 175 184 231 q 376 119 297 119 q 512 175 456 119 q 569 308 569 231 z "},"h":{"ha":833,"x_min":18,"x_max":811,"o":"m 273 880 l 273 583 q 361 622 317 609 q 451 634 406 634 q 579 610 523 634 q 672 533 635 585 q 709 400 709 480 l 709 139 q 779 129 762 139 q 811 69 811 108 q 790 19 811 39 q 719 0 769 0 l 560 0 q 489 19 511 0 q 468 70 468 39 q 500 129 468 108 q 570 139 517 140 l 570 391 q 545 466 570 444 q 451 495 513 495 q 369 477 405 495 q 273 399 334 459 l 273 139 q 342 129 327 139 q 376 69 376 108 q 354 19 376 39 q 283 0 333 0 l 125 0 q 53 19 75 0 q 32 70 32 39 q 65 129 32 108 q 134 139 81 140 l 134 741 l 111 741 q 39 760 60 741 q 18 810 18 779 q 39 860 18 841 q 111 880 60 880 l 273 880 z "},"i":{"ha":833,"x_min":87,"x_max":745,"o":"m 467 880 l 467 732 l 301 732 l 301 880 l 467 880 m 486 616 l 486 139 l 652 139 q 724 120 703 139 q 745 69 745 100 q 724 19 745 39 q 652 0 703 0 l 180 0 q 108 19 130 0 q 87 70 87 39 q 108 120 87 100 q 180 139 130 139 l 347 139 l 347 477 l 235 477 q 163 496 185 477 q 142 547 142 515 q 163 596 142 577 q 235 616 184 616 l 486 616 z "},"j":{"ha":833,"x_min":119,"x_max":639,"o":"m 557 880 l 557 732 l 391 732 l 391 880 l 557 880 m 500 477 l 216 477 q 145 496 166 477 q 123 547 123 515 q 145 596 123 577 q 216 616 166 616 l 639 616 l 639 -29 q 608 -157 639 -102 q 513 -251 577 -212 q 370 -290 450 -290 l 212 -290 q 141 -271 162 -290 q 119 -221 119 -252 q 141 -171 119 -190 q 212 -151 162 -151 l 366 -151 q 465 -117 429 -151 q 500 -29 500 -82 l 500 477 z "},"k":{"ha":833,"x_min":47,"x_max":798,"o":"m 302 231 l 302 0 l 140 0 q 68 19 90 0 q 47 70 47 39 q 68 120 47 100 q 140 139 90 139 l 163 139 l 163 741 l 140 741 q 68 760 90 741 q 47 810 47 779 q 68 860 47 841 q 140 880 90 880 l 302 880 l 302 411 l 411 498 q 394 546 394 528 q 415 596 394 577 q 486 616 436 616 l 645 616 q 716 596 695 616 q 738 546 738 577 q 716 496 738 515 q 645 477 695 477 l 606 477 l 437 340 l 665 139 l 705 139 q 777 120 755 139 q 798 69 798 100 q 777 19 798 39 q 705 0 755 0 l 545 0 q 474 19 495 0 q 452 70 452 39 q 475 122 452 96 l 328 252 l 302 231 z "},"l":{"ha":833,"x_min":87,"x_max":746,"o":"m 486 880 l 486 139 l 653 139 q 725 120 703 139 q 746 69 746 100 q 725 19 746 39 q 653 0 703 0 l 180 0 q 109 19 130 0 q 87 70 87 39 q 109 120 87 100 q 180 139 130 139 l 347 139 l 347 741 l 235 741 q 164 760 186 741 q 142 810 142 779 q 164 860 142 841 q 235 880 185 880 l 486 880 z "},"m":{"ha":833,"x_min":-23,"x_max":869,"o":"m 202 616 l 202 576 q 263 622 236 610 q 327 635 291 635 q 387 620 357 635 q 446 575 417 605 q 518 620 481 605 q 594 634 555 634 q 720 593 671 634 q 783 450 783 538 l 783 139 q 848 119 827 139 q 869 69 869 100 q 848 19 869 39 q 777 0 827 0 l 644 0 l 644 439 q 633 483 644 471 q 597 495 621 495 q 555 483 574 495 q 494 419 530 466 l 494 139 q 558 119 537 139 q 579 69 579 100 q 558 19 579 39 q 487 0 537 0 l 355 0 l 355 439 q 343 483 355 470 q 307 495 331 495 q 259 480 283 495 q 202 419 235 465 l 202 139 q 267 119 245 139 q 288 69 288 100 q 267 19 288 39 q 195 0 245 0 l 70 0 q -2 19 20 0 q -23 70 -23 39 q -2 120 -23 100 q 63 139 19 139 l 63 477 q -2 496 19 477 q -23 547 -23 516 q -2 596 -23 577 q 70 616 20 616 l 202 616 z "},"n":{"ha":833,"x_min":35,"x_max":798,"o":"m 276 616 l 276 569 q 360 618 314 602 q 459 634 406 634 q 654 557 583 634 q 711 397 711 496 l 711 139 q 777 120 755 139 q 798 69 798 100 q 776 19 798 39 q 705 0 755 0 l 579 0 q 508 19 529 0 q 486 70 486 39 q 507 120 486 100 q 572 139 528 139 l 572 401 q 548 468 572 447 q 452 495 516 495 q 368 476 404 495 q 276 397 332 458 l 276 139 q 345 129 330 139 q 378 69 378 109 q 357 19 378 39 q 286 0 336 0 l 127 0 q 56 19 77 0 q 35 70 35 39 q 67 129 35 108 q 137 139 83 139 l 137 477 q 72 496 93 477 q 51 547 51 516 q 72 596 51 577 q 144 616 94 616 l 276 616 z "},"o":{"ha":833,"x_min":58,"x_max":778,"o":"m 778 296 q 733 141 778 216 q 601 22 689 66 q 418 -22 513 -22 q 236 21 323 -22 q 104 140 149 65 q 58 298 58 216 q 104 461 58 381 q 237 588 151 542 q 418 634 323 634 q 601 587 513 634 q 733 460 688 540 q 778 296 778 380 m 639 296 q 591 419 639 363 q 418 495 525 495 q 260 435 323 495 q 197 295 197 374 q 261 173 197 230 q 418 117 325 117 q 575 173 511 117 q 639 296 639 230 z "},"p":{"ha":833,"x_min":-12,"x_max":795,"o":"m 244 77 l 244 -151 l 328 -151 q 399 -171 378 -151 q 420 -221 420 -190 q 399 -271 420 -252 q 328 -290 378 -290 l 81 -290 q 10 -271 31 -290 q -12 -221 -12 -252 q 10 -171 -12 -190 q 81 -151 32 -151 l 105 -151 l 105 477 l 81 477 q 10 496 31 477 q -12 547 -12 515 q 10 596 -12 577 q 81 616 31 616 l 244 616 l 244 568 q 345 618 293 602 q 452 634 397 634 q 695 537 595 634 q 795 316 795 441 q 677 89 795 178 q 454 14 578 14 q 348 30 400 14 q 244 77 296 45 m 656 315 q 633 390 656 345 q 563 465 610 435 q 450 495 515 495 q 286 417 347 495 q 244 314 244 363 q 303 206 244 258 q 450 153 363 153 q 597 205 538 153 q 656 315 656 258 z "},"q":{"ha":833,"x_min":49,"x_max":856,"o":"m 739 477 l 739 -151 l 764 -151 q 834 -171 813 -151 q 856 -221 856 -190 q 835 -271 856 -252 q 764 -290 814 -290 l 517 -290 q 446 -271 467 -290 q 425 -221 425 -252 q 446 -171 425 -190 q 517 -151 467 -151 l 600 -151 l 600 77 q 497 30 549 45 q 391 14 444 14 q 168 89 267 14 q 49 316 49 178 q 149 537 49 441 q 393 634 250 634 q 499 618 448 634 q 600 568 551 602 l 600 616 l 764 616 q 834 596 813 616 q 856 546 856 577 q 835 496 856 515 q 764 477 814 477 l 739 477 m 600 315 q 577 390 600 345 q 506 465 554 435 q 394 495 458 495 q 229 417 290 495 q 188 314 188 363 q 247 205 188 258 q 394 153 307 153 q 541 205 482 153 q 600 315 600 258 z "},"r":{"ha":833,"x_min":73,"x_max":795,"o":"m 388 616 l 388 529 q 526 613 475 592 q 621 634 576 634 q 752 584 688 634 q 795 515 795 550 q 775 464 795 485 q 725 444 754 444 q 671 469 699 444 q 620 495 642 495 q 533 458 591 495 q 388 349 475 422 l 388 139 l 586 139 q 657 120 636 139 q 679 69 679 100 q 657 19 679 39 q 586 0 636 0 l 166 0 q 95 19 116 0 q 73 70 73 39 q 95 120 73 100 q 166 139 116 139 l 249 139 l 249 477 l 199 477 q 127 496 149 477 q 106 547 106 515 q 127 596 106 577 q 199 616 149 616 l 388 616 z "},"s":{"ha":833,"x_min":102,"x_max":735,"o":"m 567 453 q 496 485 533 474 q 418 495 458 495 q 290 469 337 495 q 269 444 269 457 q 297 413 269 428 q 394 392 319 402 q 587 354 532 373 q 696 279 658 329 q 735 175 735 230 q 669 50 735 100 q 425 -22 575 -22 q 313 -12 364 -22 q 219 19 262 -1 q 197 5 209 10 q 174 1 186 1 q 122 22 141 1 q 102 94 102 43 l 102 140 q 122 212 102 191 q 172 233 141 233 q 214 219 197 233 q 241 172 231 205 q 317 131 273 144 q 420 117 362 117 q 569 146 516 117 q 594 178 594 161 q 558 222 594 205 q 410 252 522 240 q 186 320 242 270 q 130 442 130 370 q 193 566 130 517 q 416 634 278 634 q 509 625 465 634 q 594 597 553 616 q 618 611 607 606 q 639 616 629 616 q 686 594 667 616 q 705 523 705 573 l 705 489 q 694 427 705 444 q 635 396 673 396 q 591 412 610 396 q 567 453 572 427 z "},"t":{"ha":833,"x_min":100,"x_max":821,"o":"m 382 477 l 382 198 q 401 139 382 153 q 503 117 429 117 q 699 162 609 117 q 753 180 734 180 q 801 159 781 180 q 821 110 821 139 q 799 63 821 83 q 668 4 766 31 q 503 -22 570 -22 q 308 34 373 -22 q 243 171 243 90 l 243 477 l 193 477 q 122 496 143 477 q 100 547 100 515 q 122 596 100 577 q 193 616 143 616 l 243 616 l 243 741 q 263 813 243 791 q 313 834 282 834 q 363 813 344 834 q 382 741 382 791 l 382 616 l 640 616 q 711 596 690 616 q 732 546 732 577 q 711 496 732 515 q 640 477 690 477 l 382 477 z "},"u":{"ha":833,"x_min":20,"x_max":798,"o":"m 712 616 l 712 139 q 777 119 756 139 q 798 69 798 100 q 777 19 798 39 q 705 0 755 0 l 573 0 l 573 32 q 459 -9 513 5 q 356 -22 405 -22 q 237 6 288 -22 q 158 86 187 35 q 137 178 137 123 l 137 477 l 113 477 q 42 496 63 477 q 20 547 20 515 q 42 596 20 577 q 113 616 63 616 l 276 616 l 276 202 q 297 137 276 158 q 363 117 319 117 q 453 133 405 117 q 573 193 502 150 l 573 477 l 523 477 q 451 496 473 477 q 430 547 430 515 q 451 596 430 577 q 523 616 473 616 l 712 616 z "},"v":{"ha":833,"x_min":0,"x_max":839,"o":"m 418 169 l 568 477 q 496 486 512 477 q 463 547 463 507 q 484 596 463 577 q 555 616 505 616 l 746 616 q 818 596 796 616 q 839 546 839 577 q 818 496 839 515 q 746 477 796 477 l 723 477 l 490 0 l 345 0 l 113 477 l 93 477 q 21 496 43 477 q 0 547 0 515 q 21 596 0 577 q 93 616 43 616 l 279 616 q 350 596 329 616 q 372 546 372 577 q 339 487 372 507 q 267 477 323 477 l 418 169 z "},"w":{"ha":833,"x_min":-3,"x_max":836,"o":"m 418 256 l 321 0 l 191 0 l 74 477 q 17 498 36 479 q -3 547 -3 517 q 19 596 -3 577 q 90 616 40 616 l 220 616 q 291 596 270 616 q 313 546 313 577 q 288 493 313 515 q 216 477 270 477 l 269 256 l 355 482 l 479 482 l 566 256 l 620 477 q 552 487 568 477 q 519 547 519 508 q 541 596 519 577 q 612 616 562 616 l 743 616 q 815 596 793 616 q 836 546 836 577 q 818 499 836 518 q 762 477 799 479 l 648 0 l 519 0 l 418 256 z "},"x":{"ha":833,"x_min":29,"x_max":808,"o":"m 521 320 l 732 139 q 789 118 770 137 q 808 69 808 98 q 786 19 808 39 q 715 0 765 0 l 557 0 q 485 19 507 0 q 464 71 464 39 q 479 114 464 95 q 521 139 494 132 l 417 229 l 311 139 q 357 114 343 131 q 371 71 371 97 q 350 19 371 39 q 279 0 329 0 l 122 0 q 51 19 72 0 q 29 70 29 39 q 48 118 29 98 q 105 139 67 137 l 311 321 l 129 477 q 74 499 93 479 q 56 547 56 518 q 77 596 56 577 q 149 616 98 616 l 279 616 q 350 596 329 616 q 372 547 372 577 q 334 482 372 507 l 418 412 l 500 484 q 463 545 463 510 q 485 596 463 577 q 556 616 506 616 l 685 616 q 756 596 735 616 q 778 546 778 577 q 759 499 778 518 q 704 477 741 479 l 521 320 z "},"y":{"ha":833,"x_min":29,"x_max":808,"o":"m 339 5 l 98 477 q 47 500 64 481 q 29 546 29 519 q 51 596 29 577 q 122 616 72 616 l 249 616 q 320 596 299 616 q 342 546 342 577 q 320 496 342 515 q 253 477 299 477 l 417 157 l 580 477 q 514 496 535 477 q 492 547 492 515 q 514 596 492 577 q 585 616 535 616 l 716 616 q 787 596 766 616 q 808 546 808 577 q 790 499 808 518 q 736 477 772 479 l 417 -151 q 486 -161 469 -151 q 518 -221 518 -182 q 497 -271 518 -252 q 425 -290 475 -290 l 122 -290 q 51 -271 72 -290 q 29 -221 29 -252 q 51 -171 29 -190 q 122 -151 72 -151 l 260 -151 l 339 5 z "},"z":{"ha":833,"x_min":120,"x_max":725,"o":"m 342 139 l 586 139 q 607 197 588 178 q 655 216 627 216 q 706 195 686 216 q 725 123 725 174 l 725 0 l 120 0 l 120 115 l 486 477 l 273 477 l 273 463 q 254 392 273 414 q 203 371 235 371 q 153 392 172 371 q 134 463 134 414 l 134 616 l 709 616 l 709 502 l 342 139 z "},"{":{"ha":833,"x_min":233,"x_max":602,"o":"m 445 337 q 478 283 469 309 q 487 199 487 257 l 487 -22 q 497 -62 487 -50 q 536 -76 508 -74 q 583 -98 565 -79 q 602 -146 602 -118 q 581 -197 602 -176 q 528 -217 560 -217 q 441 -193 483 -217 q 368 -115 399 -169 q 348 -33 348 -79 l 348 212 q 338 252 348 241 q 298 267 329 263 q 250 289 267 271 q 233 337 233 307 q 250 386 233 368 q 298 408 267 404 q 336 420 330 412 q 348 463 348 434 l 348 694 q 402 824 348 769 q 528 878 456 878 q 581 858 560 878 q 602 808 602 838 q 583 760 602 780 q 536 738 565 741 q 499 726 507 735 q 487 684 487 711 l 487 463 q 478 390 487 416 q 445 337 469 365 z "},"|":{"ha":833,"x_min":348,"x_max":487,"o":"m 487 744 l 487 -83 q 484 -168 487 -155 q 459 -203 478 -189 q 418 -217 441 -217 q 375 -203 394 -217 q 351 -167 357 -189 q 348 -83 348 -155 l 348 744 q 351 829 348 815 q 375 863 357 849 q 418 878 394 878 q 459 863 441 878 q 484 828 478 849 q 487 744 487 814 z "},"}":{"ha":833,"x_min":229,"x_max":597,"o":"m 385 337 q 352 391 361 365 q 343 463 343 417 l 343 684 q 333 723 343 711 q 294 738 322 735 q 247 760 265 741 q 229 808 229 780 q 249 858 229 838 q 302 878 270 878 q 389 854 347 878 q 463 776 431 830 q 482 694 482 741 l 482 463 q 492 422 482 433 q 532 408 501 411 q 580 386 564 404 q 597 337 597 368 q 580 289 597 307 q 532 267 564 271 q 494 254 500 263 q 482 212 482 241 l 482 -33 q 428 -162 482 -108 q 302 -217 374 -217 q 249 -197 270 -217 q 229 -146 229 -176 q 247 -99 229 -119 q 294 -77 265 -79 q 331 -64 323 -74 q 343 -22 343 -50 l 343 199 q 352 283 343 257 q 385 337 360 309 z "},"~":{"ha":833,"x_min":85,"x_max":749,"o":"m 679 494 q 729 474 709 494 q 749 425 749 454 q 719 360 749 396 q 642 284 673 307 q 543 250 595 250 q 465 270 504 250 q 369 345 427 290 q 294 400 311 400 q 279 395 286 400 q 230 348 264 385 q 183 303 197 311 q 156 295 170 295 q 106 316 127 295 q 85 365 85 337 q 155 473 85 406 q 294 539 226 539 q 370 520 331 539 q 474 437 410 500 q 523 395 507 404 q 541 389 533 389 q 558 395 551 389 q 612 450 575 406 q 649 487 636 479 q 679 494 663 494 z "},"Ä":{"ha":833,"x_min":-31,"x_max":865,"o":"m 587 224 l 249 224 l 215 139 l 249 139 q 320 120 299 139 q 342 69 342 100 q 320 19 342 39 q 249 0 299 0 l 62 0 q -10 19 12 0 q -31 70 -31 39 q -9 121 -31 101 q 65 139 14 140 l 283 683 l 193 683 q 121 702 142 683 q 100 753 100 722 q 121 803 100 784 q 193 823 142 823 l 493 822 l 770 139 q 834 128 819 139 q 865 69 865 106 q 844 19 865 39 q 773 0 823 0 l 586 0 q 514 19 536 0 q 493 70 493 39 q 514 120 493 100 q 586 139 536 139 l 620 139 l 587 224 m 529 363 l 417 638 l 304 363 l 529 363 m 286 1015 q 265 962 286 983 q 213 941 243 941 q 161 962 182 941 q 139 1015 139 984 q 161 1066 139 1045 q 213 1088 182 1088 q 265 1066 243 1088 q 286 1015 286 1045 m 576 1015 q 555 962 576 983 q 503 941 533 941 q 451 962 472 941 q 429 1015 429 984 q 451 1066 429 1045 q 503 1088 472 1088 q 555 1066 533 1088 q 576 1015 576 1045 z "},"Å":{"ha":833,"x_min":-31,"x_max":865,"o":"m 587 224 l 249 224 l 215 139 l 249 139 q 320 120 299 139 q 342 69 342 100 q 320 19 342 39 q 249 0 299 0 l 62 0 q -10 19 12 0 q -31 70 -31 39 q -9 121 -31 101 q 65 139 14 140 l 283 683 l 193 683 q 121 702 142 683 q 100 753 100 722 q 121 803 100 784 q 193 823 142 823 l 493 822 l 770 139 q 834 128 819 139 q 865 69 865 106 q 844 19 865 39 q 773 0 823 0 l 586 0 q 514 19 536 0 q 493 70 493 39 q 514 120 493 100 q 586 139 536 139 l 620 139 l 587 224 m 529 363 l 417 638 l 304 363 l 529 363 m 513 1029 q 473 934 513 973 q 380 895 434 895 q 286 934 325 895 q 247 1029 247 973 q 286 1119 247 1081 q 380 1156 324 1156 q 474 1119 435 1156 q 513 1029 513 1081 m 450 1029 q 430 1075 450 1055 q 380 1094 410 1094 q 330 1075 350 1094 q 309 1029 309 1055 q 330 979 309 1000 q 380 958 351 958 q 430 979 409 958 q 450 1029 450 1000 z "},"Ç":{"ha":833,"x_min":43,"x_max":787,"o":"m 635 787 q 663 813 648 804 q 696 822 678 822 q 746 801 726 822 q 765 730 765 780 l 765 612 q 746 540 765 562 q 696 519 726 519 q 651 534 668 519 q 626 593 634 550 q 607 637 621 621 q 529 686 579 667 q 429 704 479 704 q 315 677 367 704 q 222 589 262 650 q 182 444 182 528 l 182 353 q 255 186 182 253 q 458 119 328 119 q 589 140 535 119 q 655 188 620 152 q 689 216 677 210 q 717 222 701 222 q 766 201 745 222 q 787 152 787 180 q 758 91 787 123 q 652 16 717 43 q 458 -20 564 -20 q 236 31 335 -20 q 100 159 156 71 q 43 351 43 247 l 43 445 q 94 647 43 553 q 234 792 144 741 q 424 843 323 843 q 537 829 484 843 q 635 787 589 815 m 379 -144 l 379 -15 q 392 24 379 11 q 424 38 405 38 q 456 25 444 38 q 469 -7 469 12 l 469 -58 q 528 -95 507 -69 q 549 -155 549 -121 q 515 -229 549 -198 q 429 -260 481 -260 q 305 -225 359 -260 q 281 -183 281 -210 q 295 -152 281 -165 q 326 -138 308 -138 q 362 -152 338 -138 q 428 -170 395 -170 q 452 -165 444 -170 q 459 -157 459 -161 q 454 -150 459 -153 q 418 -144 442 -144 l 379 -144 z "},"É":{"ha":833,"x_min":20,"x_max":768,"o":"m 274 343 l 274 139 l 629 139 l 629 214 q 648 286 629 264 q 699 307 667 307 q 748 286 729 307 q 768 214 768 264 l 768 0 l 113 0 q 42 19 63 0 q 20 70 20 39 q 42 120 20 100 q 113 139 64 139 l 135 139 l 135 683 l 113 683 q 42 702 63 683 q 20 753 20 722 q 42 803 20 784 q 113 823 63 823 l 737 822 l 737 610 q 718 539 737 561 q 668 518 699 518 q 617 539 637 518 q 598 610 598 560 l 598 683 l 274 683 l 274 482 l 396 482 q 406 552 396 536 q 466 585 427 585 q 516 564 496 585 q 535 492 535 543 l 535 332 q 524 271 535 287 q 466 239 503 239 q 406 273 427 239 q 396 343 396 288 l 274 343 m 521 1054 l 368 930 q 330 911 345 911 q 297 924 311 911 q 284 956 284 937 q 311 1000 284 978 l 465 1124 q 503 1142 488 1142 q 535 1129 522 1142 q 549 1098 549 1116 q 521 1054 549 1076 z "},"Ñ":{"ha":833,"x_min":-11,"x_max":823,"o":"m 243 559 l 243 139 l 293 139 q 365 120 343 139 q 386 69 386 100 q 365 19 386 39 q 293 0 343 0 l 111 0 q 39 19 60 0 q 18 70 18 39 q 39 119 18 100 q 104 139 60 139 l 104 683 l 82 683 q 11 702 32 683 q -11 753 -11 722 q 11 803 -11 784 q 82 823 32 823 l 243 822 l 598 264 l 598 683 l 548 683 q 476 702 498 683 q 455 753 455 722 q 476 803 455 784 q 548 823 498 823 l 730 822 q 802 803 781 822 q 823 753 823 784 q 802 703 823 722 q 738 683 781 683 l 738 0 l 600 0 l 243 559 m 606 1045 q 638 1031 625 1045 q 652 999 652 1018 q 603 936 652 975 q 505 896 553 896 q 457 906 481 896 q 367 962 434 916 q 329 981 339 981 q 271 945 314 981 q 226 922 243 922 q 195 936 208 922 q 182 968 182 949 q 223 1026 182 993 q 326 1072 279 1072 q 367 1064 348 1072 q 444 1019 396 1052 q 506 986 491 986 q 557 1017 524 986 q 588 1041 579 1036 q 606 1045 596 1045 z "},"Ö":{"ha":833,"x_min":28,"x_max":807,"o":"m 807 411 q 689 103 807 226 q 417 -20 572 -20 q 166 82 278 -20 q 28 411 28 209 q 166 741 28 613 q 417 843 278 843 q 689 720 572 843 q 807 411 807 597 m 668 411 q 591 621 668 538 q 417 704 515 704 q 243 621 320 704 q 167 411 167 537 q 243 202 167 285 q 417 119 320 119 q 591 201 515 119 q 668 411 668 284 m 345 1015 q 324 962 345 983 q 272 941 302 941 q 220 962 241 941 q 198 1015 198 984 q 220 1066 198 1045 q 272 1088 241 1088 q 324 1066 302 1088 q 345 1015 345 1045 m 635 1015 q 614 962 635 983 q 562 941 592 941 q 510 962 531 941 q 488 1015 488 984 q 510 1066 488 1045 q 562 1088 531 1088 q 614 1066 592 1088 q 635 1015 635 1045 z "},"Ü":{"ha":833,"x_min":15,"x_max":821,"o":"m 734 683 l 734 289 q 642 70 734 160 q 419 -20 549 -20 q 298 2 355 -20 q 196 69 241 25 q 126 161 151 113 q 101 289 101 209 l 101 683 q 36 703 57 683 q 15 753 15 722 q 36 803 15 784 q 108 822 57 822 l 290 823 q 362 803 340 823 q 383 753 383 784 q 362 702 383 722 q 290 683 340 683 l 240 683 l 240 277 q 292 166 240 214 q 417 119 344 119 q 509 142 466 119 q 578 209 551 165 q 595 277 595 237 l 595 683 l 545 683 q 474 702 495 683 q 452 753 452 722 q 474 803 452 784 q 545 823 495 823 l 728 822 q 799 803 778 822 q 821 753 821 784 q 800 703 821 722 q 734 683 779 683 m 345 1015 q 324 962 345 983 q 272 941 302 941 q 220 962 241 941 q 198 1015 198 984 q 220 1066 198 1045 q 272 1088 241 1088 q 324 1066 302 1088 q 345 1015 345 1045 m 635 1015 q 614 962 635 983 q 562 941 592 941 q 510 962 531 941 q 488 1015 488 984 q 510 1066 488 1045 q 562 1088 531 1088 q 614 1066 592 1088 q 635 1015 635 1045 z "},"á":{"ha":833,"x_min":60,"x_max":798,"o":"m 542 0 l 542 33 q 427 -9 490 5 q 312 -23 363 -23 q 130 36 200 -23 q 60 168 60 96 q 150 330 60 255 q 396 405 239 405 q 542 391 459 405 l 542 425 q 515 475 542 456 q 413 495 488 495 q 253 471 351 495 q 196 462 216 462 q 149 482 168 462 q 130 533 130 502 q 136 564 130 551 q 155 584 143 576 q 206 603 168 592 q 311 626 258 617 q 408 634 365 634 q 609 578 538 634 q 681 425 681 522 l 681 139 l 705 139 q 776 120 755 139 q 798 69 798 100 q 776 19 798 39 q 705 0 755 0 l 542 0 m 542 249 q 388 265 458 265 q 242 224 303 265 q 204 170 204 197 q 222 138 204 151 q 315 116 256 116 q 429 136 366 116 q 542 189 492 155 l 542 249 m 522 838 l 369 713 q 330 695 346 695 q 298 708 311 695 q 285 740 285 721 q 312 783 285 762 l 465 907 q 504 926 488 926 q 536 913 523 926 q 549 882 549 900 q 522 838 549 859 z "},"à":{"ha":833,"x_min":60,"x_max":798,"o":"m 542 0 l 542 33 q 427 -9 490 5 q 312 -23 363 -23 q 130 36 200 -23 q 60 168 60 96 q 150 330 60 255 q 396 405 239 405 q 542 391 459 405 l 542 425 q 515 475 542 456 q 413 495 488 495 q 253 471 351 495 q 196 462 216 462 q 149 482 168 462 q 130 533 130 502 q 136 564 130 551 q 155 584 143 576 q 206 603 168 592 q 311 626 258 617 q 408 634 365 634 q 609 578 538 634 q 681 425 681 522 l 681 139 l 705 139 q 776 120 755 139 q 798 69 798 100 q 776 19 798 39 q 705 0 755 0 l 542 0 m 542 249 q 388 265 458 265 q 242 224 303 265 q 204 170 204 197 q 222 138 204 151 q 315 116 256 116 q 429 136 366 116 q 542 189 492 155 l 542 249 m 368 909 l 521 785 q 549 741 549 763 q 535 709 549 722 q 503 696 522 696 q 465 715 488 696 l 311 839 q 284 882 284 861 q 297 914 284 901 q 330 927 311 927 q 368 909 345 927 z "},"â":{"ha":833,"x_min":60,"x_max":798,"o":"m 542 0 l 542 33 q 427 -9 490 5 q 312 -23 363 -23 q 130 36 200 -23 q 60 168 60 96 q 150 330 60 255 q 396 405 239 405 q 542 391 459 405 l 542 425 q 515 475 542 456 q 413 495 488 495 q 253 471 351 495 q 196 462 216 462 q 149 482 168 462 q 130 533 130 502 q 136 564 130 551 q 155 584 143 576 q 206 603 168 592 q 311 626 258 617 q 408 634 365 634 q 609 578 538 634 q 681 425 681 522 l 681 139 l 705 139 q 776 120 755 139 q 798 69 798 100 q 776 19 798 39 q 705 0 755 0 l 542 0 m 542 249 q 388 265 458 265 q 242 224 303 265 q 204 170 204 197 q 222 138 204 151 q 315 116 256 116 q 429 136 366 116 q 542 189 492 155 l 542 249 m 421 800 l 283 707 q 246 691 260 691 q 214 705 228 691 q 200 738 200 720 q 231 783 200 762 l 421 911 l 613 783 q 644 739 644 762 q 630 705 644 720 q 597 691 616 691 q 561 707 583 691 l 421 800 z "},"ä":{"ha":833,"x_min":60,"x_max":798,"o":"m 542 0 l 542 33 q 427 -9 490 5 q 312 -23 363 -23 q 130 36 200 -23 q 60 168 60 96 q 150 330 60 255 q 396 405 239 405 q 542 391 459 405 l 542 425 q 515 475 542 456 q 413 495 488 495 q 253 471 351 495 q 196 462 216 462 q 149 482 168 462 q 130 533 130 502 q 136 564 130 551 q 155 584 143 576 q 206 603 168 592 q 311 626 258 617 q 408 634 365 634 q 609 578 538 634 q 681 425 681 522 l 681 139 l 705 139 q 776 120 755 139 q 798 69 798 100 q 776 19 798 39 q 705 0 755 0 l 542 0 m 542 249 q 388 265 458 265 q 242 224 303 265 q 204 170 204 197 q 222 138 204 151 q 315 116 256 116 q 429 136 366 116 q 542 189 492 155 l 542 249 m 345 798 q 324 746 345 767 q 272 724 302 724 q 220 746 241 724 q 198 798 198 768 q 220 850 198 829 q 272 871 241 871 q 324 850 302 871 q 345 798 345 829 m 635 798 q 614 746 635 767 q 562 724 592 724 q 510 746 531 724 q 488 798 488 768 q 510 850 488 829 q 562 871 531 871 q 614 850 592 871 q 635 798 635 829 z "},"ã":{"ha":833,"x_min":60,"x_max":798,"o":"m 542 0 l 542 33 q 427 -9 490 5 q 312 -23 363 -23 q 130 36 200 -23 q 60 168 60 96 q 150 330 60 255 q 396 405 239 405 q 542 391 459 405 l 542 425 q 515 475 542 456 q 413 495 488 495 q 253 471 351 495 q 196 462 216 462 q 149 482 168 462 q 130 533 130 502 q 136 564 130 551 q 155 584 143 576 q 206 603 168 592 q 311 626 258 617 q 408 634 365 634 q 609 578 538 634 q 681 425 681 522 l 681 139 l 705 139 q 776 120 755 139 q 798 69 798 100 q 776 19 798 39 q 705 0 755 0 l 542 0 m 542 249 q 388 265 458 265 q 242 224 303 265 q 204 170 204 197 q 222 138 204 151 q 315 116 256 116 q 429 136 366 116 q 542 189 492 155 l 542 249 m 606 829 q 638 815 625 829 q 652 783 652 802 q 603 719 652 759 q 505 680 553 680 q 457 689 481 680 q 367 746 434 699 q 329 765 339 765 q 271 729 314 765 q 226 706 243 706 q 195 719 208 706 q 182 751 182 732 q 223 810 182 777 q 326 855 279 855 q 367 848 348 855 q 444 803 396 836 q 506 770 491 770 q 557 800 524 770 q 588 824 579 820 q 606 829 596 829 z "},"å":{"ha":833,"x_min":60,"x_max":798,"o":"m 542 0 l 542 33 q 427 -9 490 5 q 312 -23 363 -23 q 130 36 200 -23 q 60 168 60 96 q 150 330 60 255 q 396 405 239 405 q 542 391 459 405 l 542 425 q 515 475 542 456 q 413 495 488 495 q 253 471 351 495 q 196 462 216 462 q 149 482 168 462 q 130 533 130 502 q 136 564 130 551 q 155 584 143 576 q 206 603 168 592 q 311 626 258 617 q 408 634 365 634 q 609 578 538 634 q 681 425 681 522 l 681 139 l 705 139 q 776 120 755 139 q 798 69 798 100 q 776 19 798 39 q 705 0 755 0 l 542 0 m 542 249 q 388 265 458 265 q 242 224 303 265 q 204 170 204 197 q 222 138 204 151 q 315 116 256 116 q 429 136 366 116 q 542 189 492 155 l 542 249 m 531 819 q 492 724 531 764 q 398 685 452 685 q 304 724 343 685 q 265 819 265 764 q 304 909 265 871 q 398 947 342 947 q 492 909 454 947 q 531 819 531 871 m 469 819 q 448 865 469 846 q 398 884 428 884 q 348 865 368 884 q 328 819 328 846 q 348 769 328 790 q 398 749 369 749 q 448 769 427 749 q 469 819 469 790 z "},"ç":{"ha":833,"x_min":77,"x_max":789,"o":"m 633 591 q 685 614 659 614 q 734 593 715 614 q 753 522 753 572 l 753 433 q 734 361 753 382 q 684 340 715 340 q 635 357 655 340 q 613 407 621 369 q 574 463 605 444 q 433 495 519 495 q 276 437 335 495 q 216 292 216 380 q 273 163 216 210 q 463 116 330 116 q 604 134 549 116 q 666 171 637 144 q 719 197 695 197 q 768 176 747 197 q 789 126 789 155 q 726 39 789 80 q 452 -23 632 -23 q 199 44 290 -23 q 77 291 77 134 q 176 537 77 439 q 435 634 275 634 q 542 623 492 634 q 633 591 591 612 m 379 -132 l 379 -3 q 392 36 379 22 q 424 50 405 50 q 456 36 444 50 q 469 4 469 23 l 469 -47 q 528 -84 507 -58 q 549 -144 549 -110 q 515 -218 549 -186 q 429 -249 481 -249 q 305 -214 359 -249 q 281 -172 281 -198 q 295 -140 281 -153 q 326 -127 308 -127 q 362 -140 338 -127 q 428 -159 395 -159 q 452 -153 444 -159 q 459 -145 459 -149 q 454 -138 459 -141 q 418 -132 442 -132 l 379 -132 z "},"é":{"ha":833,"x_min":45,"x_max":766,"o":"m 766 237 l 195 237 q 272 150 217 183 q 422 117 328 117 q 627 150 499 117 q 701 163 680 163 q 747 144 728 163 q 766 94 766 124 q 746 48 766 67 q 614 0 719 23 q 412 -22 509 -22 q 145 72 245 -22 q 45 304 45 166 q 153 542 45 450 q 402 634 261 634 q 558 604 487 634 q 663 540 629 574 q 744 416 712 490 q 766 296 766 364 l 766 237 m 612 376 q 528 466 580 436 q 406 495 477 495 q 283 466 335 495 q 199 376 232 436 l 612 376 m 513 838 l 361 713 q 322 695 338 695 q 290 708 303 695 q 277 740 277 721 q 304 783 277 762 l 457 907 q 496 926 480 926 q 528 913 515 926 q 541 882 541 900 q 513 838 541 859 z "},"è":{"ha":833,"x_min":45,"x_max":766,"o":"m 766 237 l 195 237 q 272 150 217 183 q 422 117 328 117 q 627 150 499 117 q 701 163 680 163 q 747 144 728 163 q 766 94 766 124 q 746 48 766 67 q 614 0 719 23 q 412 -22 509 -22 q 145 72 245 -22 q 45 304 45 166 q 153 542 45 450 q 402 634 261 634 q 558 604 487 634 q 663 540 629 574 q 744 416 712 490 q 766 296 766 364 l 766 237 m 612 376 q 528 466 580 436 q 406 495 477 495 q 283 466 335 495 q 199 376 232 436 l 612 376 m 328 909 l 480 785 q 508 741 508 763 q 495 709 508 722 q 463 696 481 696 q 424 715 447 696 l 271 839 q 243 882 243 861 q 257 914 243 901 q 289 927 270 927 q 328 909 304 927 z "},"ê":{"ha":833,"x_min":45,"x_max":766,"o":"m 766 237 l 195 237 q 272 150 217 183 q 422 117 328 117 q 627 150 499 117 q 701 163 680 163 q 747 144 728 163 q 766 94 766 124 q 746 48 766 67 q 614 0 719 23 q 412 -22 509 -22 q 145 72 245 -22 q 45 304 45 166 q 153 542 45 450 q 402 634 261 634 q 558 604 487 634 q 663 540 629 574 q 744 416 712 490 q 766 296 766 364 l 766 237 m 612 376 q 528 466 580 436 q 406 495 477 495 q 283 466 335 495 q 199 376 232 436 l 612 376 m 416 800 l 277 707 q 241 691 255 691 q 209 705 222 691 q 195 738 195 720 q 226 783 195 762 l 416 911 l 608 783 q 638 739 638 762 q 625 705 638 720 q 591 691 611 691 q 555 707 578 691 l 416 800 z "},"ë":{"ha":833,"x_min":45,"x_max":766,"o":"m 766 237 l 195 237 q 272 150 217 183 q 422 117 328 117 q 627 150 499 117 q 701 163 680 163 q 747 144 728 163 q 766 94 766 124 q 746 48 766 67 q 614 0 719 23 q 412 -22 509 -22 q 145 72 245 -22 q 45 304 45 166 q 153 542 45 450 q 402 634 261 634 q 558 604 487 634 q 663 540 629 574 q 744 416 712 490 q 766 296 766 364 l 766 237 m 612 376 q 528 466 580 436 q 406 495 477 495 q 283 466 335 495 q 199 376 232 436 l 612 376 m 345 798 q 324 746 345 767 q 272 724 302 724 q 220 746 241 724 q 198 798 198 768 q 220 850 198 829 q 272 871 241 871 q 324 850 302 871 q 345 798 345 829 m 635 798 q 614 746 635 767 q 562 724 592 724 q 510 746 531 724 q 488 798 488 768 q 510 850 488 829 q 562 871 531 871 q 614 850 592 871 q 635 798 635 829 z "},"í":{"ha":833,"x_min":87,"x_max":745,"o":"m 486 616 l 486 139 l 652 139 q 724 120 703 139 q 745 69 745 100 q 724 19 745 39 q 652 0 703 0 l 180 0 q 108 19 130 0 q 87 70 87 39 q 108 120 87 100 q 180 139 130 139 l 347 139 l 347 477 l 235 477 q 163 496 185 477 q 142 547 142 515 q 163 596 142 577 q 235 616 184 616 l 486 616 m 458 838 l 306 713 q 267 695 283 695 q 235 708 248 695 q 222 740 222 721 q 249 783 222 762 l 402 907 q 441 926 425 926 q 473 913 460 926 q 486 882 486 900 q 458 838 486 859 z "},"ì":{"ha":833,"x_min":87,"x_max":745,"o":"m 486 616 l 486 139 l 652 139 q 724 120 703 139 q 745 69 745 100 q 724 19 745 39 q 652 0 703 0 l 180 0 q 108 19 130 0 q 87 70 87 39 q 108 120 87 100 q 180 139 130 139 l 347 139 l 347 477 l 235 477 q 163 496 185 477 q 142 547 142 515 q 163 596 142 577 q 235 616 184 616 l 486 616 m 311 909 l 464 785 q 492 741 492 763 q 478 709 492 722 q 446 696 465 696 q 408 715 431 696 l 254 839 q 227 882 227 861 q 240 914 227 901 q 273 927 254 927 q 311 909 288 927 z "},"î":{"ha":833,"x_min":87,"x_max":745,"o":"m 486 616 l 486 139 l 652 139 q 724 120 703 139 q 745 69 745 100 q 724 19 745 39 q 652 0 703 0 l 180 0 q 108 19 130 0 q 87 70 87 39 q 108 120 87 100 q 180 139 130 139 l 347 139 l 347 477 l 235 477 q 163 496 185 477 q 142 547 142 515 q 163 596 142 577 q 235 616 184 616 l 486 616 m 344 800 l 205 707 q 169 691 183 691 q 137 705 151 691 q 123 738 123 720 q 154 783 123 762 l 344 911 l 536 783 q 566 739 566 762 q 553 705 566 720 q 519 691 539 691 q 484 707 506 691 l 344 800 z "},"ï":{"ha":833,"x_min":87,"x_max":745,"o":"m 486 616 l 486 139 l 652 139 q 724 120 703 139 q 745 69 745 100 q 724 19 745 39 q 652 0 703 0 l 180 0 q 108 19 130 0 q 87 70 87 39 q 108 120 87 100 q 180 139 130 139 l 347 139 l 347 477 l 235 477 q 163 496 185 477 q 142 547 142 515 q 163 596 142 577 q 235 616 184 616 l 486 616 m 288 798 q 266 746 288 767 q 214 724 245 724 q 162 746 184 724 q 140 798 140 768 q 162 850 140 829 q 214 871 184 871 q 266 850 245 871 q 288 798 288 829 m 578 798 q 556 746 578 767 q 504 724 534 724 q 452 746 473 724 q 431 798 431 768 q 452 850 431 829 q 504 871 473 871 q 556 850 534 871 q 578 798 578 829 z "},"ñ":{"ha":833,"x_min":35,"x_max":798,"o":"m 276 616 l 276 569 q 360 618 314 602 q 459 634 406 634 q 654 557 583 634 q 711 397 711 496 l 711 139 q 777 120 755 139 q 798 69 798 100 q 776 19 798 39 q 705 0 755 0 l 579 0 q 508 19 529 0 q 486 70 486 39 q 507 120 486 100 q 572 139 528 139 l 572 401 q 548 468 572 447 q 452 495 516 495 q 368 476 404 495 q 276 397 332 458 l 276 139 q 345 129 330 139 q 378 69 378 109 q 357 19 378 39 q 286 0 336 0 l 127 0 q 56 19 77 0 q 35 70 35 39 q 67 129 35 108 q 137 139 83 139 l 137 477 q 72 496 93 477 q 51 547 51 516 q 72 596 51 577 q 144 616 94 616 l 276 616 m 578 829 q 611 815 597 829 q 625 783 625 802 q 575 719 625 759 q 477 680 526 680 q 430 689 454 680 q 340 746 407 699 q 302 765 312 765 q 243 729 287 765 q 199 706 216 706 q 168 719 181 706 q 155 751 155 732 q 196 810 155 777 q 299 855 252 855 q 340 848 321 855 q 416 803 369 836 q 479 770 464 770 q 530 800 496 770 q 561 824 552 820 q 578 829 569 829 z "},"ó":{"ha":833,"x_min":58,"x_max":778,"o":"m 778 296 q 733 141 778 216 q 601 22 689 66 q 418 -22 513 -22 q 236 21 323 -22 q 104 140 149 65 q 58 298 58 216 q 104 461 58 381 q 237 588 151 542 q 418 634 323 634 q 601 587 513 634 q 733 460 688 540 q 778 296 778 380 m 639 296 q 591 419 639 363 q 418 495 525 495 q 260 435 323 495 q 197 295 197 374 q 261 173 197 230 q 418 117 325 117 q 575 173 511 117 q 639 296 639 230 m 522 838 l 369 713 q 330 695 346 695 q 298 708 311 695 q 285 740 285 721 q 312 783 285 762 l 465 907 q 504 926 488 926 q 536 913 523 926 q 549 882 549 900 q 522 838 549 859 z "},"ò":{"ha":833,"x_min":58,"x_max":778,"o":"m 778 296 q 733 141 778 216 q 601 22 689 66 q 418 -22 513 -22 q 236 21 323 -22 q 104 140 149 65 q 58 298 58 216 q 104 461 58 381 q 237 588 151 542 q 418 634 323 634 q 601 587 513 634 q 733 460 688 540 q 778 296 778 380 m 639 296 q 591 419 639 363 q 418 495 525 495 q 260 435 323 495 q 197 295 197 374 q 261 173 197 230 q 418 117 325 117 q 575 173 511 117 q 639 296 639 230 m 401 909 l 553 785 q 581 741 581 763 q 568 709 581 722 q 536 696 555 696 q 497 715 520 696 l 344 839 q 317 882 317 861 q 330 914 317 901 q 362 927 343 927 q 401 909 378 927 z "},"ô":{"ha":833,"x_min":58,"x_max":778,"o":"m 778 296 q 733 141 778 216 q 601 22 689 66 q 418 -22 513 -22 q 236 21 323 -22 q 104 140 149 65 q 58 298 58 216 q 104 461 58 381 q 237 588 151 542 q 418 634 323 634 q 601 587 513 634 q 733 460 688 540 q 778 296 778 380 m 639 296 q 591 419 639 363 q 418 495 525 495 q 260 435 323 495 q 197 295 197 374 q 261 173 197 230 q 418 117 325 117 q 575 173 511 117 q 639 296 639 230 m 416 800 l 277 707 q 241 691 255 691 q 209 705 222 691 q 195 738 195 720 q 226 783 195 762 l 416 911 l 608 783 q 638 739 638 762 q 625 705 638 720 q 591 691 611 691 q 555 707 578 691 l 416 800 z "},"ö":{"ha":833,"x_min":58,"x_max":778,"o":"m 778 296 q 733 141 778 216 q 601 22 689 66 q 418 -22 513 -22 q 236 21 323 -22 q 104 140 149 65 q 58 298 58 216 q 104 461 58 381 q 237 588 151 542 q 418 634 323 634 q 601 587 513 634 q 733 460 688 540 q 778 296 778 380 m 639 296 q 591 419 639 363 q 418 495 525 495 q 260 435 323 495 q 197 295 197 374 q 261 173 197 230 q 418 117 325 117 q 575 173 511 117 q 639 296 639 230 m 345 798 q 324 746 345 767 q 272 724 302 724 q 220 746 241 724 q 198 798 198 768 q 220 850 198 829 q 272 871 241 871 q 324 850 302 871 q 345 798 345 829 m 635 798 q 614 746 635 767 q 562 724 592 724 q 510 746 531 724 q 488 798 488 768 q 510 850 488 829 q 562 871 531 871 q 614 850 592 871 q 635 798 635 829 z "},"õ":{"ha":833,"x_min":58,"x_max":778,"o":"m 778 296 q 733 141 778 216 q 601 22 689 66 q 418 -22 513 -22 q 236 21 323 -22 q 104 140 149 65 q 58 298 58 216 q 104 461 58 381 q 237 588 151 542 q 418 634 323 634 q 601 587 513 634 q 733 460 688 540 q 778 296 778 380 m 639 296 q 591 419 639 363 q 418 495 525 495 q 260 435 323 495 q 197 295 197 374 q 261 173 197 230 q 418 117 325 117 q 575 173 511 117 q 639 296 639 230 m 607 829 q 640 815 626 829 q 653 783 653 802 q 604 719 653 759 q 506 680 555 680 q 459 689 482 680 q 368 746 435 699 q 330 765 340 765 q 272 729 315 765 q 227 706 245 706 q 196 719 210 706 q 183 751 183 732 q 224 810 183 777 q 328 855 280 855 q 368 848 349 855 q 445 803 397 836 q 507 770 492 770 q 559 800 525 770 q 589 824 581 820 q 607 829 597 829 z "},"ú":{"ha":833,"x_min":20,"x_max":798,"o":"m 712 616 l 712 139 q 777 119 756 139 q 798 69 798 100 q 777 19 798 39 q 705 0 755 0 l 573 0 l 573 32 q 459 -9 513 5 q 356 -22 405 -22 q 237 6 288 -22 q 158 86 187 35 q 137 178 137 123 l 137 477 l 113 477 q 42 496 63 477 q 20 547 20 515 q 42 596 20 577 q 113 616 63 616 l 276 616 l 276 202 q 297 137 276 158 q 363 117 319 117 q 453 133 405 117 q 573 193 502 150 l 573 477 l 523 477 q 451 496 473 477 q 430 547 430 515 q 451 596 430 577 q 523 616 473 616 l 712 616 m 522 838 l 370 713 q 331 695 347 695 q 299 708 312 695 q 286 740 286 721 q 313 783 286 762 l 466 907 q 505 926 489 926 q 537 913 524 926 q 550 882 550 900 q 522 838 550 859 z "},"ù":{"ha":833,"x_min":20,"x_max":798,"o":"m 712 616 l 712 139 q 777 119 756 139 q 798 69 798 100 q 777 19 798 39 q 705 0 755 0 l 573 0 l 573 32 q 459 -9 513 5 q 356 -22 405 -22 q 237 6 288 -22 q 158 86 187 35 q 137 178 137 123 l 137 477 l 113 477 q 42 496 63 477 q 20 547 20 515 q 42 596 20 577 q 113 616 63 616 l 276 616 l 276 202 q 297 137 276 158 q 363 117 319 117 q 453 133 405 117 q 573 193 502 150 l 573 477 l 523 477 q 451 496 473 477 q 430 547 430 515 q 451 596 430 577 q 523 616 473 616 l 712 616 m 319 909 l 472 785 q 500 741 500 763 q 487 709 500 722 q 454 696 473 696 q 416 715 439 696 l 262 839 q 235 882 235 861 q 249 914 235 901 q 281 927 262 927 q 319 909 296 927 z "},"û":{"ha":833,"x_min":20,"x_max":798,"o":"m 712 616 l 712 139 q 777 119 756 139 q 798 69 798 100 q 777 19 798 39 q 705 0 755 0 l 573 0 l 573 32 q 459 -9 513 5 q 356 -22 405 -22 q 237 6 288 -22 q 158 86 187 35 q 137 178 137 123 l 137 477 l 113 477 q 42 496 63 477 q 20 547 20 515 q 42 596 20 577 q 113 616 63 616 l 276 616 l 276 202 q 297 137 276 158 q 363 117 319 117 q 453 133 405 117 q 573 193 502 150 l 573 477 l 523 477 q 451 496 473 477 q 430 547 430 515 q 451 596 430 577 q 523 616 473 616 l 712 616 m 386 800 l 248 707 q 211 691 225 691 q 179 705 193 691 q 165 738 165 720 q 196 783 165 762 l 386 911 l 578 783 q 608 739 608 762 q 595 705 608 720 q 562 691 581 691 q 526 707 548 691 l 386 800 z "},"ü":{"ha":833,"x_min":20,"x_max":798,"o":"m 712 616 l 712 139 q 777 119 756 139 q 798 69 798 100 q 777 19 798 39 q 705 0 755 0 l 573 0 l 573 32 q 459 -9 513 5 q 356 -22 405 -22 q 237 6 288 -22 q 158 86 187 35 q 137 178 137 123 l 137 477 l 113 477 q 42 496 63 477 q 20 547 20 515 q 42 596 20 577 q 113 616 63 616 l 276 616 l 276 202 q 297 137 276 158 q 363 117 319 117 q 453 133 405 117 q 573 193 502 150 l 573 477 l 523 477 q 451 496 473 477 q 430 547 430 515 q 451 596 430 577 q 523 616 473 616 l 712 616 m 321 798 q 299 746 321 767 q 248 724 278 724 q 195 746 217 724 q 174 798 174 768 q 195 850 174 829 q 248 871 217 871 q 299 850 278 871 q 321 798 321 829 m 611 798 q 589 746 611 767 q 537 724 568 724 q 485 746 507 724 q 464 798 464 768 q 485 850 464 829 q 537 871 507 871 q 589 850 568 871 q 611 798 611 829 z "},"†":{"ha":833,"x_min":128,"x_max":705,"o":"m 486 477 l 486 -38 q 466 -110 486 -88 q 416 -131 447 -131 q 366 -110 385 -131 q 347 -38 347 -88 l 347 477 l 221 477 q 150 496 171 477 q 128 547 128 515 q 150 596 128 577 q 221 616 171 616 l 347 616 l 347 785 q 366 856 347 835 q 416 878 385 878 q 466 856 447 878 q 486 785 486 835 l 486 616 l 612 616 q 683 596 662 616 q 705 546 705 577 q 683 496 705 515 q 612 477 662 477 l 486 477 z "},"°":{"ha":833,"x_min":200,"x_max":633,"o":"m 200 795 q 263 948 200 885 q 416 1011 327 1011 q 569 948 506 1011 q 633 795 633 884 q 569 642 633 705 q 416 578 506 578 q 263 642 327 578 q 200 795 200 705 m 313 795 q 343 722 313 752 q 416 691 374 691 q 490 722 459 691 q 520 795 520 752 q 490 868 520 838 q 416 899 459 899 q 343 868 374 899 q 313 795 313 838 z "},"¢":{"ha":833,"x_min":115,"x_max":696,"o":"m 487 139 l 487 50 q 468 -22 487 -1 q 417 -43 448 -43 q 367 -22 387 -43 q 348 50 348 -1 l 348 145 q 178 251 241 171 q 115 439 115 332 q 180 623 115 542 q 348 729 245 704 l 348 859 q 367 930 348 909 q 418 951 387 951 q 468 930 448 951 q 487 859 487 909 l 487 743 q 591 709 550 733 q 619 714 608 714 q 671 693 652 714 q 690 622 690 672 l 690 563 q 671 492 690 513 q 621 471 652 471 q 572 490 590 471 q 551 542 561 500 q 524 585 544 572 q 442 604 496 604 q 307 555 359 604 q 254 437 254 506 q 304 323 254 370 q 429 275 353 275 q 578 327 506 275 q 626 344 602 344 q 675 322 654 344 q 696 273 696 301 q 660 208 696 239 q 487 139 599 158 z "},"£":{"ha":833,"x_min":42,"x_max":767,"o":"m 374 343 q 375 304 375 318 q 367 221 375 262 q 342 139 359 180 l 628 139 q 649 188 631 171 q 695 204 667 204 q 747 184 726 204 q 767 127 767 163 q 748 55 767 83 q 690 11 729 26 q 615 0 665 0 l 166 0 q 95 19 117 0 q 73 71 73 39 q 89 114 73 97 q 144 140 104 131 q 203 178 185 149 q 234 316 234 228 q 233 343 234 326 l 135 343 q 63 362 85 343 q 42 413 42 382 q 63 463 42 444 q 135 482 85 483 l 199 482 q 174 610 174 552 q 242 777 174 711 q 417 842 310 842 q 585 786 513 842 q 640 699 640 743 q 620 647 640 667 q 571 627 600 627 q 541 633 554 627 q 512 661 532 638 q 470 693 491 684 q 416 703 449 703 q 341 678 370 703 q 313 618 313 652 q 317 576 313 598 q 342 482 319 564 l 439 482 q 510 463 489 482 q 532 413 532 444 q 510 362 532 382 q 439 343 489 343 l 374 343 z "},"§":{"ha":833,"x_min":67,"x_max":769,"o":"m 607 779 l 401 779 q 327 751 356 779 q 298 692 298 724 q 321 641 298 668 q 450 549 353 604 l 572 481 q 727 365 685 418 q 769 258 769 312 q 735 173 769 211 q 633 121 701 136 q 640 71 640 92 q 624 -5 640 29 q 578 -66 607 -40 q 525 -103 549 -93 q 434 -118 490 -118 l 127 -118 l 127 50 q 141 104 127 87 q 178 120 156 120 q 215 104 201 120 q 229 50 229 87 l 229 -16 l 437 -16 q 507 11 479 -16 q 535 69 535 38 q 523 107 535 88 q 471 158 511 127 q 387 214 431 189 l 245 294 q 112 401 157 345 q 67 505 67 457 q 100 588 67 551 q 203 642 133 625 q 195 682 195 663 q 224 786 195 736 q 309 863 253 835 q 410 884 348 884 l 709 884 l 709 715 q 694 661 709 677 q 658 644 680 644 q 621 661 635 644 q 607 715 607 677 l 607 779 m 274 543 q 186 526 214 543 q 169 504 169 515 q 309 380 169 460 l 446 302 q 559 223 516 262 q 650 237 627 223 q 668 262 668 248 q 513 393 668 304 l 380 469 q 274 543 324 501 z "},"•":{"ha":833,"x_min":210,"x_max":627,"o":"m 627 430 q 565 281 627 342 q 418 219 504 219 q 271 281 332 219 q 210 430 210 342 q 271 579 210 517 q 418 641 332 641 q 566 579 505 641 q 627 430 627 518 z "},"¶":{"ha":833,"x_min":85,"x_max":755,"o":"m 638 775 l 638 -19 l 685 -19 q 739 -33 722 -19 q 755 -70 755 -47 q 739 -106 755 -92 q 685 -121 723 -121 l 562 -121 q 530 -112 543 -121 q 509 -77 517 -102 q 486 -113 497 -104 q 452 -121 474 -121 l 272 -121 q 218 -106 234 -121 q 201 -70 201 -92 q 218 -33 201 -47 q 272 -18 234 -18 l 376 -19 l 376 353 q 216 399 284 362 q 106 501 147 437 q 85 586 85 536 l 85 646 q 124 755 85 703 q 225 834 164 808 q 422 878 324 877 l 682 878 q 736 863 720 878 q 753 826 753 848 q 736 789 753 804 q 682 775 720 775 l 638 775 m 536 775 l 478 775 l 478 -19 q 508 -55 500 -29 q 536 -19 517 -29 l 536 775 m 376 768 q 268 717 302 753 q 233 643 233 682 l 233 586 q 267 512 233 548 q 376 460 301 476 l 376 768 z "},"ß":{"ha":833,"x_min":17,"x_max":738,"o":"m 134 139 l 134 675 q 200 819 134 758 q 373 880 266 880 q 551 811 480 880 q 621 644 621 743 q 608 570 621 604 q 572 514 600 547 q 696 392 655 465 q 738 232 738 318 q 675 45 738 113 q 507 -22 612 -22 q 372 22 420 -22 q 323 136 323 67 q 343 197 323 176 q 394 218 363 218 q 437 205 418 218 q 458 166 450 195 q 478 127 466 137 q 511 117 490 117 q 575 144 551 117 q 599 229 599 171 q 524 380 599 321 q 385 429 475 418 q 326 452 344 433 q 309 498 309 470 q 327 545 309 526 q 387 568 345 564 q 450 589 430 573 q 482 649 482 612 q 453 713 482 686 q 375 741 425 741 q 293 715 323 741 q 273 665 273 699 l 273 139 q 315 116 303 134 q 327 71 327 98 q 309 19 327 39 q 241 0 291 0 l 110 0 q 38 19 60 0 q 17 70 17 39 q 39 120 17 100 q 110 139 60 139 l 134 139 z "},"®":{"ha":833,"x_min":-4,"x_max":838,"o":"m 838 401 q 783 193 838 292 q 628 37 729 94 q 417 -20 527 -20 q 208 36 307 -20 q 52 191 108 92 q -4 401 -4 291 q 52 610 -4 511 q 207 766 108 710 q 417 822 307 822 q 628 765 528 822 q 783 609 729 708 q 838 401 838 509 m 756 401 q 713 567 756 488 q 588 693 669 647 q 418 739 507 739 q 178 640 277 739 q 79 401 79 541 q 178 162 79 261 q 418 63 277 63 q 588 109 507 63 q 713 235 669 155 q 756 401 756 315 m 334 347 l 334 252 l 361 252 q 400 241 389 252 q 412 214 412 231 q 400 187 412 197 q 361 176 389 176 l 247 176 q 208 187 220 176 q 197 214 197 197 q 211 243 197 232 q 258 252 220 252 l 258 547 q 210 555 220 547 q 197 585 197 567 q 208 612 197 602 q 247 623 220 623 l 418 623 q 541 583 497 623 q 585 486 585 543 q 565 422 585 451 q 503 371 544 393 q 600 252 549 332 q 642 241 631 252 q 654 214 654 231 q 642 187 654 197 q 604 176 631 176 l 561 176 q 409 347 468 319 l 334 347 m 334 422 l 393 422 q 487 450 448 422 q 510 489 510 466 q 487 529 510 511 q 420 547 465 547 l 334 547 l 334 422 z "},"©":{"ha":833,"x_min":-4,"x_max":838,"o":"m 838 401 q 783 193 838 292 q 628 37 729 94 q 417 -20 527 -20 q 208 36 307 -20 q 52 191 108 92 q -4 401 -4 291 q 52 610 -4 511 q 207 766 108 710 q 417 822 307 822 q 628 765 528 822 q 783 609 729 708 q 838 401 838 509 m 756 401 q 713 567 756 488 q 588 693 669 647 q 418 739 507 739 q 178 640 277 739 q 79 401 79 541 q 178 162 79 261 q 418 63 277 63 q 588 109 507 63 q 713 235 669 155 q 756 401 756 315 m 527 601 q 542 616 534 611 q 559 621 550 621 q 587 609 576 621 q 597 570 597 597 l 597 506 q 587 467 597 479 q 559 456 576 456 q 535 464 545 456 q 522 495 526 473 q 495 533 518 518 q 415 556 460 556 q 319 515 357 556 q 281 415 281 475 l 281 366 q 320 275 281 311 q 431 239 360 239 q 502 250 473 239 q 537 276 519 256 q 571 295 556 295 q 597 283 586 295 q 609 256 609 272 q 568 201 609 230 q 431 163 515 163 q 267 222 328 163 q 205 364 205 281 l 205 415 q 266 570 205 508 q 412 631 326 631 q 473 624 444 631 q 527 601 502 616 z "},"™":{"ha":833,"x_min":-58,"x_max":836,"o":"m 466 743 l 466 494 l 494 494 q 532 484 522 494 q 545 452 545 471 q 532 420 545 433 q 494 411 522 411 l 392 411 q 353 422 365 411 q 340 452 340 433 q 352 483 340 471 q 389 494 364 494 l 389 821 q 358 834 368 823 q 347 863 347 845 q 361 895 347 882 q 399 904 372 904 l 484 904 l 589 652 l 692 904 l 778 904 q 816 895 805 904 q 829 863 829 882 q 819 834 829 845 q 788 821 808 823 l 788 494 q 824 483 812 494 q 836 452 836 471 q 823 420 836 433 q 785 411 812 411 l 683 411 q 643 422 655 411 q 631 452 631 433 q 645 484 631 471 q 683 494 656 494 l 711 494 l 711 743 l 623 528 l 555 528 l 466 743 m 180 821 l 180 494 l 233 494 q 272 483 260 494 q 284 452 284 471 q 271 420 284 433 q 233 411 260 411 l 52 411 q 11 420 22 411 q 0 450 0 430 q 12 483 0 472 q 52 494 23 494 l 103 494 l 103 821 l 20 821 l 20 741 q 9 698 20 711 q -19 686 -2 686 q -47 698 -36 686 q -58 741 -58 711 l -58 904 l 342 904 l 342 741 q 332 698 342 711 q 304 686 321 686 q 276 698 287 686 q 265 741 265 711 l 265 821 l 180 821 z "},"´":{"ha":833,"x_min":285,"x_max":549,"o":"m 522 838 l 369 713 q 330 695 346 695 q 298 708 311 695 q 285 740 285 721 q 312 783 285 762 l 465 907 q 504 926 488 926 q 536 913 523 926 q 549 882 549 900 q 522 838 549 859 z "},"¨":{"ha":833,"x_min":198,"x_max":635,"o":"m 345 798 q 324 746 345 767 q 272 724 302 724 q 220 746 241 724 q 198 798 198 768 q 220 850 198 829 q 272 871 241 871 q 324 850 302 871 q 345 798 345 829 m 635 798 q 614 746 635 767 q 562 724 592 724 q 510 746 531 724 q 488 798 488 768 q 510 850 488 829 q 562 871 531 871 q 614 850 592 871 q 635 798 635 829 z "},"≠":{"ha":833,"x_min":28,"x_max":808,"o":"m 522 457 l 466 334 l 715 334 q 786 315 765 334 q 808 264 808 296 q 786 214 808 233 q 715 195 765 195 l 402 195 l 298 -32 q 266 -80 282 -68 q 226 -93 250 -93 q 176 -73 197 -93 q 155 -26 155 -52 q 172 27 155 -9 l 249 195 l 121 195 q 49 214 71 195 q 28 264 28 233 q 49 315 28 296 q 121 334 71 334 l 313 334 l 369 457 l 121 457 q 49 476 71 457 q 28 527 28 496 q 49 577 28 557 q 121 596 71 596 l 433 596 l 537 823 q 567 869 553 859 q 610 884 585 884 q 659 864 638 884 q 679 818 679 844 q 663 765 679 800 l 585 596 l 715 596 q 786 577 765 596 q 808 526 808 557 q 786 476 808 496 q 715 457 765 457 l 522 457 z "},"Æ":{"ha":833,"x_min":-29,"x_max":865,"o":"m 516 342 l 516 139 l 726 139 l 726 172 q 745 244 726 222 q 795 265 764 265 q 845 244 826 265 q 865 172 865 222 l 865 0 l 361 0 q 301 9 318 0 q 272 43 285 18 q 243 9 260 18 q 184 0 227 0 l 80 0 q 5 9 20 0 q -29 70 -29 31 q 4 129 -29 108 q 74 139 20 140 l 237 683 l 216 683 q 145 702 166 683 q 123 753 123 722 q 145 803 123 784 q 216 823 166 823 l 836 822 l 836 591 q 817 519 836 541 q 766 498 798 498 q 716 519 736 498 q 697 591 697 541 l 697 683 l 516 683 l 516 481 l 545 481 q 566 541 547 521 q 614 560 585 560 q 665 539 646 560 q 684 467 684 517 l 684 357 q 665 286 684 307 q 614 265 646 265 q 565 286 585 265 q 545 342 545 306 l 516 342 m 377 364 l 377 713 l 361 713 l 260 364 l 377 364 m 377 248 l 225 248 l 194 139 q 244 132 229 140 q 273 101 260 124 q 301 130 284 121 q 347 139 317 139 l 377 139 l 377 248 z "},"Ø":{"ha":833,"x_min":15,"x_max":821,"o":"m 227 36 l 155 -55 q 120 -91 134 -83 q 87 -99 106 -99 q 36 -79 57 -99 q 15 -29 15 -59 q 45 32 15 -6 l 121 130 q 28 411 28 251 q 168 741 28 614 q 417 843 279 843 q 625 775 530 843 l 682 847 q 717 883 703 875 q 751 892 731 892 q 800 871 779 892 q 821 820 821 850 q 792 760 821 798 l 726 675 q 785 556 764 627 q 807 410 807 486 q 673 85 807 212 q 418 -20 560 -20 q 227 36 317 -20 m 540 665 q 418 704 481 704 q 244 621 320 704 q 168 412 168 538 q 212 245 168 318 l 540 665 m 313 146 q 418 119 366 119 q 591 202 515 119 q 668 410 668 285 q 635 558 668 490 l 313 146 z "},"∞":{"ha":833,"x_min":62,"x_max":772,"o":"m 417 479 q 607 586 503 586 q 727 541 681 586 q 772 422 772 496 q 728 303 772 349 q 613 258 683 258 q 522 281 566 258 q 417 366 477 304 q 324 284 370 311 q 222 258 277 258 q 107 304 153 258 q 62 420 62 349 q 109 539 62 492 q 227 585 156 585 q 417 479 323 585 m 467 422 l 510 380 q 618 336 554 336 q 675 359 652 336 q 697 422 697 383 q 673 486 697 461 q 610 510 648 510 q 467 422 535 510 m 368 422 q 287 492 317 475 q 222 509 256 509 q 159 486 183 509 q 136 422 136 462 q 159 358 136 382 q 218 335 182 335 q 290 355 254 335 q 368 422 325 375 z "},"±":{"ha":833,"x_min":56,"x_max":778,"o":"m 486 515 l 486 283 q 467 211 486 233 q 417 190 448 190 q 367 211 386 190 q 347 283 347 233 l 347 515 l 149 515 q 77 535 98 515 q 56 585 56 554 q 77 635 56 616 q 149 654 98 654 l 347 654 l 347 886 q 367 957 347 936 q 417 979 386 979 q 468 958 448 979 q 487 886 487 937 l 486 654 l 685 654 q 756 635 735 654 q 778 585 778 616 q 756 535 778 554 q 685 515 735 515 l 486 515 m 644 0 l 189 0 q 104 3 118 0 q 70 27 84 9 q 56 70 56 46 q 70 112 56 93 q 105 136 84 130 q 189 139 119 139 l 644 139 q 729 136 715 139 q 764 112 749 130 q 778 70 778 93 q 764 27 778 46 q 728 3 749 9 q 644 0 715 0 z "},"≤":{"ha":833,"x_min":-18,"x_max":778,"o":"m 271 642 l 722 392 q 767 358 755 373 q 778 320 778 343 q 757 269 778 290 q 708 248 736 248 q 653 269 690 248 l -18 642 l 653 1015 q 707 1034 690 1034 q 757 1013 736 1034 q 778 963 778 992 q 767 925 778 940 q 722 891 755 910 l 271 642 m 632 56 l 136 56 q 52 59 65 56 q 17 83 31 64 q 3 125 3 102 q 17 167 3 149 q 52 191 31 186 q 136 195 65 195 l 632 195 q 717 191 703 195 q 751 167 737 186 q 766 125 766 149 q 751 83 766 102 q 716 59 737 64 q 632 56 703 56 z "},"≥":{"ha":833,"x_min":57,"x_max":852,"o":"m 564 642 l 113 891 q 68 925 79 910 q 57 963 57 940 q 78 1013 57 992 q 127 1034 99 1034 q 182 1015 145 1034 l 852 642 l 182 269 q 127 248 145 248 q 78 269 99 248 q 57 320 57 290 q 68 358 57 343 q 113 392 79 373 l 564 642 m 707 56 l 212 56 q 127 59 140 56 q 92 83 106 64 q 77 125 77 102 q 92 167 77 149 q 127 191 106 186 q 212 195 140 195 l 707 195 q 792 191 778 195 q 826 167 812 186 q 840 125 840 149 q 826 83 840 102 q 791 59 812 64 q 707 56 778 56 z "},"¥":{"ha":833,"x_min":29,"x_max":807,"o":"m 419 490 l 550 680 q 507 706 522 688 q 493 749 493 724 q 514 799 493 780 q 586 823 535 818 l 714 823 q 786 799 764 818 q 807 749 807 780 q 786 699 807 718 q 715 680 764 680 l 522 395 l 626 395 q 656 388 647 395 q 665 367 665 380 q 656 346 665 354 q 626 338 647 338 l 488 338 l 488 248 l 626 248 q 656 240 647 248 q 665 220 665 233 q 656 199 665 207 q 626 191 647 191 l 488 191 l 488 139 l 555 139 q 626 120 605 139 q 648 69 648 100 q 626 19 648 39 q 555 0 605 0 l 282 0 q 211 19 232 0 q 189 70 189 39 q 211 120 189 100 q 282 139 232 139 l 349 139 l 349 191 l 210 191 q 181 199 189 191 q 172 220 172 207 q 181 240 172 233 q 210 248 189 248 l 349 248 l 349 338 l 210 338 q 181 346 190 338 q 172 367 172 354 q 181 388 172 380 q 210 395 190 395 l 314 395 l 122 680 q 51 699 72 680 q 29 749 29 718 q 51 799 29 780 q 122 823 72 818 l 252 823 q 324 799 302 818 q 345 749 345 780 q 330 704 345 723 q 290 681 315 686 l 419 490 z "},"µ":{"ha":833,"x_min":20,"x_max":798,"o":"m 275 -8 l 275 -197 q 256 -269 275 -248 q 205 -290 237 -290 q 156 -269 175 -290 q 136 -197 136 -248 l 136 477 l 113 477 q 41 496 62 477 q 20 547 20 515 q 41 596 20 577 q 113 616 62 616 l 275 616 l 275 202 q 297 137 275 158 q 362 117 318 117 q 453 133 404 117 q 572 193 501 150 l 572 477 l 522 477 q 451 496 472 477 q 429 547 429 515 q 451 596 429 577 q 522 616 472 616 l 711 616 l 711 139 q 777 119 755 139 q 798 69 798 100 q 776 19 798 39 q 705 0 755 0 l 572 0 l 572 32 l 502 1 q 439 -16 477 -9 q 366 -23 401 -23 q 321 -19 344 -23 q 275 -8 298 -16 z "},"∂":{"ha":833,"x_min":64,"x_max":777,"o":"m 636 564 q 597 702 633 662 q 492 742 562 742 q 400 721 437 742 q 338 654 363 700 q 312 621 325 629 q 273 610 294 610 q 223 629 244 610 q 203 676 203 649 q 220 728 203 699 q 295 815 253 781 q 380 861 326 842 q 496 880 434 880 q 700 796 623 880 q 777 551 777 712 q 717 257 777 399 q 546 47 656 115 q 307 -20 436 -20 q 128 39 192 -20 q 64 195 64 99 q 107 346 64 273 q 217 458 151 419 q 431 545 321 520 q 636 564 513 564 m 624 424 q 581 425 596 425 q 375 388 466 425 q 243 298 283 350 q 202 197 202 246 q 227 139 202 162 q 299 117 252 117 q 438 146 369 117 q 553 242 508 176 q 624 424 599 307 z "},"∑":{"ha":833,"x_min":45,"x_max":766,"o":"m 759 851 l 759 690 q 751 634 759 650 q 727 608 744 618 q 690 597 709 597 q 651 609 669 597 q 626 637 633 621 q 620 712 620 653 l 235 712 l 535 309 l 205 -125 l 627 -125 l 627 -92 q 634 -37 627 -53 q 659 -10 642 -21 q 696 1 676 1 q 733 -10 716 1 q 758 -37 751 -21 q 766 -92 766 -53 l 766 -262 l 45 -262 l 45 -111 l 352 304 l 57 699 l 57 851 l 759 851 z "},"∏":{"ha":833,"x_min":16,"x_max":818,"o":"m 109 851 l 725 851 q 780 844 764 851 q 807 819 796 836 q 818 781 818 802 q 798 732 818 752 q 736 712 777 713 l 736 -123 q 782 -131 766 -123 q 808 -156 798 -139 q 818 -193 818 -173 q 807 -230 818 -212 q 780 -254 795 -247 q 725 -262 764 -262 l 608 -262 q 552 -254 568 -262 q 526 -230 536 -247 q 515 -192 515 -212 q 535 -143 515 -162 q 597 -123 555 -123 l 597 712 l 237 712 l 237 -123 q 283 -131 267 -123 q 309 -156 299 -139 q 319 -193 319 -173 q 308 -230 319 -212 q 281 -254 297 -247 q 227 -262 266 -262 l 109 -262 q 54 -254 70 -262 q 27 -230 38 -247 q 16 -193 16 -212 q 37 -143 16 -163 q 98 -123 57 -123 l 98 712 q 37 732 57 713 q 16 781 16 752 q 27 819 16 802 q 54 844 38 836 q 109 851 69 851 z "},"∫":{"ha":833,"x_min":5,"x_max":809,"o":"m 471 587 l 471 302 q 461 89 471 182 q 426 -66 451 -3 q 365 -173 401 -129 q 284 -240 329 -216 q 200 -264 240 -264 q 110 -237 159 -264 q 33 -165 60 -211 q 5 -75 5 -120 q 29 -3 5 -29 q 90 23 54 23 q 153 -4 126 23 q 193 -102 180 -31 q 204 -138 197 -132 q 228 -150 216 -150 q 255 -135 237 -150 q 315 -62 294 -102 q 349 65 336 -22 q 361 303 361 152 l 361 589 q 385 895 361 795 q 474 1086 414 1025 q 618 1147 535 1147 q 753 1094 696 1147 q 809 972 809 1040 q 786 904 809 928 q 728 879 763 879 q 668 904 694 879 q 631 996 643 930 q 621 1028 627 1023 q 598 1038 611 1038 q 559 1023 578 1038 q 519 970 533 1000 q 484 836 496 922 q 471 587 471 750 z "},"ª":{"ha":833,"x_min":185,"x_max":665,"o":"m 498 519 l 498 539 q 427 514 464 523 q 349 506 389 506 q 224 547 274 506 q 185 620 185 578 q 242 717 185 671 q 404 762 299 762 q 498 754 444 762 l 498 774 q 481 804 498 792 q 414 817 464 817 q 311 802 375 817 q 273 797 287 797 q 242 809 255 797 q 230 839 230 821 q 264 877 230 867 q 411 900 340 900 q 546 863 503 900 q 589 775 589 827 l 589 603 l 604 603 q 651 591 637 603 q 665 562 665 579 q 651 531 665 543 q 604 519 637 519 l 498 519 m 498 669 q 399 679 441 679 q 302 653 342 679 q 279 622 279 637 q 290 603 279 610 q 351 589 311 589 q 427 600 390 589 q 498 633 463 611 l 498 669 z "},"º":{"ha":833,"x_min":184,"x_max":651,"o":"m 651 697 q 586 564 651 622 q 418 506 521 506 q 249 564 314 506 q 184 699 184 622 q 213 795 184 747 q 298 872 242 844 q 418 900 355 900 q 585 839 518 900 q 651 697 651 779 m 561 697 q 520 780 561 743 q 418 817 480 817 q 314 780 355 817 q 274 696 274 743 q 315 624 274 659 q 418 589 355 589 q 520 624 479 589 q 561 697 561 659 z "},"Ω":{"ha":833,"x_min":23,"x_max":810,"o":"m 363 0 l 122 0 q 71 4 83 0 q 36 29 49 12 q 23 68 23 46 q 44 120 23 100 q 114 139 66 139 l 228 139 l 228 174 q 79 294 132 213 q 26 484 26 375 q 110 721 26 622 q 410 843 212 843 q 700 739 591 843 q 809 478 809 634 q 743 271 809 358 q 606 174 694 208 l 606 139 l 720 139 q 785 128 770 139 q 810 74 810 111 q 797 32 810 52 q 762 5 783 12 q 701 0 749 0 l 468 0 l 468 277 q 565 302 515 277 q 643 377 614 328 q 672 487 672 427 q 603 645 672 581 q 414 709 533 709 q 229 646 296 709 q 162 483 162 582 q 228 332 162 388 q 363 277 276 291 l 363 0 z "},"æ":{"ha":833,"x_min":-29,"x_max":850,"o":"m 850 237 l 494 237 q 541 143 513 169 q 600 117 569 117 q 675 135 623 117 q 785 165 760 165 q 832 145 813 165 q 850 92 850 125 q 831 47 850 66 q 725 3 812 28 q 597 -22 637 -22 q 470 23 537 -22 q 418 -1 450 -1 q 366 23 387 -1 q 294 -11 330 1 q 222 -22 258 -22 q 98 10 159 -22 q 4 100 37 43 q -29 218 -29 157 q -1 297 -29 264 q 119 374 39 346 q 262 403 199 403 q 348 395 296 403 l 348 425 q 328 475 348 456 q 279 494 309 494 q 174 472 252 494 q 119 460 134 460 q 73 480 92 460 q 53 530 53 500 q 73 580 53 562 q 168 616 93 599 q 279 633 243 633 q 367 613 326 633 q 443 553 408 593 q 601 633 516 633 q 683 613 646 633 q 778 530 741 582 q 836 409 814 477 q 850 308 850 365 l 850 237 m 698 376 q 651 465 682 436 q 597 494 621 494 q 545 465 575 494 q 498 376 515 436 l 698 376 m 348 252 q 267 264 304 264 q 153 241 207 264 q 112 198 112 224 q 143 144 112 172 q 217 117 175 117 q 277 133 244 117 q 348 182 310 149 l 348 252 z "},"ø":{"ha":833,"x_min":31,"x_max":797,"o":"m 242 16 l 168 -62 q 131 -93 144 -85 q 101 -100 118 -100 q 52 -79 72 -100 q 31 -28 31 -58 q 38 0 31 -13 q 67 35 45 12 l 127 97 q 45 299 45 185 q 92 462 45 382 q 228 589 139 543 q 415 635 317 635 q 602 589 513 635 l 661 650 q 697 681 684 673 q 727 688 710 688 q 776 667 755 688 q 797 616 797 646 q 790 588 797 601 q 761 553 783 574 l 711 501 q 765 406 745 461 q 785 298 785 351 q 739 142 785 218 q 603 23 692 67 q 416 -21 513 -21 q 242 16 326 -21 m 500 483 q 414 496 457 496 q 250 435 315 496 q 184 298 184 374 q 225 199 184 247 l 500 483 m 349 125 q 415 118 382 118 q 580 175 514 118 q 646 296 646 233 q 612 399 646 349 l 349 125 z "},"¿":{"ha":833,"x_min":114,"x_max":692,"o":"m 317 527 q 340 578 317 558 q 416 598 363 598 q 491 578 469 598 q 514 527 514 558 q 491 475 514 495 q 416 455 469 455 q 340 475 363 455 q 317 527 317 495 m 347 222 q 364 310 345 287 q 416 334 383 334 q 466 312 447 334 q 486 241 486 291 l 486 127 q 287 30 321 64 q 253 -37 253 -4 q 293 -117 253 -82 q 404 -153 333 -153 q 553 -117 481 -153 q 563 -54 553 -69 q 622 -21 585 -21 q 672 -42 653 -21 q 692 -114 692 -64 l 692 -209 q 526 -276 585 -260 q 404 -292 467 -292 q 189 -212 264 -292 q 114 -30 114 -132 q 162 105 114 49 q 347 222 211 162 z "},"¡":{"ha":833,"x_min":301,"x_max":524,"o":"m 498 530 q 476 479 498 500 q 414 459 454 459 q 352 480 374 459 q 330 530 330 500 q 352 580 330 559 q 414 601 374 601 q 476 580 454 601 q 498 530 498 559 m 481 267 l 520 -103 q 524 -150 524 -133 q 490 -250 524 -213 q 412 -287 456 -287 q 335 -250 368 -287 q 301 -152 301 -213 q 304 -103 301 -134 l 343 267 q 365 317 347 300 q 412 335 384 335 q 459 317 441 335 q 481 267 478 300 z "},"¬":{"ha":833,"x_min":-26,"x_max":777,"o":"m 637 326 l 66 326 q -5 345 16 326 q -26 395 -26 364 q -5 446 -26 427 q 66 465 16 465 l 777 465 l 777 93 q 758 21 777 43 q 707 0 739 0 q 657 21 676 0 q 637 93 637 43 l 637 326 z "},"√":{"ha":833,"x_min":93,"x_max":798,"o":"m 748 1267 l 798 1267 l 587 -53 l 250 640 l 116 578 l 93 621 l 297 724 l 572 165 l 748 1267 z "},"ƒ":{"ha":833,"x_min":81,"x_max":762,"o":"m 488 569 l 570 569 q 642 550 621 569 q 663 499 663 530 q 642 449 663 469 q 570 430 621 430 l 488 430 l 488 92 q 416 -98 488 -22 q 247 -174 344 -174 q 128 -151 176 -174 q 81 -84 81 -128 q 101 -35 81 -56 q 148 -14 121 -14 q 180 -22 159 -14 q 245 -35 212 -35 q 313 -6 288 -35 q 349 92 349 37 l 349 430 l 267 430 q 196 449 217 430 q 174 499 174 469 q 196 550 174 530 q 267 569 217 569 l 349 569 l 349 647 q 422 826 349 752 q 593 900 494 900 q 714 879 666 900 q 762 814 762 857 q 743 761 762 781 q 696 740 723 740 q 663 748 684 740 q 593 761 629 761 q 524 732 550 761 q 488 643 488 692 l 488 569 z "},"≈":{"ha":833,"x_min":85,"x_max":749,"o":"m 679 642 q 729 622 709 642 q 749 572 749 601 q 720 509 749 544 q 627 421 666 445 q 543 397 587 397 q 465 417 504 397 q 369 492 427 437 q 294 547 311 547 q 227 492 277 547 q 184 451 198 459 q 156 442 171 442 q 106 463 127 442 q 85 513 85 484 q 155 620 85 553 q 294 686 226 686 q 372 666 333 686 q 474 584 412 646 q 541 536 522 536 q 560 543 551 536 q 612 597 577 555 q 649 634 636 626 q 679 642 663 642 m 679 347 q 729 327 709 347 q 749 278 749 307 q 720 214 749 249 q 627 126 666 150 q 543 103 587 103 q 465 123 504 103 q 369 198 427 142 q 294 253 311 253 q 227 197 277 253 q 184 156 198 165 q 156 148 171 148 q 106 169 127 148 q 85 218 85 190 q 155 326 85 259 q 294 392 226 392 q 373 372 333 392 q 467 297 412 351 q 541 242 522 242 q 560 249 551 242 q 612 303 577 261 q 649 339 636 332 q 679 347 663 347 z "},"∆":{"ha":833,"x_min":47,"x_max":787,"o":"m 47 0 l 359 810 l 467 810 l 787 0 l 47 0 m 189 90 l 644 90 l 413 693 l 189 90 z "},"«":{"ha":833,"x_min":48,"x_max":770,"o":"m 231 295 l 425 104 q 445 66 445 85 q 433 38 445 50 q 403 26 420 26 q 374 39 387 26 q 367 45 370 42 l 48 290 l 372 563 q 408 582 394 582 q 438 570 426 582 q 450 539 450 557 q 429 503 450 524 l 231 295 m 551 295 l 745 104 q 766 66 766 85 q 753 37 766 50 q 724 25 741 25 q 694 38 708 25 q 688 44 690 42 l 369 289 l 692 563 q 730 581 715 581 q 759 569 747 581 q 770 539 770 557 q 750 503 770 524 l 551 295 z "},"»":{"ha":833,"x_min":71,"x_max":793,"o":"m 610 303 l 412 511 q 391 549 391 532 q 404 578 391 566 q 433 590 416 590 q 470 571 448 590 l 793 298 l 475 53 l 468 47 q 437 34 453 34 q 408 46 420 34 q 396 76 396 58 q 416 113 396 93 l 610 303 m 290 303 l 91 511 q 71 549 71 532 q 83 577 71 566 q 113 589 95 589 q 149 571 127 589 l 472 297 l 154 52 l 147 47 q 117 33 132 33 q 87 45 100 33 q 75 76 75 58 q 96 113 75 93 l 290 303 z "},"…":{"ha":833,"x_min":69,"x_max":764,"o":"m 208 50 q 188 0 208 20 q 139 -20 168 -20 q 90 0 110 -20 q 69 50 69 21 q 90 100 69 79 q 139 121 110 121 q 188 100 168 121 q 208 50 208 79 m 486 50 q 466 0 486 20 q 417 -20 446 -20 q 368 0 388 -20 q 347 50 347 21 q 368 100 347 79 q 417 121 388 121 q 466 100 446 121 q 486 50 486 79 m 764 50 q 744 0 764 20 q 695 -20 724 -20 q 646 0 667 -20 q 625 50 625 21 q 646 100 625 79 q 695 121 666 121 q 744 100 724 121 q 764 50 764 79 z "},"À":{"ha":833,"x_min":-31,"x_max":865,"o":"m 587 224 l 249 224 l 215 139 l 249 139 q 320 120 299 139 q 342 69 342 100 q 320 19 342 39 q 249 0 299 0 l 62 0 q -10 19 12 0 q -31 70 -31 39 q -9 121 -31 101 q 65 139 14 140 l 283 683 l 193 683 q 121 702 142 683 q 100 753 100 722 q 121 803 100 784 q 193 823 142 823 l 493 822 l 770 139 q 834 128 819 139 q 865 69 865 106 q 844 19 865 39 q 773 0 823 0 l 586 0 q 514 19 536 0 q 493 70 493 39 q 514 120 493 100 q 586 139 536 139 l 620 139 l 587 224 m 529 363 l 417 638 l 304 363 l 529 363 m 325 1124 l 477 1000 q 505 956 505 978 q 492 924 505 937 q 460 911 479 911 q 421 930 444 911 l 268 1054 q 241 1097 241 1076 q 254 1129 241 1116 q 286 1142 267 1142 q 325 1124 302 1142 z "},"Ã":{"ha":833,"x_min":-31,"x_max":865,"o":"m 587 224 l 249 224 l 215 139 l 249 139 q 320 120 299 139 q 342 69 342 100 q 320 19 342 39 q 249 0 299 0 l 62 0 q -10 19 12 0 q -31 70 -31 39 q -9 121 -31 101 q 65 139 14 140 l 283 683 l 193 683 q 121 702 142 683 q 100 753 100 722 q 121 803 100 784 q 193 823 142 823 l 493 822 l 770 139 q 834 128 819 139 q 865 69 865 106 q 844 19 865 39 q 773 0 823 0 l 586 0 q 514 19 536 0 q 493 70 493 39 q 514 120 493 100 q 586 139 536 139 l 620 139 l 587 224 m 529 363 l 417 638 l 304 363 l 529 363 m 548 1045 q 581 1031 567 1045 q 594 999 594 1018 q 545 936 594 975 q 447 896 496 896 q 400 906 423 896 q 309 962 376 916 q 271 981 281 981 q 213 945 256 981 q 168 922 186 922 q 137 936 151 922 q 124 968 124 949 q 165 1026 124 993 q 269 1072 221 1072 q 309 1064 290 1072 q 386 1019 338 1052 q 448 986 433 986 q 500 1017 466 986 q 530 1041 522 1036 q 548 1045 538 1045 z "},"Õ":{"ha":833,"x_min":28,"x_max":807,"o":"m 807 411 q 689 103 807 226 q 417 -20 572 -20 q 166 82 278 -20 q 28 411 28 209 q 166 741 28 613 q 417 843 278 843 q 689 720 572 843 q 807 411 807 597 m 668 411 q 591 621 668 538 q 417 704 515 704 q 243 621 320 704 q 167 411 167 537 q 243 202 167 285 q 417 119 320 119 q 591 201 515 119 q 668 411 668 284 m 606 1045 q 638 1031 625 1045 q 652 999 652 1018 q 603 936 652 975 q 505 896 553 896 q 457 906 481 896 q 367 962 434 916 q 329 981 339 981 q 271 945 314 981 q 226 922 243 922 q 195 936 208 922 q 182 968 182 949 q 223 1026 182 993 q 326 1072 279 1072 q 367 1064 348 1072 q 444 1019 396 1052 q 506 986 491 986 q 557 1017 524 986 q 588 1041 579 1036 q 606 1045 596 1045 z "},"Œ":{"ha":833,"x_min":-28,"x_max":864,"o":"m 515 342 l 515 139 l 725 139 l 725 172 q 744 243 725 221 q 795 264 764 264 q 845 243 825 264 q 864 172 864 222 l 864 0 l 366 0 q 166 51 259 0 q 22 198 73 102 q -28 409 -28 293 q 24 630 -28 531 q 156 764 64 705 q 366 823 249 823 l 836 822 l 836 590 q 816 518 836 540 q 766 497 797 497 q 716 518 735 497 q 696 590 696 540 l 696 683 l 515 683 l 515 481 l 544 481 q 565 539 546 520 q 614 559 585 559 q 664 537 644 559 q 683 466 683 516 l 683 357 q 664 285 683 307 q 614 264 644 264 q 564 284 584 264 q 544 342 544 305 l 515 342 m 376 683 q 237 652 292 682 q 146 554 182 623 q 111 411 111 485 q 147 268 111 337 q 239 169 183 199 q 376 138 294 140 l 376 683 z "},"œ":{"ha":833,"x_min":-28,"x_max":852,"o":"m 850 236 l 494 236 q 538 146 508 176 q 596 117 568 117 q 711 146 623 117 q 783 164 762 164 q 831 143 811 164 q 852 92 852 122 q 838 50 852 65 q 754 11 823 34 q 594 -22 654 -22 q 503 1 551 -22 q 414 82 454 24 q 330 4 376 30 q 231 -22 284 -22 q 54 72 137 -22 q -28 298 -28 165 q 11 468 -28 384 q 111 592 51 551 q 229 633 170 633 q 328 605 281 633 q 414 520 374 576 q 499 605 452 576 q 597 633 547 633 q 697 602 646 633 q 784 521 749 572 q 837 410 818 470 q 850 305 850 364 l 850 236 m 701 376 q 642 473 676 441 q 598 494 621 494 q 557 473 578 494 q 498 376 524 441 l 701 376 m 349 305 q 312 431 349 368 q 229 494 275 494 q 148 430 184 494 q 111 305 111 367 q 147 181 111 245 q 232 117 184 117 q 312 180 275 117 q 349 305 349 243 z "},"–":{"ha":833,"x_min":56,"x_max":777,"o":"m 684 324 l 149 324 q 77 343 98 324 q 56 394 56 363 q 77 444 56 425 q 149 463 98 463 l 684 463 q 755 444 734 463 q 777 393 777 425 q 755 343 777 363 q 684 324 734 324 z "},"—":{"ha":833,"x_min":-41,"x_max":875,"o":"m 783 323 l 52 323 q -20 343 1 323 q -41 393 -41 362 q -20 443 -41 424 q 52 463 1 463 l 783 463 q 853 443 832 463 q 875 393 875 424 q 854 343 875 362 q 783 323 833 323 z "},"“":{"ha":833,"x_min":110,"x_max":692,"o":"m 567 856 l 686 558 q 692 532 692 543 q 679 505 692 517 q 648 493 666 493 q 611 521 628 493 l 401 856 l 567 856 m 275 856 l 395 558 q 401 532 401 543 q 387 505 401 517 q 356 493 374 493 q 319 521 336 493 l 110 856 l 275 856 z "},"”":{"ha":833,"x_min":141,"x_max":724,"o":"m 267 856 l 432 856 l 223 521 q 186 493 205 493 q 155 505 168 493 q 141 531 141 517 q 147 558 141 543 l 267 856 m 559 856 l 724 856 l 515 521 q 477 493 497 493 q 446 505 460 493 q 433 531 433 517 q 439 558 433 543 l 559 856 z "},"‘":{"ha":833,"x_min":346,"x_max":633,"o":"m 346 850 l 532 850 l 627 505 q 633 477 633 487 q 620 451 633 463 q 590 439 608 439 q 545 473 563 439 l 346 850 z "},"’":{"ha":833,"x_min":201,"x_max":488,"o":"m 302 850 l 488 850 l 288 473 q 243 439 270 439 q 213 451 226 439 q 201 477 201 463 q 205 505 201 487 l 302 850 z "},"÷":{"ha":833,"x_min":56,"x_max":778,"o":"m 490 716 q 469 667 490 687 q 420 646 449 646 q 371 667 391 646 q 351 716 351 687 q 371 765 351 745 q 420 785 391 785 q 469 765 449 785 q 490 716 490 745 m 644 326 l 189 326 q 104 329 118 326 q 70 353 84 334 q 56 395 56 372 q 70 437 56 418 q 105 461 84 456 q 189 465 119 465 l 644 465 q 729 461 715 465 q 764 437 749 456 q 778 395 778 418 q 764 353 778 372 q 728 329 749 334 q 644 326 715 326 m 490 76 q 469 27 490 47 q 420 7 449 7 q 371 27 391 7 q 351 76 351 47 q 371 125 351 105 q 420 146 391 146 q 469 125 449 146 q 490 76 490 105 z "},"◊":{"ha":833,"x_min":105,"x_max":729,"o":"m 446 964 l 729 481 l 446 0 l 370 0 l 105 481 l 370 964 l 446 964 m 409 899 l 178 481 l 409 64 l 652 481 l 409 899 z "},"ÿ":{"ha":833,"x_min":29,"x_max":808,"o":"m 339 5 l 98 477 q 47 500 64 481 q 29 546 29 519 q 51 596 29 577 q 122 616 72 616 l 249 616 q 320 596 299 616 q 342 546 342 577 q 320 496 342 515 q 253 477 299 477 l 417 157 l 580 477 q 514 496 535 477 q 492 547 492 515 q 514 596 492 577 q 585 616 535 616 l 716 616 q 787 596 766 616 q 808 546 808 577 q 790 499 808 518 q 736 477 772 479 l 417 -151 q 486 -161 469 -151 q 518 -221 518 -182 q 497 -271 518 -252 q 425 -290 475 -290 l 122 -290 q 51 -271 72 -290 q 29 -221 29 -252 q 51 -171 29 -190 q 122 -151 72 -151 l 260 -151 l 339 5 m 321 798 q 299 746 321 767 q 248 724 278 724 q 195 746 217 724 q 174 798 174 768 q 195 850 174 829 q 248 871 217 871 q 299 850 278 871 q 321 798 321 829 m 611 798 q 589 746 611 767 q 537 724 568 724 q 485 746 507 724 q 464 798 464 768 q 485 850 464 829 q 537 871 507 871 q 589 850 568 871 q 611 798 611 829 z "},"Ÿ":{"ha":833,"x_min":29,"x_max":807,"o":"m 487 345 l 487 139 l 581 139 q 652 120 631 139 q 673 69 673 100 q 652 19 673 39 q 581 0 631 0 l 254 0 q 183 19 205 0 q 162 70 162 39 q 183 120 162 100 q 254 139 205 139 l 348 139 l 348 345 l 118 683 q 51 703 72 683 q 29 753 29 722 q 51 803 29 784 q 122 823 72 823 l 248 822 q 320 803 298 822 q 341 753 341 784 q 286 683 341 706 l 418 489 l 547 683 q 503 712 516 694 q 490 753 490 730 q 512 803 490 784 q 583 823 533 822 l 714 822 q 786 803 764 822 q 807 753 807 784 q 785 702 807 722 q 715 683 764 683 l 487 345 m 345 1015 q 323 962 345 983 q 271 941 302 941 q 219 962 241 941 q 197 1015 197 984 q 219 1066 197 1045 q 271 1088 241 1088 q 323 1066 302 1088 q 345 1015 345 1045 m 635 1015 q 613 962 635 983 q 561 941 591 941 q 509 962 530 941 q 488 1015 488 984 q 509 1066 488 1045 q 561 1088 530 1088 q 613 1066 591 1088 q 635 1015 635 1045 z "},"⁄":{"ha":833,"x_min":106,"x_max":728,"o":"m 687 543 l 208 235 q 163 216 178 216 q 122 233 139 216 q 106 273 106 250 q 114 302 106 290 q 147 330 121 314 l 627 638 q 671 657 656 657 q 712 640 695 657 q 728 600 728 623 q 721 571 728 583 q 687 543 713 559 z "},"€":{"ha":833,"x_min":0,"x_max":787,"o":"m 787 152 q 758 91 787 123 q 458 -20 661 -20 q 100 159 215 -20 q 50 282 63 217 q 0 318 0 282 q 43 366 0 366 l 43 425 q 0 461 0 425 q 48 509 0 509 q 94 648 59 582 q 232 791 143 739 q 424 843 320 843 q 635 787 545 843 q 696 822 661 822 q 765 730 765 822 l 765 612 q 696 519 765 519 q 626 593 640 519 q 607 637 621 622 q 429 704 546 704 q 222 589 298 704 q 189 509 199 553 l 537 509 q 583 473 583 509 q 568 439 583 453 q 525 425 553 425 l 182 425 l 182 366 l 506 366 q 552 330 552 366 q 537 296 552 310 q 494 282 522 282 l 193 282 q 256 186 210 229 q 458 119 329 119 q 589 140 535 119 q 655 188 619 152 q 717 222 689 222 q 766 201 745 222 q 787 152 787 180 z "},"‹":{"ha":833,"x_min":184,"x_max":586,"o":"m 367 291 l 561 106 q 581 68 581 87 q 569 39 581 52 q 539 27 557 27 q 510 40 524 27 q 503 46 506 43 l 184 291 l 508 564 q 545 583 530 583 q 574 571 562 583 q 586 541 586 559 q 566 504 586 526 l 367 291 z "},"›":{"ha":833,"x_min":256,"x_max":658,"o":"m 475 291 l 277 504 q 256 542 256 526 q 269 571 256 559 q 298 583 281 583 q 334 564 313 583 l 658 291 l 340 46 l 333 40 q 302 27 318 27 q 273 39 286 27 q 261 69 261 52 q 281 106 261 87 l 475 291 z "},"ﬁ":{"ha":833,"x_min":-26,"x_max":867,"o":"m 267 477 l 267 139 l 315 139 q 386 120 364 139 q 407 69 407 100 q 386 19 407 39 q 315 0 365 0 l 67 0 q -4 19 17 0 q -26 70 -26 39 q -4 120 -26 100 q 67 139 17 139 l 128 139 l 128 477 l 73 477 q 1 496 23 477 q -20 547 -20 515 q 1 596 -20 577 q 73 616 22 616 l 128 616 l 128 672 q 184 820 128 760 q 319 880 241 880 q 437 857 386 880 q 489 790 489 834 q 469 739 489 760 q 420 718 449 718 q 376 730 406 718 q 323 741 345 741 q 284 722 302 741 q 267 672 267 703 l 267 616 l 315 616 q 386 596 364 616 q 407 546 407 577 q 386 496 407 515 q 315 477 365 477 l 267 477 m 700 880 l 700 733 l 534 733 l 534 880 l 700 880 m 722 616 l 722 139 l 774 139 q 845 120 824 139 q 867 69 867 100 q 846 19 867 39 q 774 0 825 0 l 528 0 q 456 19 477 0 q 435 70 435 39 q 456 120 435 100 q 528 139 477 139 l 583 139 l 583 477 l 554 477 q 483 496 505 477 q 461 547 461 515 q 483 596 461 577 q 554 616 504 616 l 722 616 z "},"ﬂ":{"ha":833,"x_min":-27,"x_max":867,"o":"m 267 477 l 267 139 l 314 139 q 386 120 364 139 q 407 69 407 100 q 386 19 407 39 q 314 0 364 0 l 66 0 q -6 19 16 0 q -27 70 -27 39 q -6 120 -27 100 q 66 139 16 139 l 127 139 l 127 477 l 74 477 q 2 496 24 477 q -19 547 -19 515 q 2 596 -19 577 q 74 616 24 616 l 127 616 l 127 671 q 183 820 127 760 q 315 880 239 880 q 469 839 406 880 q 496 870 480 861 q 538 880 512 880 l 720 880 l 720 139 l 774 139 q 845 120 824 139 q 867 69 867 100 q 845 19 867 39 q 774 0 824 0 l 526 0 q 455 19 476 0 q 433 70 433 39 q 455 120 433 100 q 526 139 476 139 l 581 139 l 581 741 l 532 741 q 481 758 506 741 q 423 720 460 720 q 384 728 410 720 q 323 741 344 741 q 285 725 298 741 q 267 671 267 704 l 267 616 l 314 616 q 386 596 364 616 q 407 546 407 577 q 386 496 407 515 q 314 477 364 477 l 267 477 z "},"‡":{"ha":833,"x_min":129,"x_max":704,"o":"m 485 473 l 485 275 l 611 275 q 683 256 661 275 q 704 205 704 237 q 683 155 704 174 q 611 136 661 136 l 485 136 l 485 -38 q 466 -110 485 -88 q 415 -131 446 -131 q 365 -110 385 -131 q 346 -38 346 -88 l 346 136 l 222 136 q 150 155 172 136 q 129 205 129 174 q 151 256 129 237 q 222 275 174 276 l 346 272 l 346 473 l 222 473 q 150 492 172 473 q 129 543 129 511 q 150 592 129 573 q 222 612 172 612 l 346 612 l 346 785 q 365 856 346 835 q 415 878 385 878 q 466 856 446 878 q 485 785 485 835 l 485 612 l 609 612 q 680 592 659 612 q 701 542 701 573 q 680 492 701 511 q 609 473 659 473 l 485 473 z "},"∙":{"ha":833,"x_min":313,"x_max":522,"o":"m 522 433 q 494 368 522 394 q 417 341 466 341 q 340 368 368 341 q 313 433 313 394 q 340 499 313 473 q 417 526 368 526 q 494 499 466 526 q 522 433 522 473 z "},"‚":{"ha":833,"x_min":201,"x_max":488,"o":"m 302 187 l 488 187 l 282 -187 q 243 -217 266 -217 q 213 -207 224 -217 q 201 -185 201 -197 q 205 -158 201 -176 l 302 187 z "},"„":{"ha":833,"x_min":141,"x_max":724,"o":"m 267 182 l 432 182 l 223 -153 q 186 -181 205 -181 q 155 -169 168 -181 q 141 -142 141 -156 q 147 -115 141 -131 l 267 182 m 559 182 l 724 182 l 515 -153 q 477 -181 497 -181 q 446 -169 460 -181 q 433 -142 433 -156 q 439 -115 433 -131 l 559 182 z "},"‰":{"ha":833,"x_min":27,"x_max":810,"o":"m 320 702 q 273 584 320 635 q 174 533 226 533 q 75 584 122 533 q 27 702 27 635 q 74 819 27 768 q 174 871 121 871 q 273 820 226 871 q 320 702 320 768 m 238 702 q 211 764 238 732 q 173 789 191 789 q 133 760 157 789 q 109 702 109 732 q 133 643 109 672 q 174 614 157 614 q 214 643 190 614 q 238 702 238 671 m 688 524 l 174 358 q 146 352 155 352 q 118 365 130 352 q 106 397 106 378 q 114 422 106 412 q 147 440 122 432 l 663 605 q 690 611 681 611 q 718 598 706 611 q 730 567 730 585 q 720 541 730 553 q 688 524 713 532 m 446 173 q 399 55 446 106 q 300 4 352 4 q 201 55 248 4 q 153 173 153 106 q 201 290 153 239 q 300 342 248 342 q 399 291 352 342 q 446 173 446 239 m 365 173 q 337 235 365 203 q 299 260 317 260 q 259 232 283 260 q 235 173 235 203 q 259 114 235 143 q 300 85 283 85 q 341 114 317 85 q 365 173 365 142 m 810 173 q 763 55 810 106 q 664 4 716 4 q 565 55 612 4 q 517 173 517 106 q 565 290 517 239 q 664 342 612 342 q 763 291 716 342 q 810 173 810 239 m 728 173 q 701 235 728 203 q 663 260 681 260 q 623 232 647 260 q 600 173 600 203 q 623 114 600 143 q 665 85 647 85 q 704 114 680 85 q 728 173 728 142 z "},"Â":{"ha":833,"x_min":-31,"x_max":865,"o":"m 587 224 l 249 224 l 215 139 l 249 139 q 320 120 299 139 q 342 69 342 100 q 320 19 342 39 q 249 0 299 0 l 62 0 q -10 19 12 0 q -31 70 -31 39 q -9 121 -31 101 q 65 139 14 140 l 283 683 l 193 683 q 121 702 142 683 q 100 753 100 722 q 121 803 100 784 q 193 823 142 823 l 493 822 l 770 139 q 834 128 819 139 q 865 69 865 106 q 844 19 865 39 q 773 0 823 0 l 586 0 q 514 19 536 0 q 493 70 493 39 q 514 120 493 100 q 586 139 536 139 l 620 139 l 587 224 m 529 363 l 417 638 l 304 363 l 529 363 m 357 1017 l 218 923 q 182 907 196 907 q 150 922 163 907 q 136 954 136 936 q 167 1000 136 979 l 357 1127 l 549 1000 q 579 955 579 979 q 566 922 579 936 q 532 907 552 907 q 496 923 519 907 l 357 1017 z "},"Ê":{"ha":833,"x_min":20,"x_max":768,"o":"m 274 343 l 274 139 l 629 139 l 629 214 q 648 286 629 264 q 699 307 667 307 q 748 286 729 307 q 768 214 768 264 l 768 0 l 113 0 q 42 19 63 0 q 20 70 20 39 q 42 120 20 100 q 113 139 64 139 l 135 139 l 135 683 l 113 683 q 42 702 63 683 q 20 753 20 722 q 42 803 20 784 q 113 823 63 823 l 737 822 l 737 610 q 718 539 737 561 q 668 518 699 518 q 617 539 637 518 q 598 610 598 560 l 598 683 l 274 683 l 274 482 l 396 482 q 406 552 396 536 q 466 585 427 585 q 516 564 496 585 q 535 492 535 543 l 535 332 q 524 271 535 287 q 466 239 503 239 q 406 273 427 239 q 396 343 396 288 l 274 343 m 416 1017 l 277 923 q 241 907 255 907 q 209 922 222 907 q 195 954 195 936 q 226 1000 195 979 l 416 1127 l 608 1000 q 638 955 638 979 q 625 922 638 936 q 591 907 611 907 q 555 923 578 907 l 416 1017 z "},"Á":{"ha":833,"x_min":-31,"x_max":865,"o":"m 587 224 l 249 224 l 215 139 l 249 139 q 320 120 299 139 q 342 69 342 100 q 320 19 342 39 q 249 0 299 0 l 62 0 q -10 19 12 0 q -31 70 -31 39 q -9 121 -31 101 q 65 139 14 140 l 283 683 l 193 683 q 121 702 142 683 q 100 753 100 722 q 121 803 100 784 q 193 823 142 823 l 493 822 l 770 139 q 834 128 819 139 q 865 69 865 106 q 844 19 865 39 q 773 0 823 0 l 586 0 q 514 19 536 0 q 493 70 493 39 q 514 120 493 100 q 586 139 536 139 l 620 139 l 587 224 m 529 363 l 417 638 l 304 363 l 529 363 m 552 1054 l 399 930 q 361 911 376 911 q 329 924 342 911 q 315 956 315 937 q 342 1000 315 978 l 496 1124 q 534 1142 519 1142 q 567 1129 553 1142 q 580 1098 580 1116 q 552 1054 580 1076 z "},"Ë":{"ha":833,"x_min":20,"x_max":768,"o":"m 274 343 l 274 139 l 629 139 l 629 214 q 648 286 629 264 q 699 307 667 307 q 748 286 729 307 q 768 214 768 264 l 768 0 l 113 0 q 42 19 63 0 q 20 70 20 39 q 42 120 20 100 q 113 139 64 139 l 135 139 l 135 683 l 113 683 q 42 702 63 683 q 20 753 20 722 q 42 803 20 784 q 113 823 63 823 l 737 822 l 737 610 q 718 539 737 561 q 668 518 699 518 q 617 539 637 518 q 598 610 598 560 l 598 683 l 274 683 l 274 482 l 396 482 q 406 552 396 536 q 466 585 427 585 q 516 564 496 585 q 535 492 535 543 l 535 332 q 524 271 535 287 q 466 239 503 239 q 406 273 427 239 q 396 343 396 288 l 274 343 m 345 1015 q 324 962 345 983 q 272 941 302 941 q 220 962 241 941 q 198 1015 198 984 q 220 1066 198 1045 q 272 1088 241 1088 q 324 1066 302 1088 q 345 1015 345 1045 m 635 1015 q 614 962 635 983 q 562 941 592 941 q 510 962 531 941 q 488 1015 488 984 q 510 1066 488 1045 q 562 1088 531 1088 q 614 1066 592 1088 q 635 1015 635 1045 z "},"È":{"ha":833,"x_min":20,"x_max":768,"o":"m 274 343 l 274 139 l 629 139 l 629 214 q 648 286 629 264 q 699 307 667 307 q 748 286 729 307 q 768 214 768 264 l 768 0 l 113 0 q 42 19 63 0 q 20 70 20 39 q 42 120 20 100 q 113 139 64 139 l 135 139 l 135 683 l 113 683 q 42 702 63 683 q 20 753 20 722 q 42 803 20 784 q 113 823 63 823 l 737 822 l 737 610 q 718 539 737 561 q 668 518 699 518 q 617 539 637 518 q 598 610 598 560 l 598 683 l 274 683 l 274 482 l 396 482 q 406 552 396 536 q 466 585 427 585 q 516 564 496 585 q 535 492 535 543 l 535 332 q 524 271 535 287 q 466 239 503 239 q 406 273 427 239 q 396 343 396 288 l 274 343 m 369 1124 l 522 1000 q 549 956 549 978 q 536 924 549 937 q 504 911 523 911 q 465 930 488 911 l 312 1054 q 285 1097 285 1076 q 298 1129 285 1116 q 330 1142 311 1142 q 369 1124 346 1142 z "},"Í":{"ha":833,"x_min":114,"x_max":720,"o":"m 486 683 l 486 139 l 627 139 q 698 120 677 139 q 720 69 720 100 q 698 19 720 39 q 627 0 677 0 l 207 0 q 135 19 157 0 q 114 70 114 39 q 135 120 114 100 q 207 139 157 139 l 347 139 l 347 683 l 207 683 q 135 702 157 683 q 114 753 114 722 q 135 803 114 784 q 207 823 157 823 l 627 822 q 698 803 677 822 q 720 753 720 784 q 698 702 720 722 q 627 683 677 683 l 486 683 m 521 1054 l 368 930 q 330 911 345 911 q 297 924 311 911 q 284 956 284 937 q 311 1000 284 978 l 465 1124 q 503 1142 488 1142 q 535 1129 522 1142 q 549 1098 549 1116 q 521 1054 549 1076 z "},"Î":{"ha":833,"x_min":114,"x_max":720,"o":"m 486 683 l 486 139 l 627 139 q 698 120 677 139 q 720 69 720 100 q 698 19 720 39 q 627 0 677 0 l 207 0 q 135 19 157 0 q 114 70 114 39 q 135 120 114 100 q 207 139 157 139 l 347 139 l 347 683 l 207 683 q 135 702 157 683 q 114 753 114 722 q 135 803 114 784 q 207 823 157 823 l 627 822 q 698 803 677 822 q 720 753 720 784 q 698 702 720 722 q 627 683 677 683 l 486 683 m 415 1017 l 277 923 q 240 907 254 907 q 208 922 222 907 q 194 954 194 936 q 225 1000 194 979 l 415 1127 l 607 1000 q 637 955 637 979 q 624 922 637 936 q 591 907 610 907 q 555 923 577 907 l 415 1017 z "},"Ï":{"ha":833,"x_min":114,"x_max":720,"o":"m 486 683 l 486 139 l 627 139 q 698 120 677 139 q 720 69 720 100 q 698 19 720 39 q 627 0 677 0 l 207 0 q 135 19 157 0 q 114 70 114 39 q 135 120 114 100 q 207 139 157 139 l 347 139 l 347 683 l 207 683 q 135 702 157 683 q 114 753 114 722 q 135 803 114 784 q 207 823 157 823 l 627 822 q 698 803 677 822 q 720 753 720 784 q 698 702 720 722 q 627 683 677 683 l 486 683 m 345 1015 q 324 962 345 983 q 272 941 302 941 q 220 962 241 941 q 198 1015 198 984 q 220 1066 198 1045 q 272 1088 241 1088 q 324 1066 302 1088 q 345 1015 345 1045 m 635 1015 q 614 962 635 983 q 562 941 592 941 q 510 962 531 941 q 488 1015 488 984 q 510 1066 488 1045 q 562 1088 531 1088 q 614 1066 592 1088 q 635 1015 635 1045 z "},"Ì":{"ha":833,"x_min":114,"x_max":720,"o":"m 486 683 l 486 139 l 627 139 q 698 120 677 139 q 720 69 720 100 q 698 19 720 39 q 627 0 677 0 l 207 0 q 135 19 157 0 q 114 70 114 39 q 135 120 114 100 q 207 139 157 139 l 347 139 l 347 683 l 207 683 q 135 702 157 683 q 114 753 114 722 q 135 803 114 784 q 207 823 157 823 l 627 822 q 698 803 677 822 q 720 753 720 784 q 698 702 720 722 q 627 683 677 683 l 486 683 m 368 1124 l 521 1000 q 549 956 549 978 q 535 924 549 937 q 503 911 522 911 q 465 930 488 911 l 311 1054 q 284 1097 284 1076 q 297 1129 284 1116 q 330 1142 311 1142 q 368 1124 345 1142 z "},"Ó":{"ha":833,"x_min":28,"x_max":807,"o":"m 807 411 q 689 103 807 226 q 417 -20 572 -20 q 166 82 278 -20 q 28 411 28 209 q 166 741 28 613 q 417 843 278 843 q 689 720 572 843 q 807 411 807 597 m 668 411 q 591 621 668 538 q 417 704 515 704 q 243 621 320 704 q 167 411 167 537 q 243 202 167 285 q 417 119 320 119 q 591 201 515 119 q 668 411 668 284 m 533 1054 l 380 930 q 342 911 357 911 q 310 924 323 911 q 296 956 296 937 q 323 1000 296 978 l 477 1124 q 515 1142 500 1142 q 548 1129 534 1142 q 561 1098 561 1116 q 533 1054 561 1076 z "},"Ô":{"ha":833,"x_min":28,"x_max":807,"o":"m 807 411 q 689 103 807 226 q 417 -20 572 -20 q 166 82 278 -20 q 28 411 28 209 q 166 741 28 613 q 417 843 278 843 q 689 720 572 843 q 807 411 807 597 m 668 411 q 591 621 668 538 q 417 704 515 704 q 243 621 320 704 q 167 411 167 537 q 243 202 167 285 q 417 119 320 119 q 591 201 515 119 q 668 411 668 284 m 416 1017 l 277 923 q 241 907 255 907 q 209 922 222 907 q 195 954 195 936 q 226 1000 195 979 l 416 1127 l 608 1000 q 638 955 638 979 q 625 922 638 936 q 591 907 611 907 q 555 923 578 907 l 416 1017 z "},"Ò":{"ha":833,"x_min":28,"x_max":807,"o":"m 807 411 q 689 103 807 226 q 417 -20 572 -20 q 166 82 278 -20 q 28 411 28 209 q 166 741 28 613 q 417 843 278 843 q 689 720 572 843 q 807 411 807 597 m 668 411 q 591 621 668 538 q 417 704 515 704 q 243 621 320 704 q 167 411 167 537 q 243 202 167 285 q 417 119 320 119 q 591 201 515 119 q 668 411 668 284 m 366 1124 l 518 1000 q 546 956 546 978 q 533 924 546 937 q 500 911 519 911 q 462 930 485 911 l 309 1054 q 281 1097 281 1076 q 295 1129 281 1116 q 327 1142 308 1142 q 366 1124 342 1142 z "},"Ú":{"ha":833,"x_min":15,"x_max":821,"o":"m 734 683 l 734 289 q 642 70 734 160 q 419 -20 549 -20 q 298 2 355 -20 q 196 69 241 25 q 126 161 151 113 q 101 289 101 209 l 101 683 q 36 703 57 683 q 15 753 15 722 q 36 803 15 784 q 108 822 57 822 l 290 823 q 362 803 340 823 q 383 753 383 784 q 362 702 383 722 q 290 683 340 683 l 240 683 l 240 277 q 292 166 240 214 q 417 119 344 119 q 509 142 466 119 q 578 209 551 165 q 595 277 595 237 l 595 683 l 545 683 q 474 702 495 683 q 452 753 452 722 q 474 803 452 784 q 545 823 495 823 l 728 822 q 799 803 778 822 q 821 753 821 784 q 800 703 821 722 q 734 683 779 683 m 537 1054 l 385 930 q 346 911 361 911 q 314 924 327 911 q 300 956 300 937 q 328 1000 300 978 l 481 1124 q 519 1142 504 1142 q 552 1129 538 1142 q 565 1098 565 1116 q 537 1054 565 1076 z "},"Û":{"ha":833,"x_min":15,"x_max":821,"o":"m 734 683 l 734 289 q 642 70 734 160 q 419 -20 549 -20 q 298 2 355 -20 q 196 69 241 25 q 126 161 151 113 q 101 289 101 209 l 101 683 q 36 703 57 683 q 15 753 15 722 q 36 803 15 784 q 108 822 57 822 l 290 823 q 362 803 340 823 q 383 753 383 784 q 362 702 383 722 q 290 683 340 683 l 240 683 l 240 277 q 292 166 240 214 q 417 119 344 119 q 509 142 466 119 q 578 209 551 165 q 595 277 595 237 l 595 683 l 545 683 q 474 702 495 683 q 452 753 452 722 q 474 803 452 784 q 545 823 495 823 l 728 822 q 799 803 778 822 q 821 753 821 784 q 800 703 821 722 q 734 683 779 683 m 415 1017 l 277 923 q 240 907 254 907 q 208 922 222 907 q 194 954 194 936 q 225 1000 194 979 l 415 1127 l 607 1000 q 637 955 637 979 q 624 922 637 936 q 591 907 610 907 q 555 923 577 907 l 415 1017 z "},"Ù":{"ha":833,"x_min":15,"x_max":821,"o":"m 734 683 l 734 289 q 642 70 734 160 q 419 -20 549 -20 q 298 2 355 -20 q 196 69 241 25 q 126 161 151 113 q 101 289 101 209 l 101 683 q 36 703 57 683 q 15 753 15 722 q 36 803 15 784 q 108 822 57 822 l 290 823 q 362 803 340 823 q 383 753 383 784 q 362 702 383 722 q 290 683 340 683 l 240 683 l 240 277 q 292 166 240 214 q 417 119 344 119 q 509 142 466 119 q 578 209 551 165 q 595 277 595 237 l 595 683 l 545 683 q 474 702 495 683 q 452 753 452 722 q 474 803 452 784 q 545 823 495 823 l 728 822 q 799 803 778 822 q 821 753 821 784 q 800 703 821 722 q 734 683 779 683 m 349 1124 l 502 1000 q 530 956 530 978 q 516 924 530 937 q 484 911 503 911 q 446 930 469 911 l 292 1054 q 265 1097 265 1076 q 278 1129 265 1116 q 311 1142 292 1142 q 349 1124 326 1142 z "},"ı":{"ha":833,"x_min":87,"x_max":745,"o":"m 486 616 l 486 139 l 652 139 q 724 120 703 139 q 745 69 745 100 q 724 19 745 39 q 652 0 703 0 l 180 0 q 108 19 130 0 q 87 70 87 39 q 108 120 87 100 q 180 139 130 139 l 347 139 l 347 477 l 235 477 q 163 496 185 477 q 142 547 142 515 q 163 596 142 577 q 235 616 184 616 l 486 616 z "},"ˆ":{"ha":833,"x_min":195,"x_max":638,"o":"m 416 800 l 277 707 q 241 691 255 691 q 209 705 222 691 q 195 738 195 720 q 226 783 195 762 l 416 911 l 608 783 q 638 739 638 762 q 625 705 638 720 q 591 691 611 691 q 555 707 578 691 l 416 800 z "},"˜":{"ha":833,"x_min":182,"x_max":652,"o":"m 606 829 q 638 815 625 829 q 652 783 652 802 q 603 719 652 759 q 505 680 553 680 q 457 689 481 680 q 367 746 434 699 q 329 765 339 765 q 271 729 314 765 q 226 706 243 706 q 195 719 208 706 q 182 751 182 732 q 223 810 182 777 q 326 855 279 855 q 367 848 348 855 q 444 803 396 836 q 506 770 491 770 q 557 800 524 770 q 588 824 579 820 q 606 829 596 829 z "},"ˉ":{"ha":833,"x_min":197,"x_max":636,"o":"m 578 730 l 255 730 q 211 742 224 730 q 197 774 197 755 q 211 807 197 794 q 255 819 224 819 l 578 819 q 623 807 609 819 q 636 774 636 794 q 622 742 636 755 q 578 730 608 730 z "},"˘":{"ha":833,"x_min":197,"x_max":637,"o":"m 243 909 q 271 900 260 909 q 288 862 281 891 q 326 812 296 832 q 417 787 365 787 q 505 810 470 787 q 546 862 538 832 q 564 900 554 891 q 592 909 574 909 q 624 896 612 909 q 637 861 637 882 q 575 750 637 803 q 417 696 513 696 q 259 750 321 696 q 197 861 197 803 q 210 896 197 882 q 243 909 223 909 z "},"˙":{"ha":833,"x_min":329,"x_max":505,"o":"m 505 798 q 479 736 505 762 q 417 710 453 710 q 355 736 380 710 q 329 798 329 762 q 355 860 329 834 q 417 886 380 886 q 479 860 453 886 q 505 798 505 835 z "},"˚":{"ha":833,"x_min":283,"x_max":549,"o":"m 549 819 q 510 724 549 764 q 416 685 471 685 q 322 724 361 685 q 283 819 283 764 q 322 909 283 871 q 416 947 361 947 q 511 909 472 947 q 549 819 549 871 m 487 819 q 467 865 487 846 q 416 884 446 884 q 366 865 387 884 q 346 819 346 846 q 367 769 346 790 q 416 749 387 749 q 466 769 446 749 q 487 819 487 790 z "},"¸":{"ha":833,"x_min":277,"x_max":545,"o":"m 375 -132 l 375 -3 q 388 36 375 22 q 420 50 401 50 q 452 36 439 50 q 465 4 465 23 l 465 -47 q 524 -84 503 -58 q 545 -144 545 -110 q 511 -218 545 -186 q 425 -249 477 -249 q 301 -214 355 -249 q 277 -172 277 -198 q 291 -140 277 -153 q 322 -127 304 -127 q 358 -140 334 -127 q 424 -159 391 -159 q 448 -153 440 -159 q 455 -145 455 -149 q 450 -138 455 -141 q 414 -132 438 -132 l 375 -132 z "},"˝":{"ha":833,"x_min":196,"x_max":637,"o":"m 410 841 l 282 718 q 241 696 259 696 q 209 709 222 696 q 196 742 196 722 q 220 783 196 760 l 347 906 q 388 928 370 928 q 420 915 407 928 q 433 882 433 901 q 410 841 433 864 m 614 841 l 487 718 q 446 696 464 696 q 414 709 427 696 q 401 742 401 722 q 424 783 401 760 l 551 906 q 593 928 574 928 q 625 915 612 928 q 637 882 637 901 q 614 841 637 864 z "},"˛":{"ha":833,"x_min":292,"x_max":542,"o":"m 473 3 q 463 -26 473 -14 q 430 -42 453 -37 q 394 -62 406 -47 q 382 -96 382 -77 q 393 -119 382 -110 q 425 -129 404 -129 q 466 -113 446 -129 q 496 -101 481 -101 q 529 -114 515 -101 q 542 -146 542 -127 q 516 -191 542 -171 q 429 -218 481 -218 q 330 -183 368 -218 q 292 -96 292 -149 q 333 7 292 -35 q 425 50 374 50 q 459 36 446 50 q 473 3 473 22 z "},"ˇ":{"ha":833,"x_min":195,"x_max":638,"o":"m 416 795 l 555 889 q 592 905 578 905 q 625 890 611 905 q 638 858 638 876 q 608 812 638 833 l 416 685 l 226 812 q 195 857 195 833 q 209 890 195 876 q 241 905 222 905 q 278 889 255 905 l 416 795 z "},"Ł":{"ha":833,"x_min":46,"x_max":825,"o":"m 388 683 l 388 519 l 467 565 q 521 586 503 586 q 570 566 550 586 q 591 517 591 545 q 579 479 591 494 q 534 444 568 464 l 388 359 l 388 139 l 686 139 l 686 269 q 706 341 686 319 q 755 362 725 362 q 806 341 787 362 q 825 269 825 319 l 825 0 l 168 0 q 96 19 117 0 q 75 70 75 39 q 96 120 75 100 q 168 139 117 139 l 249 139 l 249 277 l 172 232 q 116 210 135 210 q 67 231 87 210 q 46 281 46 252 q 57 319 46 304 q 101 353 68 334 l 249 438 l 249 683 l 168 683 q 96 702 117 683 q 75 753 75 722 q 96 803 75 784 q 168 823 117 823 l 469 822 q 540 803 519 822 q 562 753 562 784 q 540 702 562 722 q 469 683 519 683 l 388 683 z "},"ł":{"ha":833,"x_min":87,"x_max":749,"o":"m 488 880 l 488 547 l 538 576 q 593 597 576 597 q 644 576 623 597 q 665 526 665 555 q 654 488 665 503 q 609 454 643 473 l 488 385 l 488 139 l 657 139 q 728 120 707 139 q 749 69 749 100 q 728 19 749 39 q 657 0 707 0 l 180 0 q 108 19 130 0 q 87 70 87 39 q 108 120 87 100 q 180 139 130 139 l 349 139 l 349 306 l 299 277 q 245 257 263 257 q 195 278 216 257 q 174 328 174 298 q 185 366 174 351 q 231 399 197 381 l 349 469 l 349 741 l 241 741 q 170 760 191 741 q 148 810 148 779 q 169 860 148 841 q 241 880 191 880 l 488 880 z "},"Š":{"ha":833,"x_min":86,"x_max":750,"o":"m 214 35 q 184 7 195 14 q 157 1 173 1 q 105 23 125 1 q 86 94 86 44 l 86 187 q 105 259 86 237 q 157 280 125 280 q 198 267 181 280 q 223 224 214 254 q 241 183 232 194 q 311 140 261 162 q 421 119 361 119 q 574 162 514 119 q 612 227 612 189 q 593 276 612 253 q 534 313 575 298 q 412 341 507 323 q 240 392 298 362 q 148 476 182 422 q 114 593 114 530 q 197 768 114 693 q 414 843 281 843 q 514 831 468 843 q 597 795 559 819 q 651 821 624 821 q 701 800 682 821 q 720 729 720 779 l 720 625 q 701 553 720 574 q 651 532 682 532 q 606 547 625 532 q 584 593 591 559 q 565 643 576 628 q 506 686 545 669 q 415 704 467 704 q 296 669 340 704 q 252 596 252 634 q 270 546 252 570 q 323 509 288 522 q 453 478 346 499 q 617 432 559 457 q 712 353 674 407 q 750 226 750 300 q 677 61 750 123 q 432 -20 581 -20 q 320 -6 374 -20 q 214 35 265 7 m 416 1012 l 555 1105 q 592 1121 578 1121 q 625 1107 611 1121 q 638 1074 638 1093 q 608 1029 638 1050 l 416 901 l 226 1029 q 195 1074 195 1050 q 209 1107 195 1093 q 241 1121 222 1121 q 278 1105 255 1121 l 416 1012 z "},"š":{"ha":833,"x_min":102,"x_max":735,"o":"m 567 453 q 496 485 533 474 q 418 495 458 495 q 290 469 337 495 q 269 444 269 457 q 297 413 269 428 q 394 392 319 402 q 587 354 532 373 q 696 279 658 329 q 735 175 735 230 q 669 50 735 100 q 425 -22 575 -22 q 313 -12 364 -22 q 219 19 262 -1 q 197 5 209 10 q 174 1 186 1 q 122 22 141 1 q 102 94 102 43 l 102 140 q 122 212 102 191 q 172 233 141 233 q 214 219 197 233 q 241 172 231 205 q 317 131 273 144 q 420 117 362 117 q 569 146 516 117 q 594 178 594 161 q 558 222 594 205 q 410 252 522 240 q 186 320 242 270 q 130 442 130 370 q 193 566 130 517 q 416 634 278 634 q 509 625 465 634 q 594 597 553 616 q 618 611 607 606 q 639 616 629 616 q 686 594 667 616 q 705 523 705 573 l 705 489 q 694 427 705 444 q 635 396 673 396 q 591 412 610 396 q 567 453 572 427 m 434 795 l 574 889 q 610 905 597 905 q 643 890 629 905 q 656 858 656 876 q 626 812 656 833 l 434 685 l 244 812 q 213 857 213 833 q 227 890 213 876 q 260 905 241 905 q 296 889 273 905 l 434 795 z "},"Ž":{"ha":833,"x_min":102,"x_max":735,"o":"m 280 139 l 595 139 l 595 242 q 615 314 595 292 q 665 335 634 335 q 716 314 696 335 q 735 242 735 292 l 734 0 l 102 0 l 102 139 l 526 683 l 270 683 l 270 583 q 251 512 270 533 q 201 490 232 490 q 150 512 170 490 q 131 583 131 533 l 131 823 l 706 822 l 706 686 l 280 139 m 416 1012 l 555 1105 q 592 1121 578 1121 q 625 1107 611 1121 q 638 1074 638 1093 q 608 1029 638 1050 l 416 901 l 226 1029 q 195 1074 195 1050 q 209 1107 195 1093 q 241 1121 222 1121 q 278 1105 255 1121 l 416 1012 z "},"ž":{"ha":833,"x_min":120,"x_max":725,"o":"m 342 139 l 586 139 q 607 197 588 178 q 655 216 627 216 q 706 195 686 216 q 725 123 725 174 l 725 0 l 120 0 l 120 115 l 486 477 l 273 477 l 273 463 q 254 392 273 414 q 203 371 235 371 q 153 392 172 371 q 134 463 134 414 l 134 616 l 709 616 l 709 502 l 342 139 m 430 795 l 570 889 q 606 905 593 905 q 639 890 625 905 q 652 858 652 876 q 622 812 652 833 l 430 685 l 240 812 q 209 857 209 833 q 223 890 209 876 q 256 905 237 905 q 292 889 269 905 l 430 795 z "},"¦":{"ha":833,"x_min":348,"x_max":487,"o":"m 487 744 l 487 530 q 484 446 487 459 q 459 411 478 425 q 418 397 441 397 q 375 411 394 397 q 351 447 357 425 q 348 530 348 459 l 348 744 q 351 829 348 815 q 375 863 357 849 q 418 878 394 878 q 459 863 441 878 q 484 829 478 849 q 487 744 487 814 m 487 130 l 487 -83 q 484 -168 487 -155 q 459 -203 478 -189 q 418 -217 441 -217 q 375 -203 394 -217 q 351 -167 357 -189 q 348 -83 348 -155 l 348 130 q 351 215 348 201 q 375 250 357 235 q 418 264 394 264 q 459 250 441 264 q 484 215 478 235 q 487 130 487 201 z "},"Ð":{"ha":833,"x_min":-24,"x_max":768,"o":"m 107 346 l 80 347 q 9 356 24 347 q -24 416 -24 378 q 1 470 -24 448 q 81 486 20 486 l 107 486 l 107 683 q 42 703 63 684 q 21 753 21 722 q 42 803 21 784 q 114 823 64 823 l 405 822 q 537 797 473 822 q 642 733 602 772 q 704 653 671 704 q 752 552 736 602 q 768 429 768 502 l 768 363 q 739 207 768 275 q 660 95 709 138 q 569 32 612 52 q 393 0 501 0 l 114 0 q 42 19 64 0 q 21 70 21 39 q 42 120 21 100 q 107 139 64 140 l 107 346 m 246 346 l 246 139 l 394 139 q 519 163 477 139 q 602 242 574 194 q 629 367 629 290 l 629 433 q 604 548 629 498 q 516 654 565 625 q 393 683 467 683 l 246 683 l 246 486 l 319 486 q 403 482 390 485 q 438 458 424 477 q 452 416 452 439 q 438 374 452 393 q 404 350 424 355 q 319 346 389 346 l 246 346 z "},"ð":{"ha":833,"x_min":62,"x_max":750,"o":"m 537 810 q 656 844 621 844 q 687 831 673 844 q 701 800 701 819 q 686 763 701 777 q 618 739 671 749 q 750 361 750 600 q 649 67 750 157 q 406 -24 548 -24 q 158 67 255 -24 q 62 288 62 159 q 153 498 62 412 q 389 584 243 584 q 501 569 448 584 q 598 525 553 555 q 484 692 558 633 l 335 640 q 284 631 302 631 q 254 643 266 631 q 242 676 242 656 q 258 714 242 700 q 370 751 275 728 q 273 775 286 768 q 248 819 248 789 q 266 861 248 844 q 315 878 283 878 q 429 859 368 878 q 537 810 491 840 m 410 112 q 545 159 497 112 q 593 281 593 205 q 539 407 593 355 q 401 460 484 460 q 268 407 321 460 q 214 277 214 354 q 266 158 214 205 q 410 112 317 112 z "},"Ý":{"ha":833,"x_min":29,"x_max":807,"o":"m 487 345 l 487 139 l 581 139 q 652 120 631 139 q 673 69 673 100 q 652 19 673 39 q 581 0 631 0 l 254 0 q 183 19 205 0 q 162 70 162 39 q 183 120 162 100 q 254 139 205 139 l 348 139 l 348 345 l 118 683 q 51 703 72 683 q 29 753 29 722 q 51 803 29 784 q 122 823 72 823 l 248 822 q 320 803 298 822 q 341 753 341 784 q 286 683 341 706 l 418 489 l 547 683 q 503 712 516 694 q 490 753 490 730 q 512 803 490 784 q 583 823 533 822 l 714 822 q 786 803 764 822 q 807 753 807 784 q 785 702 807 722 q 715 683 764 683 l 487 345 m 521 1054 l 368 930 q 330 911 345 911 q 297 924 311 911 q 284 956 284 937 q 311 1000 284 978 l 465 1124 q 503 1142 488 1142 q 535 1129 522 1142 q 549 1098 549 1116 q 521 1054 549 1076 z "},"ý":{"ha":833,"x_min":29,"x_max":808,"o":"m 339 5 l 98 477 q 47 500 64 481 q 29 546 29 519 q 51 596 29 577 q 122 616 72 616 l 249 616 q 320 596 299 616 q 342 546 342 577 q 320 496 342 515 q 253 477 299 477 l 417 157 l 580 477 q 514 496 535 477 q 492 547 492 515 q 514 596 492 577 q 585 616 535 616 l 716 616 q 787 596 766 616 q 808 546 808 577 q 790 499 808 518 q 736 477 772 479 l 417 -151 q 486 -161 469 -151 q 518 -221 518 -182 q 497 -271 518 -252 q 425 -290 475 -290 l 122 -290 q 51 -271 72 -290 q 29 -221 29 -252 q 51 -171 29 -190 q 122 -151 72 -151 l 260 -151 l 339 5 m 534 838 l 382 713 q 343 695 359 695 q 311 708 324 695 q 298 740 298 721 q 325 783 298 762 l 478 907 q 517 926 501 926 q 549 913 536 926 q 562 882 562 900 q 534 838 562 859 z "},"Þ":{"ha":833,"x_min":83,"x_max":802,"o":"m 197 823 l 477 822 q 548 803 527 822 q 570 753 570 784 q 548 702 570 722 q 477 683 527 683 l 336 683 l 336 644 l 496 644 q 666 627 610 644 q 762 560 723 610 q 802 425 802 511 q 769 288 802 342 q 665 206 736 234 q 468 178 593 178 l 336 178 l 336 139 l 477 139 q 548 120 527 139 q 570 69 570 100 q 548 19 570 39 q 477 0 527 0 l 176 0 q 104 19 125 0 q 83 70 83 39 q 104 120 83 100 q 176 139 126 139 l 197 139 l 197 683 l 176 683 q 104 702 125 683 q 83 753 83 722 q 96 794 83 775 q 129 818 110 812 q 197 823 143 822 m 336 292 l 465 292 q 623 325 583 292 q 663 416 663 357 q 625 499 663 468 q 496 530 588 530 l 336 530 l 336 292 z "},"þ":{"ha":833,"x_min":-12,"x_max":795,"o":"m 244 77 l 244 -151 l 328 -151 q 399 -171 378 -151 q 420 -221 420 -190 q 399 -271 420 -252 q 328 -290 378 -290 l 81 -290 q 10 -271 31 -290 q -12 -221 -12 -252 q 10 -171 -12 -190 q 81 -151 32 -151 l 105 -151 l 105 741 l 81 741 q 10 760 31 741 q -12 810 -12 779 q 10 860 -12 841 q 81 880 31 880 l 244 880 l 244 568 q 345 618 293 602 q 452 634 397 634 q 627 592 544 634 q 752 474 709 549 q 795 315 795 399 q 699 105 795 193 q 447 16 602 16 q 347 30 392 16 q 244 77 301 43 m 655 321 q 597 442 655 389 q 452 495 539 495 q 302 444 360 495 q 244 328 244 393 q 302 207 244 260 q 449 153 361 153 q 558 177 509 153 q 631 241 606 201 q 655 321 655 281 z "},"−":{"ha":833,"x_min":56,"x_max":778,"o":"m 644 326 l 189 326 q 104 329 118 326 q 70 353 84 334 q 56 395 56 372 q 70 437 56 418 q 105 461 84 456 q 189 465 119 465 l 644 465 q 729 461 715 465 q 764 437 749 456 q 778 395 778 418 q 764 353 778 372 q 728 329 749 334 q 644 326 715 326 z "},"×":{"ha":833,"x_min":138,"x_max":696,"o":"m 418 296 l 273 153 q 237 122 250 129 q 208 115 224 115 q 159 136 179 115 q 138 186 138 157 q 145 215 138 201 q 175 251 152 228 l 319 395 l 178 536 q 149 572 155 559 q 142 601 142 585 q 162 650 142 630 q 213 671 182 671 q 241 664 228 671 q 277 634 254 657 l 418 493 l 561 636 q 597 667 584 660 q 626 673 610 673 q 675 653 655 673 q 696 602 696 632 q 689 574 696 587 q 659 538 682 561 l 516 395 l 656 254 q 686 218 680 231 q 693 189 693 205 q 673 140 693 160 q 622 119 652 119 q 594 126 607 119 q 558 156 581 133 l 418 296 z "},"¹":{"ha":833,"x_min":230,"x_max":604,"o":"m 466 902 l 466 512 l 541 512 q 589 500 575 512 q 604 472 604 488 q 589 444 604 456 q 541 432 575 432 l 293 432 q 244 444 259 432 q 230 472 230 456 q 244 500 230 488 q 293 512 259 512 l 368 512 l 368 797 l 304 782 q 277 778 286 778 q 243 790 256 778 q 230 819 230 803 q 239 844 230 834 q 281 861 249 853 l 466 902 z "},"²":{"ha":833,"x_min":207,"x_max":597,"o":"m 356 512 l 517 512 q 547 522 532 522 q 586 508 572 522 q 597 471 597 497 l 597 432 l 207 432 l 207 513 q 477 719 425 666 q 498 758 498 739 q 475 801 498 783 q 410 820 452 820 q 353 806 375 820 q 322 772 330 792 q 305 745 315 752 q 273 736 292 736 q 237 749 251 736 q 223 775 223 761 q 245 827 223 795 q 313 880 268 859 q 411 900 357 900 q 546 857 496 900 q 596 758 596 813 q 570 685 596 720 q 418 557 544 650 l 356 512 z "},"³":{"ha":833,"x_min":217,"x_max":614,"o":"m 544 673 q 597 624 579 652 q 614 561 614 596 q 563 463 614 504 q 395 422 511 422 q 243 451 293 422 q 217 486 217 466 q 231 515 217 503 q 265 527 244 527 q 296 518 281 527 q 391 502 323 502 q 496 522 466 502 q 516 559 516 535 q 476 617 516 593 q 395 636 449 633 q 357 649 370 637 q 345 676 345 661 q 358 704 345 692 q 395 716 372 716 q 450 719 441 716 q 486 739 473 725 q 498 770 498 753 q 481 804 498 790 q 414 821 458 821 q 328 791 359 821 q 290 776 313 776 q 255 788 269 776 q 241 816 241 800 q 275 862 241 840 q 420 900 333 900 q 550 860 503 900 q 597 769 597 820 q 584 716 597 741 q 544 673 570 692 z "},"½":{"ha":833,"x_min":-64,"x_max":884,"o":"m 172 902 l 172 512 l 247 512 q 295 500 281 512 q 309 472 309 488 q 295 444 309 456 q 247 432 281 432 l -1 432 q -50 444 -35 432 q -64 472 -64 456 q -50 500 -64 488 q -1 512 -35 512 l 73 512 l 73 797 l 9 782 q -18 778 -8 778 q -51 790 -38 778 q -64 819 -64 803 q -55 844 -64 834 q -14 861 -45 854 l 172 902 m 703 543 l 224 235 q 179 216 194 216 q 138 233 155 216 q 121 273 121 250 q 130 302 121 290 q 163 330 138 314 l 642 638 q 688 657 672 657 q 727 640 711 657 q 744 600 744 623 q 736 571 744 583 q 703 543 728 559 m 642 80 l 807 80 q 836 90 821 90 q 873 76 859 90 q 884 39 884 65 l 884 0 l 493 0 l 493 80 q 764 287 711 233 q 784 326 784 307 q 761 369 784 351 q 696 388 739 388 q 639 374 661 388 q 609 340 616 360 q 592 313 602 320 q 559 304 578 304 q 523 316 537 304 q 509 342 509 328 q 532 395 509 363 q 599 448 554 427 q 698 468 644 468 q 832 425 782 468 q 882 325 882 381 q 860 257 882 288 q 704 125 829 216 l 642 80 z "},"¼":{"ha":833,"x_min":1,"x_max":833,"o":"m 237 902 l 237 512 l 296 512 q 344 500 330 512 q 359 472 359 488 q 345 444 359 456 q 296 432 330 432 l 64 432 q 16 444 30 432 q 1 472 1 456 q 16 501 1 490 q 81 512 31 512 l 139 512 l 139 797 l 92 782 q 63 779 79 779 q 31 791 43 779 q 18 819 18 803 q 27 844 18 835 q 68 861 36 852 l 237 902 m 745 543 l 265 235 q 220 216 236 216 q 180 233 197 216 q 163 273 163 250 q 171 302 163 290 q 205 330 179 314 l 684 638 q 729 657 713 657 q 769 640 753 657 q 786 600 786 623 q 778 571 786 583 q 745 543 770 559 m 783 456 l 783 179 q 820 167 806 179 q 833 140 833 155 q 819 111 833 123 q 783 99 806 99 l 783 80 q 820 68 806 80 q 833 40 833 56 q 819 12 833 24 q 770 0 804 0 l 661 0 q 611 12 626 0 q 597 40 597 23 q 611 68 597 56 q 661 80 626 80 l 684 80 l 684 99 l 461 99 l 461 163 l 661 456 l 783 456 m 684 179 l 684 325 l 585 179 l 684 179 z "},"¾":{"ha":833,"x_min":0,"x_max":825,"o":"m 329 673 q 381 621 372 637 q 397 561 397 591 q 346 463 397 504 q 178 422 294 422 q 26 451 76 422 q 0 486 0 466 q 14 515 0 503 q 48 527 27 527 q 79 518 64 527 q 174 502 106 502 q 279 522 249 502 q 299 559 299 535 q 259 617 299 593 q 178 636 232 633 q 140 649 153 637 q 127 676 127 661 q 141 704 127 692 q 178 716 155 716 q 233 719 224 716 q 269 739 256 725 q 281 770 281 753 q 264 804 281 790 q 197 821 241 821 q 111 791 142 821 q 73 776 96 776 q 38 788 52 776 q 24 815 24 800 q 60 863 24 840 q 205 900 121 902 q 335 859 290 898 q 380 768 380 819 q 376 740 380 753 q 365 713 372 726 q 357 702 361 707 l 329 673 m 730 543 l 252 235 q 207 216 222 216 q 166 233 183 216 q 149 273 149 250 q 157 302 149 290 q 191 330 165 314 l 670 638 q 715 657 700 657 q 755 640 739 657 q 772 600 772 623 q 764 571 772 583 q 730 543 756 559 m 774 456 l 774 179 q 812 167 798 179 q 825 140 825 155 q 811 111 825 123 q 774 99 798 99 l 774 80 q 812 68 798 80 q 825 40 825 56 q 811 12 825 24 q 762 0 796 0 l 652 0 q 603 12 618 0 q 589 40 589 23 q 603 68 589 56 q 652 80 618 80 l 675 80 l 675 99 l 453 99 l 453 163 l 652 456 l 774 456 m 675 179 l 675 325 l 576 179 l 675 179 z "},"₣":{"ha":833,"x_min":68,"x_max":815,"o":"m 321 290 l 378 290 q 417 285 406 290 q 436 267 429 279 q 444 240 444 254 q 436 213 444 226 q 417 195 429 201 q 378 190 406 190 l 321 190 l 321 139 l 464 139 q 519 132 503 139 q 546 107 535 124 q 557 69 557 90 q 546 32 557 50 q 519 7 535 15 q 464 0 503 0 l 161 0 q 105 7 121 0 q 79 32 90 15 q 68 70 68 50 q 80 109 68 91 q 108 133 92 126 q 182 139 124 139 l 182 190 l 135 190 q 95 195 106 190 q 76 214 83 201 q 68 241 68 227 q 76 267 68 254 q 95 285 83 279 q 132 290 106 290 l 182 290 l 182 683 l 161 683 q 105 691 121 683 q 79 716 90 699 q 68 753 68 733 q 79 790 68 772 q 105 815 90 808 q 161 823 121 823 l 815 822 l 815 610 q 808 555 815 570 q 783 528 800 539 q 745 517 766 517 q 708 528 726 517 q 684 555 691 539 q 676 610 676 571 l 676 683 l 321 683 l 321 506 l 444 506 q 451 570 444 554 q 475 598 458 587 q 513 609 492 609 q 550 598 533 609 q 575 571 568 587 q 583 516 583 555 l 583 401 q 575 346 583 362 q 550 319 568 330 q 513 309 533 309 q 476 319 493 309 q 451 346 459 330 q 444 400 444 362 l 321 400 l 321 290 z "},"Ğ":{"ha":833,"x_min":44,"x_max":826,"o":"m 767 254 l 767 68 q 607 -2 673 17 q 464 -20 541 -20 q 267 12 357 -20 q 154 73 195 36 q 79 183 113 111 q 44 347 44 256 l 44 447 q 129 695 44 586 q 439 843 243 843 q 547 831 496 843 q 644 797 598 820 q 699 822 672 822 q 748 801 729 822 q 767 730 767 780 l 767 640 q 748 568 767 589 q 698 547 728 547 q 656 562 673 547 q 633 607 642 572 q 612 654 624 642 q 548 689 594 673 q 444 704 501 704 q 300 670 361 704 q 220 583 256 645 q 183 447 183 520 l 183 347 q 248 177 183 235 q 454 119 313 119 q 628 155 549 119 l 628 254 l 486 254 q 415 274 436 254 q 393 324 393 293 q 415 375 393 355 q 486 394 436 394 l 733 393 q 805 374 783 393 q 826 324 826 355 q 811 281 826 300 q 767 254 797 263 m 263 1125 q 291 1116 281 1125 q 309 1078 301 1107 q 346 1029 316 1048 q 437 1003 385 1003 q 525 1026 490 1003 q 567 1078 559 1048 q 585 1116 574 1107 q 612 1125 595 1125 q 645 1112 632 1125 q 657 1078 657 1099 q 595 966 657 1019 q 437 913 534 913 q 279 966 341 913 q 218 1078 218 1019 q 231 1112 218 1099 q 263 1125 243 1125 z "},"ğ":{"ha":833,"x_min":45,"x_max":825,"o":"m 570 574 l 570 616 l 732 616 q 804 596 783 616 q 825 546 825 577 q 804 496 825 515 q 732 477 783 477 l 709 477 l 709 -29 q 678 -157 709 -102 q 583 -251 647 -212 q 439 -290 519 -290 l 282 -290 q 211 -271 232 -290 q 189 -221 189 -252 q 211 -171 189 -190 q 282 -151 232 -151 l 435 -151 q 534 -117 499 -151 q 570 -29 570 -82 l 570 39 q 476 -6 524 9 q 378 -21 428 -21 q 140 74 236 -21 q 45 307 45 168 q 140 542 45 447 q 378 636 236 636 q 478 621 431 636 q 570 574 526 606 m 569 308 q 512 441 569 385 q 376 497 456 497 q 240 441 297 497 q 184 308 184 385 q 240 175 184 231 q 376 119 297 119 q 512 175 456 119 q 569 308 569 231 m 261 909 q 289 900 279 909 q 307 862 299 891 q 344 812 314 832 q 435 787 383 787 q 523 810 488 787 q 565 862 557 832 q 583 900 572 891 q 610 909 593 909 q 643 896 630 909 q 655 861 655 882 q 593 750 655 803 q 435 696 532 696 q 277 750 339 696 q 216 861 216 803 q 229 896 216 882 q 261 909 241 909 z "},"İ":{"ha":833,"x_min":114,"x_max":720,"o":"m 486 683 l 486 139 l 627 139 q 698 120 677 139 q 720 69 720 100 q 698 19 720 39 q 627 0 677 0 l 207 0 q 135 19 157 0 q 114 70 114 39 q 135 120 114 100 q 207 139 157 139 l 347 139 l 347 683 l 207 683 q 135 702 157 683 q 114 753 114 722 q 135 803 114 784 q 207 823 157 823 l 627 822 q 698 803 677 822 q 720 753 720 784 q 698 702 720 722 q 627 683 677 683 l 486 683 m 505 1015 q 479 952 505 978 q 417 926 453 926 q 355 952 380 926 q 329 1015 329 978 q 355 1076 329 1050 q 417 1102 380 1102 q 479 1077 453 1102 q 505 1015 505 1051 z "},"Ş":{"ha":833,"x_min":86,"x_max":750,"o":"m 214 35 q 184 7 195 14 q 157 1 173 1 q 105 23 125 1 q 86 94 86 44 l 86 187 q 105 259 86 237 q 157 280 125 280 q 198 267 181 280 q 223 224 214 254 q 241 183 232 194 q 311 140 261 162 q 421 119 361 119 q 574 162 514 119 q 612 227 612 189 q 593 276 612 253 q 534 313 575 298 q 412 341 507 323 q 240 392 298 362 q 148 476 182 422 q 114 593 114 530 q 197 768 114 693 q 414 843 281 843 q 514 831 468 843 q 597 795 559 819 q 651 821 624 821 q 701 800 682 821 q 720 729 720 779 l 720 625 q 701 553 720 574 q 651 532 682 532 q 606 547 625 532 q 584 593 591 559 q 565 643 576 628 q 506 686 545 669 q 415 704 467 704 q 296 669 340 704 q 252 596 252 634 q 270 546 252 570 q 323 509 288 522 q 453 478 346 499 q 617 432 559 457 q 712 353 674 407 q 750 226 750 300 q 677 61 750 123 q 432 -20 581 -20 q 320 -6 374 -20 q 214 35 265 7 m 376 -146 l 376 -17 q 389 22 376 9 q 421 36 402 36 q 454 23 441 36 q 467 -9 467 9 l 467 -60 q 525 -97 505 -71 q 546 -157 546 -123 q 512 -231 546 -200 q 427 -262 479 -262 q 302 -227 356 -262 q 279 -185 279 -212 q 292 -154 279 -167 q 323 -140 305 -140 q 359 -154 335 -140 q 425 -172 392 -172 q 450 -167 441 -172 q 456 -159 456 -163 q 451 -152 456 -155 q 416 -146 439 -146 l 376 -146 z "},"ş":{"ha":833,"x_min":102,"x_max":735,"o":"m 567 453 q 496 485 533 474 q 418 495 458 495 q 290 469 337 495 q 269 444 269 457 q 297 413 269 428 q 394 392 319 402 q 587 354 532 373 q 696 279 658 329 q 735 175 735 230 q 669 50 735 100 q 425 -22 575 -22 q 313 -12 364 -22 q 219 19 262 -1 q 197 5 209 10 q 174 1 186 1 q 122 22 141 1 q 102 94 102 43 l 102 140 q 122 212 102 191 q 172 233 141 233 q 214 219 197 233 q 241 172 231 205 q 317 131 273 144 q 420 117 362 117 q 569 146 516 117 q 594 178 594 161 q 558 222 594 205 q 410 252 522 240 q 186 320 242 270 q 130 442 130 370 q 193 566 130 517 q 416 634 278 634 q 509 625 465 634 q 594 597 553 616 q 618 611 607 606 q 639 616 629 616 q 686 594 667 616 q 705 523 705 573 l 705 489 q 694 427 705 444 q 635 396 673 396 q 591 412 610 396 q 567 453 572 427 m 378 -132 l 378 -3 q 391 36 378 22 q 422 50 404 50 q 455 36 442 50 q 468 4 468 23 l 468 -47 q 527 -84 506 -58 q 547 -144 547 -110 q 514 -218 547 -186 q 428 -249 480 -249 q 304 -214 357 -249 q 280 -172 280 -198 q 293 -140 280 -153 q 325 -127 307 -127 q 361 -140 336 -127 q 427 -159 393 -159 q 451 -153 443 -159 q 458 -145 458 -149 q 452 -138 458 -141 q 417 -132 441 -132 l 378 -132 z "},"Ć":{"ha":833,"x_min":43,"x_max":787,"o":"m 635 787 q 663 813 648 804 q 696 822 678 822 q 746 801 726 822 q 765 730 765 780 l 765 612 q 746 540 765 562 q 696 519 726 519 q 651 534 668 519 q 626 593 634 550 q 607 637 621 621 q 529 686 579 667 q 429 704 479 704 q 315 677 367 704 q 222 589 262 650 q 182 444 182 528 l 182 353 q 255 186 182 253 q 458 119 328 119 q 589 140 535 119 q 655 188 620 152 q 689 216 677 210 q 717 222 701 222 q 766 201 745 222 q 787 152 787 180 q 758 91 787 123 q 652 16 717 43 q 458 -20 564 -20 q 236 31 335 -20 q 100 159 156 71 q 43 351 43 247 l 43 445 q 94 647 43 553 q 234 792 144 741 q 424 843 323 843 q 537 829 484 843 q 635 787 589 815 m 585 1054 l 432 930 q 393 911 409 911 q 361 924 374 911 q 348 956 348 937 q 375 1000 348 978 l 528 1124 q 567 1142 551 1142 q 599 1129 586 1142 q 612 1098 612 1116 q 585 1054 612 1076 z "},"ć":{"ha":833,"x_min":77,"x_max":789,"o":"m 633 591 q 685 614 659 614 q 734 593 715 614 q 753 522 753 572 l 753 433 q 734 361 753 382 q 684 340 715 340 q 635 357 655 340 q 613 407 621 369 q 574 463 605 444 q 433 495 519 495 q 276 437 335 495 q 216 292 216 380 q 273 163 216 210 q 463 116 330 116 q 604 134 549 116 q 666 171 637 144 q 719 197 695 197 q 768 176 747 197 q 789 126 789 155 q 726 39 789 80 q 452 -23 632 -23 q 199 44 290 -23 q 77 291 77 134 q 176 537 77 439 q 435 634 275 634 q 542 623 492 634 q 633 591 591 612 m 604 838 l 451 713 q 412 695 428 695 q 380 708 393 695 q 367 740 367 721 q 394 783 367 762 l 547 907 q 586 926 570 926 q 618 913 605 926 q 631 882 631 900 q 604 838 631 859 z "},"Č":{"ha":833,"x_min":43,"x_max":787,"o":"m 635 787 q 663 813 648 804 q 696 822 678 822 q 746 801 726 822 q 765 730 765 780 l 765 612 q 746 540 765 562 q 696 519 726 519 q 651 534 668 519 q 626 593 634 550 q 607 637 621 621 q 529 686 579 667 q 429 704 479 704 q 315 677 367 704 q 222 589 262 650 q 182 444 182 528 l 182 353 q 255 186 182 253 q 458 119 328 119 q 589 140 535 119 q 655 188 620 152 q 689 216 677 210 q 717 222 701 222 q 766 201 745 222 q 787 152 787 180 q 758 91 787 123 q 652 16 717 43 q 458 -20 564 -20 q 236 31 335 -20 q 100 159 156 71 q 43 351 43 247 l 43 445 q 94 647 43 553 q 234 792 144 741 q 424 843 323 843 q 537 829 484 843 q 635 787 589 815 m 416 1012 l 555 1105 q 592 1121 578 1121 q 625 1107 611 1121 q 638 1074 638 1093 q 608 1029 638 1050 l 416 901 l 226 1029 q 195 1074 195 1050 q 209 1107 195 1093 q 241 1121 222 1121 q 278 1105 255 1121 l 416 1012 z "},"č":{"ha":833,"x_min":77,"x_max":789,"o":"m 633 591 q 685 614 659 614 q 734 593 715 614 q 753 522 753 572 l 753 433 q 734 361 753 382 q 684 340 715 340 q 635 357 655 340 q 613 407 621 369 q 574 463 605 444 q 433 495 519 495 q 276 437 335 495 q 216 292 216 380 q 273 163 216 210 q 463 116 330 116 q 604 134 549 116 q 666 171 637 144 q 719 197 695 197 q 768 176 747 197 q 789 126 789 155 q 726 39 789 80 q 452 -23 632 -23 q 199 44 290 -23 q 77 291 77 134 q 176 537 77 439 q 435 634 275 634 q 542 623 492 634 q 633 591 591 612 m 442 795 l 582 889 q 618 905 605 905 q 651 890 637 905 q 665 858 665 876 q 634 812 665 833 l 442 685 l 252 812 q 221 857 221 833 q 235 890 221 876 q 268 905 249 905 q 304 889 281 905 l 442 795 z "},"đ":{"ha":833,"x_min":42,"x_max":852,"o":"m 736 713 l 812 713 q 844 705 835 713 q 852 684 852 697 q 842 662 852 671 q 808 656 834 656 l 736 656 l 736 139 l 760 139 q 831 120 809 139 q 852 69 852 100 q 831 19 852 39 q 760 0 810 0 l 597 0 l 597 34 q 497 -8 549 6 q 390 -22 446 -22 q 138 68 233 -22 q 42 294 42 159 q 142 534 42 435 q 387 634 243 634 q 494 617 441 634 q 597 568 546 601 l 597 656 l 534 656 q 473 661 480 656 q 460 684 460 669 q 473 708 460 699 q 534 713 480 713 l 597 713 l 597 745 l 573 745 q 513 754 530 745 q 481 812 481 775 q 502 861 481 842 q 573 880 523 880 l 736 880 l 736 713 m 597 290 q 536 435 597 376 q 389 495 476 495 q 241 435 302 495 q 181 292 181 376 q 235 166 181 215 q 389 117 290 117 q 542 166 487 117 q 597 290 597 215 z "},"¯":{"ha":833,"x_min":-55,"x_max":894,"o":"m 802 922 l 38 922 q -34 941 -12 922 q -55 991 -55 960 q -34 1041 -55 1022 q 38 1061 -12 1061 l 802 1061 q 872 1041 851 1061 q 894 991 894 1022 q 873 941 894 960 q 802 922 852 922 z "},"·":{"ha":833,"x_min":480,"x_max":656,"o":"m 656 505 q 630 443 656 469 q 568 417 604 417 q 506 443 532 417 q 480 505 480 469 q 506 567 480 541 q 568 593 532 593 q 630 568 604 593 q 656 505 656 542 z "},"Ă":{"ha":833,"x_min":-31,"x_max":865,"o":"m 587 224 l 249 224 l 215 139 l 249 139 q 320 120 299 139 q 342 69 342 100 q 320 19 342 39 q 249 0 299 0 l 62 0 q -10 19 12 0 q -31 70 -31 39 q -9 121 -31 101 q 65 139 14 140 l 283 683 l 193 683 q 121 702 142 683 q 100 753 100 722 q 121 803 100 784 q 193 823 142 823 l 493 822 l 770 139 q 834 128 819 139 q 865 69 865 106 q 844 19 865 39 q 773 0 823 0 l 586 0 q 514 19 536 0 q 493 70 493 39 q 514 120 493 100 q 586 139 536 139 l 620 139 l 587 224 m 529 363 l 417 638 l 304 363 l 529 363 m 220 1125 q 248 1116 238 1125 q 266 1078 258 1107 q 303 1029 273 1048 q 395 1003 342 1003 q 482 1026 448 1003 q 524 1078 516 1048 q 542 1116 532 1107 q 570 1125 552 1125 q 602 1112 589 1125 q 614 1078 614 1099 q 553 966 614 1019 q 395 913 491 913 q 237 966 298 913 q 175 1078 175 1019 q 188 1112 175 1099 q 220 1125 201 1125 z "},"ă":{"ha":833,"x_min":60,"x_max":798,"o":"m 542 0 l 542 33 q 427 -9 490 5 q 312 -23 363 -23 q 130 36 200 -23 q 60 168 60 96 q 150 330 60 255 q 396 405 239 405 q 542 391 459 405 l 542 425 q 515 475 542 456 q 413 495 488 495 q 253 471 351 495 q 196 462 216 462 q 149 482 168 462 q 130 533 130 502 q 136 564 130 551 q 155 584 143 576 q 206 603 168 592 q 311 626 258 617 q 408 634 365 634 q 609 578 538 634 q 681 425 681 522 l 681 139 l 705 139 q 776 120 755 139 q 798 69 798 100 q 776 19 798 39 q 705 0 755 0 l 542 0 m 542 249 q 388 265 458 265 q 242 224 303 265 q 204 170 204 197 q 222 138 204 151 q 315 116 256 116 q 429 136 366 116 q 542 189 492 155 l 542 249 m 255 909 q 283 900 273 909 q 300 862 293 891 q 338 812 308 832 q 429 787 377 787 q 517 810 482 787 q 558 862 551 832 q 576 900 566 891 q 604 909 587 909 q 636 896 624 909 q 649 861 649 882 q 587 750 649 803 q 429 696 526 696 q 271 750 333 696 q 210 861 210 803 q 222 896 210 882 q 255 909 235 909 z "},"Ą":{"ha":833,"x_min":-31,"x_max":907,"o":"m 587 224 l 249 224 l 215 139 l 249 139 q 320 120 299 139 q 342 69 342 100 q 320 19 342 39 q 249 0 299 0 l 62 0 q -10 19 12 0 q -31 70 -31 39 q -9 121 -31 101 q 65 139 14 140 l 283 683 l 193 683 q 121 702 142 683 q 100 753 100 722 q 121 803 100 784 q 193 823 142 823 l 493 822 l 770 139 q 834 128 819 139 q 865 69 865 106 q 844 19 865 39 q 773 0 823 0 l 586 0 q 514 19 536 0 q 493 70 493 39 q 514 120 493 100 q 586 139 536 139 l 620 139 l 587 224 m 529 363 l 417 638 l 304 363 l 529 363 m 838 41 q 828 13 838 24 q 794 -4 818 1 q 759 -23 771 -9 q 747 -57 747 -38 q 758 -81 747 -71 q 790 -90 768 -90 q 831 -74 811 -90 q 861 -62 846 -62 q 893 -76 880 -62 q 907 -108 907 -89 q 881 -153 907 -132 q 793 -180 846 -180 q 694 -145 732 -180 q 656 -58 656 -110 q 697 46 656 3 q 790 89 739 89 q 824 75 810 89 q 838 41 838 61 z "},"ą":{"ha":833,"x_min":60,"x_max":855,"o":"m 542 0 l 542 33 q 427 -9 490 5 q 312 -23 363 -23 q 130 36 200 -23 q 60 168 60 96 q 150 330 60 255 q 396 405 239 405 q 542 391 459 405 l 542 425 q 515 475 542 456 q 413 495 488 495 q 253 471 351 495 q 196 462 216 462 q 149 482 168 462 q 130 533 130 502 q 136 564 130 551 q 155 584 143 576 q 206 603 168 592 q 311 626 258 617 q 408 634 365 634 q 609 578 538 634 q 681 425 681 522 l 681 139 l 705 139 q 776 120 755 139 q 798 69 798 100 q 776 19 798 39 q 705 0 755 0 l 542 0 m 542 249 q 388 265 458 265 q 242 224 303 265 q 204 170 204 197 q 222 138 204 151 q 315 116 256 116 q 429 136 366 116 q 542 189 492 155 l 542 249 m 786 47 q 776 18 786 30 q 743 2 766 7 q 707 -18 720 -3 q 695 -52 695 -33 q 706 -75 695 -66 q 739 -85 717 -85 q 779 -68 760 -85 q 810 -57 794 -57 q 842 -70 829 -57 q 855 -102 855 -83 q 829 -147 855 -127 q 742 -174 794 -174 q 643 -139 681 -174 q 605 -52 605 -104 q 646 52 605 9 q 739 94 687 94 q 772 80 759 94 q 786 47 786 66 z "},"Ď":{"ha":833,"x_min":20,"x_max":767,"o":"m 106 139 l 106 683 q 41 703 62 684 q 20 753 20 722 q 41 803 20 784 q 113 823 62 823 l 404 822 q 536 797 471 822 q 640 733 601 772 q 702 653 670 704 q 751 552 734 602 q 767 429 767 502 l 767 363 q 737 207 767 275 q 659 95 707 138 q 568 32 610 52 q 392 0 500 0 l 113 0 q 41 19 62 0 q 20 70 20 39 q 41 120 20 100 q 106 139 62 140 m 245 139 l 393 139 q 517 163 475 139 q 600 242 572 194 q 628 367 628 290 l 628 433 q 603 548 628 498 q 514 654 564 625 q 391 683 465 683 l 245 683 l 245 139 m 393 1012 l 532 1105 q 569 1121 555 1121 q 602 1107 588 1121 q 615 1074 615 1093 q 585 1029 615 1050 l 393 901 l 203 1029 q 172 1074 172 1050 q 185 1107 172 1093 q 218 1121 199 1121 q 255 1105 232 1121 l 393 1012 z "},"ď":{"ha":833,"x_min":42,"x_max":975,"o":"m 736 880 l 736 139 l 760 139 q 831 120 809 139 q 852 69 852 100 q 831 19 852 39 q 760 0 810 0 l 597 0 l 597 34 q 497 -8 549 6 q 390 -22 446 -22 q 138 68 233 -22 q 42 294 42 159 q 142 534 42 435 q 387 634 243 634 q 494 617 441 634 q 597 568 546 601 l 597 741 l 573 741 q 502 760 523 741 q 480 810 480 779 q 502 860 480 841 q 573 880 523 880 l 736 880 m 597 290 q 536 435 597 376 q 389 495 476 495 q 241 435 302 495 q 181 292 181 376 q 235 166 181 215 q 389 117 290 117 q 542 166 487 117 q 597 290 597 215 m 975 816 q 958 736 971 766 q 887 634 934 684 q 855 614 868 614 q 836 622 844 614 q 828 639 828 629 q 852 675 828 650 q 907 753 895 720 l 887 753 q 841 770 859 753 q 824 814 824 787 q 842 862 824 844 q 887 880 860 880 l 911 880 q 954 864 938 880 q 975 816 970 849 z "},"Đ":{"ha":833,"x_min":-24,"x_max":768,"o":"m 107 346 l 80 347 q 9 356 24 347 q -24 416 -24 378 q 1 470 -24 448 q 81 486 20 486 l 107 486 l 107 683 q 42 703 63 684 q 21 753 21 722 q 42 803 21 784 q 114 823 64 823 l 405 822 q 537 797 473 822 q 642 733 602 772 q 704 653 671 704 q 752 552 736 602 q 768 429 768 502 l 768 363 q 739 207 768 275 q 660 95 709 138 q 569 32 612 52 q 393 0 501 0 l 114 0 q 42 19 64 0 q 21 70 21 39 q 42 120 21 100 q 107 139 64 140 l 107 346 m 246 346 l 246 139 l 394 139 q 519 163 477 139 q 602 242 574 194 q 629 367 629 290 l 629 433 q 604 548 629 498 q 516 654 565 625 q 393 683 467 683 l 246 683 l 246 486 l 319 486 q 403 482 390 485 q 438 458 424 477 q 452 416 452 439 q 438 374 452 393 q 404 350 424 355 q 319 346 389 346 l 246 346 z "},"Ę":{"ha":833,"x_min":20,"x_max":825,"o":"m 274 343 l 274 139 l 629 139 l 629 214 q 648 286 629 264 q 699 307 667 307 q 748 286 729 307 q 768 214 768 264 l 768 0 l 113 0 q 42 19 63 0 q 20 70 20 39 q 42 120 20 100 q 113 139 64 139 l 135 139 l 135 683 l 113 683 q 42 702 63 683 q 20 753 20 722 q 42 803 20 784 q 113 823 63 823 l 737 822 l 737 610 q 718 539 737 561 q 668 518 699 518 q 617 539 637 518 q 598 610 598 560 l 598 683 l 274 683 l 274 482 l 396 482 q 406 552 396 536 q 466 585 427 585 q 516 564 496 585 q 535 492 535 543 l 535 332 q 524 271 535 287 q 466 239 503 239 q 406 273 427 239 q 396 343 396 288 l 274 343 m 755 40 q 746 12 755 23 q 712 -5 736 0 q 677 -24 689 -10 q 665 -58 665 -39 q 675 -82 665 -73 q 708 -92 686 -92 q 749 -75 729 -92 q 779 -64 764 -64 q 811 -77 798 -64 q 825 -109 825 -90 q 799 -154 825 -134 q 711 -181 764 -181 q 612 -146 650 -181 q 574 -59 574 -111 q 615 45 574 2 q 708 87 656 87 q 742 74 728 87 q 755 40 755 60 z "},"ę":{"ha":833,"x_min":45,"x_max":766,"o":"m 766 237 l 195 237 q 272 150 217 183 q 422 117 328 117 q 627 150 499 117 q 701 163 680 163 q 747 144 728 163 q 766 94 766 124 q 746 48 766 67 q 614 0 719 23 q 412 -22 509 -22 q 145 72 245 -22 q 45 304 45 166 q 153 542 45 450 q 402 634 261 634 q 558 604 487 634 q 663 540 629 574 q 744 416 712 490 q 766 296 766 364 l 766 237 m 612 376 q 528 466 580 436 q 406 495 477 495 q 283 466 335 495 q 199 376 232 436 l 612 376 m 497 22 q 487 -6 497 5 q 454 -23 477 -18 q 418 -42 431 -28 q 406 -76 406 -57 q 417 -100 406 -90 q 450 -109 428 -109 q 490 -93 471 -109 q 521 -81 505 -81 q 553 -95 540 -81 q 566 -127 566 -108 q 541 -172 566 -151 q 453 -199 505 -199 q 354 -164 392 -199 q 316 -77 316 -129 q 357 27 316 -16 q 450 70 398 70 q 484 56 470 70 q 497 22 497 42 z "},"Ě":{"ha":833,"x_min":20,"x_max":768,"o":"m 274 343 l 274 139 l 629 139 l 629 214 q 648 286 629 264 q 699 307 667 307 q 748 286 729 307 q 768 214 768 264 l 768 0 l 113 0 q 42 19 63 0 q 20 70 20 39 q 42 120 20 100 q 113 139 64 139 l 135 139 l 135 683 l 113 683 q 42 702 63 683 q 20 753 20 722 q 42 803 20 784 q 113 823 63 823 l 737 822 l 737 610 q 718 539 737 561 q 668 518 699 518 q 617 539 637 518 q 598 610 598 560 l 598 683 l 274 683 l 274 482 l 396 482 q 406 552 396 536 q 466 585 427 585 q 516 564 496 585 q 535 492 535 543 l 535 332 q 524 271 535 287 q 466 239 503 239 q 406 273 427 239 q 396 343 396 288 l 274 343 m 416 1012 l 555 1105 q 592 1121 578 1121 q 625 1107 611 1121 q 638 1074 638 1093 q 608 1029 638 1050 l 416 901 l 226 1029 q 195 1074 195 1050 q 209 1107 195 1093 q 241 1121 222 1121 q 278 1105 255 1121 l 416 1012 z "},"ě":{"ha":833,"x_min":45,"x_max":766,"o":"m 766 237 l 195 237 q 272 150 217 183 q 422 117 328 117 q 627 150 499 117 q 701 163 680 163 q 747 144 728 163 q 766 94 766 124 q 746 48 766 67 q 614 0 719 23 q 412 -22 509 -22 q 145 72 245 -22 q 45 304 45 166 q 153 542 45 450 q 402 634 261 634 q 558 604 487 634 q 663 540 629 574 q 744 416 712 490 q 766 296 766 364 l 766 237 m 612 376 q 528 466 580 436 q 406 495 477 495 q 283 466 335 495 q 199 376 232 436 l 612 376 m 429 795 l 569 889 q 606 905 592 905 q 638 890 625 905 q 652 858 652 876 q 621 812 652 833 l 429 685 l 239 812 q 208 857 208 833 q 222 890 208 876 q 255 905 236 905 q 292 889 269 905 l 429 795 z "},"Ĺ":{"ha":833,"x_min":46,"x_max":798,"o":"m 359 683 l 359 139 l 659 139 l 659 271 q 678 342 659 321 q 728 363 697 363 q 778 342 759 363 q 798 271 798 321 l 798 0 l 139 0 q 67 19 89 0 q 46 70 46 39 q 67 120 46 100 q 139 139 89 139 l 220 139 l 220 683 l 139 683 q 67 702 89 683 q 46 753 46 722 q 67 803 46 784 q 139 823 89 823 l 440 822 q 512 803 490 822 q 533 753 533 784 q 512 702 533 722 q 440 683 490 683 l 359 683 m 494 1054 l 341 930 q 302 911 318 911 q 270 924 283 911 q 257 956 257 937 q 284 1000 257 978 l 437 1124 q 476 1142 460 1142 q 508 1129 495 1142 q 522 1098 522 1116 q 494 1054 522 1076 z "},"ĺ":{"ha":833,"x_min":87,"x_max":746,"o":"m 486 880 l 486 139 l 653 139 q 725 120 703 139 q 746 69 746 100 q 725 19 746 39 q 653 0 703 0 l 180 0 q 109 19 130 0 q 87 70 87 39 q 109 120 87 100 q 180 139 130 139 l 347 139 l 347 741 l 235 741 q 164 760 186 741 q 142 810 142 779 q 164 860 142 841 q 235 880 185 880 l 486 880 m 538 1072 l 386 948 q 347 930 363 930 q 315 943 328 930 q 302 975 302 956 q 329 1018 302 996 l 482 1142 q 521 1160 505 1160 q 553 1147 540 1160 q 566 1116 566 1135 q 538 1072 566 1094 z "},"Ľ":{"ha":833,"x_min":46,"x_max":798,"o":"m 359 683 l 359 139 l 659 139 l 659 271 q 678 342 659 321 q 728 363 697 363 q 778 342 759 363 q 798 271 798 321 l 798 0 l 139 0 q 67 19 89 0 q 46 70 46 39 q 67 120 46 100 q 139 139 89 139 l 220 139 l 220 683 l 139 683 q 67 702 89 683 q 46 753 46 722 q 67 803 46 784 q 139 823 89 823 l 440 822 q 512 803 490 822 q 533 753 533 784 q 512 702 533 722 q 440 683 490 683 l 359 683 m 779 751 q 760 664 775 696 q 682 550 734 605 q 646 528 661 528 q 625 536 634 528 q 616 555 616 545 q 642 595 616 568 q 703 681 689 646 l 682 681 q 630 700 650 681 q 611 749 611 720 q 631 802 611 783 q 682 822 651 822 l 708 822 q 756 805 738 822 q 779 751 774 789 z "},"ľ":{"ha":833,"x_min":87,"x_max":746,"o":"m 486 880 l 486 139 l 653 139 q 725 120 703 139 q 746 69 746 100 q 725 19 746 39 q 653 0 703 0 l 180 0 q 109 19 130 0 q 87 70 87 39 q 109 120 87 100 q 180 139 130 139 l 347 139 l 347 741 l 235 741 q 164 760 186 741 q 142 810 142 779 q 164 860 142 841 q 235 880 185 880 l 486 880 m 725 816 q 709 736 722 766 q 637 634 684 684 q 606 614 618 614 q 587 622 595 614 q 578 639 578 629 q 602 675 578 650 q 657 753 645 720 l 637 753 q 592 770 609 753 q 574 814 574 787 q 592 862 574 844 q 637 880 610 880 l 662 880 q 704 864 688 880 q 725 816 721 849 z "},"Ŀ":{"ha":833,"x_min":46,"x_max":798,"o":"m 359 683 l 359 139 l 659 139 l 659 271 q 678 342 659 321 q 728 363 697 363 q 778 342 759 363 q 798 271 798 321 l 798 0 l 139 0 q 67 19 89 0 q 46 70 46 39 q 67 120 46 100 q 139 139 89 139 l 220 139 l 220 683 l 139 683 q 67 702 89 683 q 46 753 46 722 q 67 803 46 784 q 139 823 89 823 l 440 822 q 512 803 490 822 q 533 753 533 784 q 512 702 533 722 q 440 683 490 683 l 359 683 m 656 505 q 630 443 656 469 q 568 417 604 417 q 506 443 532 417 q 480 505 480 469 q 506 567 480 541 q 568 593 532 593 q 630 568 604 593 q 656 505 656 542 z "},"ŀ":{"ha":833,"x_min":87,"x_max":758,"o":"m 486 880 l 486 139 l 653 139 q 725 120 703 139 q 746 69 746 100 q 725 19 746 39 q 653 0 703 0 l 180 0 q 109 19 130 0 q 87 70 87 39 q 109 120 87 100 q 180 139 130 139 l 347 139 l 347 741 l 235 741 q 164 760 186 741 q 142 810 142 779 q 164 860 142 841 q 235 880 185 880 l 486 880 m 758 469 q 732 406 758 432 q 670 380 706 380 q 608 406 633 380 q 582 469 582 432 q 608 531 582 505 q 670 557 633 557 q 732 531 706 557 q 758 469 758 505 z "},"Ń":{"ha":833,"x_min":-11,"x_max":823,"o":"m 243 559 l 243 139 l 293 139 q 365 120 343 139 q 386 69 386 100 q 365 19 386 39 q 293 0 343 0 l 111 0 q 39 19 60 0 q 18 70 18 39 q 39 119 18 100 q 104 139 60 139 l 104 683 l 82 683 q 11 702 32 683 q -11 753 -11 722 q 11 803 -11 784 q 82 823 32 823 l 243 822 l 598 264 l 598 683 l 548 683 q 476 702 498 683 q 455 753 455 722 q 476 803 455 784 q 548 823 498 823 l 730 822 q 802 803 781 822 q 823 753 823 784 q 802 703 823 722 q 738 683 781 683 l 738 0 l 600 0 l 243 559 m 576 1054 l 424 930 q 385 911 401 911 q 353 924 366 911 q 340 956 340 937 q 367 1000 340 978 l 520 1124 q 559 1142 543 1142 q 591 1129 578 1142 q 604 1098 604 1116 q 576 1054 604 1076 z "},"ń":{"ha":833,"x_min":35,"x_max":798,"o":"m 276 616 l 276 569 q 360 618 314 602 q 459 634 406 634 q 654 557 583 634 q 711 397 711 496 l 711 139 q 777 120 755 139 q 798 69 798 100 q 776 19 798 39 q 705 0 755 0 l 579 0 q 508 19 529 0 q 486 70 486 39 q 507 120 486 100 q 572 139 528 139 l 572 401 q 548 468 572 447 q 452 495 516 495 q 368 476 404 495 q 276 397 332 458 l 276 139 q 345 129 330 139 q 378 69 378 109 q 357 19 378 39 q 286 0 336 0 l 127 0 q 56 19 77 0 q 35 70 35 39 q 67 129 35 108 q 137 139 83 139 l 137 477 q 72 496 93 477 q 51 547 51 516 q 72 596 51 577 q 144 616 94 616 l 276 616 m 578 838 l 426 713 q 387 695 403 695 q 355 708 368 695 q 342 740 342 721 q 369 783 342 762 l 522 907 q 561 926 545 926 q 593 913 580 926 q 606 882 606 900 q 578 838 606 859 z "},"Ň":{"ha":833,"x_min":-11,"x_max":823,"o":"m 243 559 l 243 139 l 293 139 q 365 120 343 139 q 386 69 386 100 q 365 19 386 39 q 293 0 343 0 l 111 0 q 39 19 60 0 q 18 70 18 39 q 39 119 18 100 q 104 139 60 139 l 104 683 l 82 683 q 11 702 32 683 q -11 753 -11 722 q 11 803 -11 784 q 82 823 32 823 l 243 822 l 598 264 l 598 683 l 548 683 q 476 702 498 683 q 455 753 455 722 q 476 803 455 784 q 548 823 498 823 l 730 822 q 802 803 781 822 q 823 753 823 784 q 802 703 823 722 q 738 683 781 683 l 738 0 l 600 0 l 243 559 m 438 1012 l 578 1105 q 614 1121 601 1121 q 647 1107 633 1121 q 661 1074 661 1093 q 630 1029 661 1050 l 438 901 l 248 1029 q 217 1074 217 1050 q 231 1107 217 1093 q 264 1121 245 1121 q 300 1105 277 1121 l 438 1012 z "},"ň":{"ha":833,"x_min":35,"x_max":798,"o":"m 276 616 l 276 569 q 360 618 314 602 q 459 634 406 634 q 654 557 583 634 q 711 397 711 496 l 711 139 q 777 120 755 139 q 798 69 798 100 q 776 19 798 39 q 705 0 755 0 l 579 0 q 508 19 529 0 q 486 70 486 39 q 507 120 486 100 q 572 139 528 139 l 572 401 q 548 468 572 447 q 452 495 516 495 q 368 476 404 495 q 276 397 332 458 l 276 139 q 345 129 330 139 q 378 69 378 109 q 357 19 378 39 q 286 0 336 0 l 127 0 q 56 19 77 0 q 35 70 35 39 q 67 129 35 108 q 137 139 83 139 l 137 477 q 72 496 93 477 q 51 547 51 516 q 72 596 51 577 q 144 616 94 616 l 276 616 m 448 795 l 587 889 q 624 905 610 905 q 656 890 643 905 q 670 858 670 876 q 640 812 670 833 l 448 685 l 258 812 q 227 857 227 833 q 240 890 227 876 q 273 905 254 905 q 310 889 287 905 l 448 795 z "},"Ő":{"ha":833,"x_min":28,"x_max":807,"o":"m 807 411 q 689 103 807 226 q 417 -20 572 -20 q 166 82 278 -20 q 28 411 28 209 q 166 741 28 613 q 417 843 278 843 q 689 720 572 843 q 807 411 807 597 m 668 411 q 591 621 668 538 q 417 704 515 704 q 243 621 320 704 q 167 411 167 537 q 243 202 167 285 q 417 119 320 119 q 591 201 515 119 q 668 411 668 284 m 476 1057 l 349 935 q 308 912 326 912 q 276 925 289 912 q 262 958 262 939 q 286 999 262 977 l 414 1122 q 454 1144 436 1144 q 487 1131 473 1144 q 500 1098 500 1118 q 476 1057 500 1080 m 680 1057 l 553 935 q 513 912 530 912 q 480 925 493 912 q 467 958 467 939 q 490 999 467 977 l 618 1122 q 659 1144 641 1144 q 691 1131 678 1144 q 704 1098 704 1118 q 680 1057 704 1080 z "},"ő":{"ha":833,"x_min":58,"x_max":778,"o":"m 778 296 q 733 141 778 216 q 601 22 689 66 q 418 -22 513 -22 q 236 21 323 -22 q 104 140 149 65 q 58 298 58 216 q 104 461 58 381 q 237 588 151 542 q 418 634 323 634 q 601 587 513 634 q 733 460 688 540 q 778 296 778 380 m 639 296 q 591 419 639 363 q 418 495 525 495 q 260 435 323 495 q 197 295 197 374 q 261 173 197 230 q 418 117 325 117 q 575 173 511 117 q 639 296 639 230 m 493 841 l 366 718 q 325 696 342 696 q 293 709 306 696 q 279 742 279 722 q 303 783 279 760 l 431 906 q 471 928 453 928 q 504 915 490 928 q 517 882 517 901 q 493 841 517 864 m 697 841 l 570 718 q 530 696 547 696 q 497 709 510 696 q 484 742 484 722 q 507 783 484 760 l 635 906 q 676 928 658 928 q 708 915 695 928 q 721 882 721 901 q 697 841 721 864 z "},"Ŕ":{"ha":833,"x_min":20,"x_max":863,"o":"m 273 314 l 273 139 l 323 139 q 395 120 374 139 q 416 69 416 100 q 395 19 416 39 q 323 0 374 0 l 113 0 q 41 19 62 0 q 20 70 20 39 q 41 120 20 100 q 113 139 63 139 l 134 139 l 134 683 l 113 683 q 41 702 62 683 q 20 753 20 722 q 41 803 20 784 q 113 823 62 823 l 427 822 q 655 749 574 822 q 736 572 736 676 q 699 453 736 507 q 584 359 661 400 q 678 260 628 320 q 762 139 709 221 q 832 128 815 139 q 863 69 863 107 q 842 19 863 39 q 770 0 821 0 l 691 0 q 411 314 522 261 l 273 314 m 273 453 l 382 453 q 490 471 442 453 q 575 523 553 496 q 597 576 597 550 q 555 649 597 616 q 433 683 513 683 l 273 683 l 273 453 m 546 1054 l 393 930 q 355 911 370 911 q 322 924 336 911 q 309 956 309 937 q 336 1000 309 978 l 490 1124 q 528 1142 513 1142 q 561 1129 547 1142 q 574 1098 574 1116 q 546 1054 574 1076 z "},"ŕ":{"ha":833,"x_min":73,"x_max":795,"o":"m 388 616 l 388 529 q 526 613 475 592 q 621 634 576 634 q 752 584 688 634 q 795 515 795 550 q 775 464 795 485 q 725 444 754 444 q 671 469 699 444 q 620 495 642 495 q 533 458 591 495 q 388 349 475 422 l 388 139 l 586 139 q 657 120 636 139 q 679 69 679 100 q 657 19 679 39 q 586 0 636 0 l 166 0 q 95 19 116 0 q 73 70 73 39 q 95 120 73 100 q 166 139 116 139 l 249 139 l 249 477 l 199 477 q 127 496 149 477 q 106 547 106 515 q 127 596 106 577 q 199 616 149 616 l 388 616 m 555 838 l 403 713 q 364 695 380 695 q 332 708 345 695 q 319 740 319 721 q 346 783 319 762 l 499 907 q 538 926 522 926 q 570 913 557 926 q 583 882 583 900 q 555 838 583 859 z "},"Ř":{"ha":833,"x_min":20,"x_max":863,"o":"m 273 314 l 273 139 l 323 139 q 395 120 374 139 q 416 69 416 100 q 395 19 416 39 q 323 0 374 0 l 113 0 q 41 19 62 0 q 20 70 20 39 q 41 120 20 100 q 113 139 63 139 l 134 139 l 134 683 l 113 683 q 41 702 62 683 q 20 753 20 722 q 41 803 20 784 q 113 823 62 823 l 427 822 q 655 749 574 822 q 736 572 736 676 q 699 453 736 507 q 584 359 661 400 q 678 260 628 320 q 762 139 709 221 q 832 128 815 139 q 863 69 863 107 q 842 19 863 39 q 770 0 821 0 l 691 0 q 411 314 522 261 l 273 314 m 273 453 l 382 453 q 490 471 442 453 q 575 523 553 496 q 597 576 597 550 q 555 649 597 616 q 433 683 513 683 l 273 683 l 273 453 m 408 1012 l 547 1105 q 584 1121 570 1121 q 616 1107 603 1121 q 630 1074 630 1093 q 600 1029 630 1050 l 408 901 l 218 1029 q 186 1074 186 1050 q 200 1107 186 1093 q 233 1121 214 1121 q 270 1105 247 1121 l 408 1012 z "},"ř":{"ha":833,"x_min":73,"x_max":795,"o":"m 388 616 l 388 529 q 526 613 475 592 q 621 634 576 634 q 752 584 688 634 q 795 515 795 550 q 775 464 795 485 q 725 444 754 444 q 671 469 699 444 q 620 495 642 495 q 533 458 591 495 q 388 349 475 422 l 388 139 l 586 139 q 657 120 636 139 q 679 69 679 100 q 657 19 679 39 q 586 0 636 0 l 166 0 q 95 19 116 0 q 73 70 73 39 q 95 120 73 100 q 166 139 116 139 l 249 139 l 249 477 l 199 477 q 127 496 149 477 q 106 547 106 515 q 127 596 106 577 q 199 616 149 616 l 388 616 m 450 795 l 589 889 q 626 905 612 905 q 659 890 645 905 q 672 858 672 876 q 642 812 672 833 l 450 685 l 260 812 q 229 857 229 833 q 242 890 229 876 q 275 905 256 905 q 312 889 289 905 l 450 795 z "},"Ś":{"ha":833,"x_min":86,"x_max":750,"o":"m 214 35 q 184 7 195 14 q 157 1 173 1 q 105 23 125 1 q 86 94 86 44 l 86 187 q 105 259 86 237 q 157 280 125 280 q 198 267 181 280 q 223 224 214 254 q 241 183 232 194 q 311 140 261 162 q 421 119 361 119 q 574 162 514 119 q 612 227 612 189 q 593 276 612 253 q 534 313 575 298 q 412 341 507 323 q 240 392 298 362 q 148 476 182 422 q 114 593 114 530 q 197 768 114 693 q 414 843 281 843 q 514 831 468 843 q 597 795 559 819 q 651 821 624 821 q 701 800 682 821 q 720 729 720 779 l 720 625 q 701 553 720 574 q 651 532 682 532 q 606 547 625 532 q 584 593 591 559 q 565 643 576 628 q 506 686 545 669 q 415 704 467 704 q 296 669 340 704 q 252 596 252 634 q 270 546 252 570 q 323 509 288 522 q 453 478 346 499 q 617 432 559 457 q 712 353 674 407 q 750 226 750 300 q 677 61 750 123 q 432 -20 581 -20 q 320 -6 374 -20 q 214 35 265 7 m 555 1054 l 403 930 q 364 911 380 911 q 332 924 345 911 q 319 956 319 937 q 346 1000 319 978 l 499 1124 q 538 1142 522 1142 q 570 1129 557 1142 q 583 1098 583 1116 q 555 1054 583 1076 z "},"ś":{"ha":833,"x_min":102,"x_max":735,"o":"m 567 453 q 496 485 533 474 q 418 495 458 495 q 290 469 337 495 q 269 444 269 457 q 297 413 269 428 q 394 392 319 402 q 587 354 532 373 q 696 279 658 329 q 735 175 735 230 q 669 50 735 100 q 425 -22 575 -22 q 313 -12 364 -22 q 219 19 262 -1 q 197 5 209 10 q 174 1 186 1 q 122 22 141 1 q 102 94 102 43 l 102 140 q 122 212 102 191 q 172 233 141 233 q 214 219 197 233 q 241 172 231 205 q 317 131 273 144 q 420 117 362 117 q 569 146 516 117 q 594 178 594 161 q 558 222 594 205 q 410 252 522 240 q 186 320 242 270 q 130 442 130 370 q 193 566 130 517 q 416 634 278 634 q 509 625 465 634 q 594 597 553 616 q 618 611 607 606 q 639 616 629 616 q 686 594 667 616 q 705 523 705 573 l 705 489 q 694 427 705 444 q 635 396 673 396 q 591 412 610 396 q 567 453 572 427 m 589 838 l 437 713 q 398 695 414 695 q 366 708 379 695 q 353 740 353 721 q 380 783 353 762 l 533 907 q 572 926 556 926 q 604 913 591 926 q 617 882 617 900 q 589 838 617 859 z "},"Ţ":{"ha":833,"x_min":56,"x_max":776,"o":"m 484 683 l 484 139 l 578 139 q 649 120 628 139 q 671 69 671 100 q 649 19 671 39 q 578 0 628 0 l 252 0 q 181 19 202 0 q 159 70 159 39 q 181 120 159 100 q 252 139 202 139 l 345 139 l 345 683 l 195 683 l 195 551 q 175 480 195 501 q 125 458 156 458 q 75 480 94 458 q 56 551 56 501 l 56 823 l 776 822 l 776 551 q 756 480 776 501 q 706 458 737 458 q 656 480 675 458 q 637 551 637 501 l 637 683 l 484 683 m 375 -128 l 375 1 q 388 40 375 26 q 420 54 401 54 q 452 40 439 54 q 465 8 465 27 l 465 -43 q 524 -80 503 -54 q 545 -140 545 -106 q 511 -214 545 -182 q 425 -245 477 -245 q 301 -210 355 -245 q 277 -168 277 -194 q 291 -136 277 -149 q 322 -123 304 -123 q 358 -136 334 -123 q 424 -155 391 -155 q 448 -149 440 -155 q 455 -141 455 -145 q 450 -134 455 -137 q 414 -128 438 -128 l 375 -128 z "},"ţ":{"ha":833,"x_min":100,"x_max":821,"o":"m 382 477 l 382 198 q 401 139 382 153 q 503 117 429 117 q 699 162 609 117 q 753 180 734 180 q 801 159 781 180 q 821 110 821 139 q 799 63 821 83 q 668 4 766 31 q 503 -22 570 -22 q 308 34 373 -22 q 243 171 243 90 l 243 477 l 193 477 q 122 496 143 477 q 100 547 100 515 q 122 596 100 577 q 193 616 143 616 l 243 616 l 243 741 q 263 813 243 791 q 313 834 282 834 q 363 813 344 834 q 382 741 382 791 l 382 616 l 640 616 q 711 596 690 616 q 732 546 732 577 q 711 496 732 515 q 640 477 690 477 l 382 477 m 456 -132 l 456 -3 q 469 36 456 22 q 501 50 482 50 q 534 36 521 50 q 547 4 547 23 l 547 -47 q 605 -84 585 -58 q 626 -144 626 -110 q 592 -218 626 -186 q 507 -249 559 -249 q 382 -214 436 -249 q 359 -172 359 -198 q 372 -140 359 -153 q 404 -127 385 -127 q 439 -140 415 -127 q 505 -159 472 -159 q 530 -153 522 -159 q 536 -145 536 -149 q 531 -138 536 -141 q 496 -132 519 -132 l 456 -132 z "},"Ť":{"ha":833,"x_min":56,"x_max":776,"o":"m 484 683 l 484 139 l 578 139 q 649 120 628 139 q 671 69 671 100 q 649 19 671 39 q 578 0 628 0 l 252 0 q 181 19 202 0 q 159 70 159 39 q 181 120 159 100 q 252 139 202 139 l 345 139 l 345 683 l 195 683 l 195 551 q 175 480 195 501 q 125 458 156 458 q 75 480 94 458 q 56 551 56 501 l 56 823 l 776 822 l 776 551 q 756 480 776 501 q 706 458 737 458 q 656 480 675 458 q 637 551 637 501 l 637 683 l 484 683 m 414 1012 l 554 1105 q 591 1121 577 1121 q 623 1107 610 1121 q 637 1074 637 1093 q 606 1029 637 1050 l 414 901 l 224 1029 q 193 1074 193 1050 q 207 1107 193 1093 q 240 1121 221 1121 q 277 1105 254 1121 l 414 1012 z "},"ť":{"ha":833,"x_min":100,"x_max":926,"o":"m 926 816 q 909 736 922 766 q 838 634 885 684 q 806 614 819 614 q 787 622 795 614 q 779 639 779 629 q 802 675 779 650 q 857 753 845 720 l 838 753 q 792 770 809 753 q 774 814 774 787 q 793 862 774 844 q 838 880 811 880 l 862 880 q 905 864 888 880 q 926 816 922 849 m 382 477 l 382 198 q 401 139 382 153 q 503 117 429 117 q 699 162 609 117 q 753 180 734 180 q 801 159 781 180 q 821 110 821 139 q 799 63 821 83 q 668 4 766 31 q 503 -22 570 -22 q 308 34 373 -22 q 243 171 243 90 l 243 477 l 193 477 q 122 496 143 477 q 100 547 100 515 q 122 596 100 577 q 193 616 143 616 l 243 616 l 243 741 q 263 813 243 791 q 313 834 282 834 q 363 813 344 834 q 382 741 382 791 l 382 616 l 640 616 q 711 596 690 616 q 732 546 732 577 q 711 496 732 515 q 640 477 690 477 l 382 477 z "},"Ů":{"ha":833,"x_min":15,"x_max":821,"o":"m 734 683 l 734 289 q 642 70 734 160 q 419 -20 549 -20 q 298 2 355 -20 q 196 69 241 25 q 126 161 151 113 q 101 289 101 209 l 101 683 q 36 703 57 683 q 15 753 15 722 q 36 803 15 784 q 108 822 57 822 l 290 823 q 362 803 340 823 q 383 753 383 784 q 362 702 383 722 q 290 683 340 683 l 240 683 l 240 277 q 292 166 240 214 q 417 119 344 119 q 509 142 466 119 q 578 209 551 165 q 595 277 595 237 l 595 683 l 545 683 q 474 702 495 683 q 452 753 452 722 q 474 803 452 784 q 545 823 495 823 l 728 822 q 799 803 778 822 q 821 753 821 784 q 800 703 821 722 q 734 683 779 683 m 551 1029 q 511 934 551 973 q 418 895 472 895 q 324 934 363 895 q 285 1029 285 973 q 323 1119 285 1081 q 418 1156 362 1156 q 512 1119 473 1156 q 551 1029 551 1081 m 488 1029 q 468 1075 488 1055 q 418 1094 448 1094 q 368 1075 388 1094 q 347 1029 347 1055 q 368 979 347 1000 q 418 958 389 958 q 468 979 447 958 q 488 1029 488 1000 z "},"ů":{"ha":833,"x_min":20,"x_max":798,"o":"m 712 616 l 712 139 q 777 119 756 139 q 798 69 798 100 q 777 19 798 39 q 705 0 755 0 l 573 0 l 573 32 q 459 -9 513 5 q 356 -22 405 -22 q 237 6 288 -22 q 158 86 187 35 q 137 178 137 123 l 137 477 l 113 477 q 42 496 63 477 q 20 547 20 515 q 42 596 20 577 q 113 616 63 616 l 276 616 l 276 202 q 297 137 276 158 q 363 117 319 117 q 453 133 405 117 q 573 193 502 150 l 573 477 l 523 477 q 451 496 473 477 q 430 547 430 515 q 451 596 430 577 q 523 616 473 616 l 712 616 m 558 819 q 519 724 558 764 q 425 685 479 685 q 331 724 370 685 q 292 819 292 764 q 331 909 292 871 q 425 947 370 947 q 519 909 481 947 q 558 819 558 871 m 496 819 q 475 865 496 846 q 425 884 455 884 q 375 865 395 884 q 355 819 355 846 q 375 769 355 790 q 425 749 396 749 q 475 769 454 749 q 496 819 496 790 z "},"Ű":{"ha":833,"x_min":15,"x_max":821,"o":"m 734 683 l 734 289 q 642 70 734 160 q 419 -20 549 -20 q 298 2 355 -20 q 196 69 241 25 q 126 161 151 113 q 101 289 101 209 l 101 683 q 36 703 57 683 q 15 753 15 722 q 36 803 15 784 q 108 822 57 822 l 290 823 q 362 803 340 823 q 383 753 383 784 q 362 702 383 722 q 290 683 340 683 l 240 683 l 240 277 q 292 166 240 214 q 417 119 344 119 q 509 142 466 119 q 578 209 551 165 q 595 277 595 237 l 595 683 l 545 683 q 474 702 495 683 q 452 753 452 722 q 474 803 452 784 q 545 823 495 823 l 728 822 q 799 803 778 822 q 821 753 821 784 q 800 703 821 722 q 734 683 779 683 m 476 1057 l 349 935 q 308 912 326 912 q 276 925 289 912 q 262 958 262 939 q 286 999 262 977 l 414 1122 q 454 1144 436 1144 q 487 1131 473 1144 q 500 1098 500 1118 q 476 1057 500 1080 m 680 1057 l 553 935 q 513 912 530 912 q 480 925 493 912 q 467 958 467 939 q 490 999 467 977 l 618 1122 q 659 1144 641 1144 q 691 1131 678 1144 q 704 1098 704 1118 q 680 1057 704 1080 z "},"ű":{"ha":833,"x_min":20,"x_max":798,"o":"m 712 616 l 712 139 q 777 119 756 139 q 798 69 798 100 q 777 19 798 39 q 705 0 755 0 l 573 0 l 573 32 q 459 -9 513 5 q 356 -22 405 -22 q 237 6 288 -22 q 158 86 187 35 q 137 178 137 123 l 137 477 l 113 477 q 42 496 63 477 q 20 547 20 515 q 42 596 20 577 q 113 616 63 616 l 276 616 l 276 202 q 297 137 276 158 q 363 117 319 117 q 453 133 405 117 q 573 193 502 150 l 573 477 l 523 477 q 451 496 473 477 q 430 547 430 515 q 451 596 430 577 q 523 616 473 616 l 712 616 m 468 841 l 340 718 q 300 696 317 696 q 268 709 281 696 q 254 742 254 722 q 278 783 254 760 l 406 906 q 446 928 428 928 q 478 915 465 928 q 492 882 492 901 q 468 841 492 864 m 672 841 l 545 718 q 505 696 522 696 q 472 709 485 696 q 459 742 459 722 q 482 783 459 760 l 610 906 q 651 928 633 928 q 683 915 670 928 q 696 882 696 901 q 672 841 696 864 z "},"Ź":{"ha":833,"x_min":102,"x_max":735,"o":"m 280 139 l 595 139 l 595 242 q 615 314 595 292 q 665 335 634 335 q 716 314 696 335 q 735 242 735 292 l 734 0 l 102 0 l 102 139 l 526 683 l 270 683 l 270 583 q 251 512 270 533 q 201 490 232 490 q 150 512 170 490 q 131 583 131 533 l 131 823 l 706 822 l 706 686 l 280 139 m 572 1054 l 420 930 q 381 911 397 911 q 349 924 362 911 q 336 956 336 937 q 363 1000 336 978 l 516 1124 q 555 1142 539 1142 q 587 1129 574 1142 q 600 1098 600 1116 q 572 1054 600 1076 z "},"ź":{"ha":833,"x_min":120,"x_max":725,"o":"m 342 139 l 586 139 q 607 197 588 178 q 655 216 627 216 q 706 195 686 216 q 725 123 725 174 l 725 0 l 120 0 l 120 115 l 486 477 l 273 477 l 273 463 q 254 392 273 414 q 203 371 235 371 q 153 392 172 371 q 134 463 134 414 l 134 616 l 709 616 l 709 502 l 342 139 m 593 838 l 440 713 q 401 695 417 695 q 369 708 382 695 q 356 740 356 721 q 383 783 356 762 l 536 907 q 575 926 559 926 q 607 913 594 926 q 621 882 621 900 q 593 838 621 859 z "},"Ż":{"ha":833,"x_min":102,"x_max":735,"o":"m 280 139 l 595 139 l 595 242 q 615 314 595 292 q 665 335 634 335 q 716 314 696 335 q 735 242 735 292 l 734 0 l 102 0 l 102 139 l 526 683 l 270 683 l 270 583 q 251 512 270 533 q 201 490 232 490 q 150 512 170 490 q 131 583 131 533 l 131 823 l 706 822 l 706 686 l 280 139 m 507 1015 q 481 952 507 978 q 419 926 455 926 q 357 952 382 926 q 331 1015 331 978 q 357 1076 331 1050 q 419 1102 382 1102 q 481 1077 455 1102 q 507 1015 507 1051 z "},"ż":{"ha":833,"x_min":120,"x_max":725,"o":"m 342 139 l 586 139 q 607 197 588 178 q 655 216 627 216 q 706 195 686 216 q 725 123 725 174 l 725 0 l 120 0 l 120 115 l 486 477 l 273 477 l 273 463 q 254 392 273 414 q 203 371 235 371 q 153 392 172 371 q 134 463 134 414 l 134 616 l 709 616 l 709 502 l 342 139 m 526 798 q 500 736 526 762 q 439 710 475 710 q 376 736 402 710 q 351 798 351 762 q 376 860 351 834 q 439 886 402 886 q 500 860 475 886 q 526 798 526 835 z "},"Γ":{"ha":833,"x_min":42,"x_max":793,"o":"m 355 139 l 436 139 q 529 69 529 139 q 436 0 529 0 l 135 0 q 42 70 42 0 q 135 139 42 139 l 216 139 l 216 683 l 135 683 q 42 753 42 683 q 135 822 42 822 l 793 822 l 793 551 q 724 459 793 459 q 654 551 654 459 l 654 683 l 355 683 l 355 139 z "},"Θ":{"ha":833,"x_min":27,"x_max":806,"o":"m 806 411 q 688 102 806 224 q 416 -20 569 -20 q 145 102 264 -20 q 27 411 27 225 q 146 720 27 597 q 416 843 264 843 q 688 721 569 843 q 806 411 806 598 m 667 411 q 593 618 667 532 q 416 704 519 704 q 242 621 319 704 q 166 411 166 537 q 242 202 166 286 q 416 119 319 119 q 593 204 519 119 q 667 411 667 290 m 369 470 l 465 470 q 524 552 467 552 q 582 459 582 552 l 582 363 q 524 271 582 271 q 465 353 467 271 l 369 353 q 310 271 366 271 q 251 363 251 271 l 251 459 q 310 552 251 552 q 369 470 366 552 z "},"Φ":{"ha":833,"x_min":54,"x_max":779,"o":"m 347 700 l 333 700 q 243 761 243 700 q 333 822 243 822 l 500 822 q 590 761 590 822 q 500 700 590 700 l 486 700 l 486 650 q 703 578 627 646 q 779 411 779 509 q 703 244 779 313 q 486 173 627 176 l 486 123 l 500 123 q 590 61 590 123 q 500 0 590 0 l 333 0 q 243 61 243 0 q 333 123 243 123 l 347 123 l 347 173 q 130 244 206 176 q 54 411 54 313 q 130 578 54 509 q 347 650 206 646 l 347 700 m 486 312 q 640 411 640 319 q 486 511 640 503 l 486 312 m 347 511 q 193 411 193 503 q 347 312 193 319 l 347 511 z "},"α":{"ha":833,"x_min":55,"x_max":801,"o":"m 720 139 q 801 70 801 136 q 708 0 801 0 l 622 0 l 575 130 q 340 -22 480 -22 q 140 70 225 -22 q 55 306 55 161 q 135 541 55 447 q 333 634 214 634 q 450 604 395 634 q 575 467 505 573 l 604 545 q 640 618 626 603 q 688 634 653 634 q 735 615 720 634 q 751 574 751 595 q 728 492 751 553 l 657 301 q 700 195 680 252 q 720 139 713 159 m 507 295 q 426 437 468 379 q 332 495 384 495 q 234 443 274 495 q 194 308 194 391 q 236 171 194 225 q 340 117 279 117 q 507 295 427 117 z "},"δ":{"ha":833,"x_min":103,"x_max":730,"o":"m 379 741 l 551 608 q 698 451 666 520 q 730 307 730 381 q 638 74 730 170 q 416 -22 547 -22 q 195 71 288 -22 q 103 304 103 165 q 161 495 103 415 q 322 612 218 575 l 161 741 l 161 880 l 576 880 q 669 810 669 880 q 576 741 669 741 l 379 741 m 416 486 q 293 436 344 486 q 242 302 242 387 q 292 171 242 226 q 415 117 342 117 q 541 173 491 117 q 591 305 591 229 q 541 436 591 386 q 416 486 490 486 z "},"ε":{"ha":833,"x_min":142,"x_max":702,"o":"m 528 384 l 528 248 l 463 248 q 328 228 376 248 q 281 179 281 208 q 317 137 281 157 q 422 117 353 117 q 570 144 487 117 q 623 155 605 155 q 680 134 659 155 q 702 86 702 113 q 618 8 702 39 q 420 -22 534 -22 q 215 37 289 -22 q 142 178 142 97 q 226 329 142 269 q 155 450 155 380 q 222 578 155 523 q 408 634 289 634 q 568 593 494 634 q 631 634 591 634 q 701 552 701 634 l 699 516 l 702 450 q 680 392 702 410 q 631 373 657 373 q 572 410 601 373 q 399 495 503 495 q 321 480 349 495 q 294 446 294 465 q 462 384 294 384 l 528 384 z "},"σ":{"ha":833,"x_min":80,"x_max":808,"o":"m 675 477 q 732 296 732 396 q 637 73 732 168 q 408 -22 543 -22 q 176 72 272 -22 q 80 298 80 165 q 104 419 80 362 q 174 522 129 477 q 271 587 218 566 q 356 612 324 608 q 500 616 388 616 l 715 616 q 808 546 808 616 q 715 477 808 477 l 675 477 m 395 477 q 265 421 311 477 q 219 299 219 365 q 273 170 219 224 q 408 117 328 117 q 539 171 486 117 q 593 296 593 225 q 544 421 593 366 q 395 477 494 477 z "},"τ":{"ha":833,"x_min":130,"x_max":652,"o":"m 468 477 l 468 193 q 472 130 468 143 q 492 117 477 117 q 514 122 502 117 q 545 130 531 130 q 595 108 576 130 q 614 60 614 87 q 582 0 614 22 q 495 -22 549 -22 q 397 6 437 -22 q 342 75 356 35 q 329 193 329 114 l 329 477 l 294 477 q 248 471 272 477 q 199 464 212 464 q 148 485 167 464 q 130 532 130 505 q 267 616 130 616 l 560 616 q 652 546 652 616 q 560 477 652 477 l 468 477 z "},"φ":{"ha":833,"x_min":61,"x_max":772,"o":"m 329 -24 q 61 305 61 20 q 117 517 61 418 q 233 616 174 616 q 278 596 257 616 q 298 545 298 576 q 273 492 298 519 q 200 313 200 410 q 233 175 200 220 q 329 115 265 130 l 329 401 q 341 511 329 471 q 397 584 354 551 q 495 616 439 616 q 687 521 601 616 q 772 303 772 427 q 695 89 772 182 q 468 -24 618 -3 l 468 -216 q 399 -309 468 -309 q 329 -216 329 -309 l 329 -24 m 468 115 q 591 180 548 127 q 633 298 633 233 q 587 426 633 374 q 495 477 541 477 q 473 463 477 477 q 468 401 468 450 l 468 115 z "},"‗":{"ha":833,"x_min":-55,"x_max":894,"o":"m 802 -262 l 38 -262 q -34 -242 -12 -262 q -55 -192 -55 -223 q -34 -142 -55 -161 q 38 -123 -12 -123 l 802 -123 q 872 -142 851 -123 q 894 -193 894 -161 q 873 -242 894 -223 q 802 -262 852 -262 m 802 -499 l 38 -499 q -34 -480 -12 -499 q -55 -429 -55 -460 q -34 -379 -55 -399 q 38 -360 -12 -360 l 802 -360 q 872 -379 851 -360 q 894 -430 894 -399 q 873 -480 894 -460 q 802 -499 852 -499 z "},"‼":{"ha":833,"x_min":105,"x_max":720,"o":"m 324 741 l 286 322 q 264 272 283 290 q 216 254 245 254 q 169 272 188 254 q 147 322 150 290 l 108 741 q 105 783 105 773 q 137 868 105 836 q 216 901 169 901 q 295 868 263 901 q 328 786 328 836 q 324 741 328 776 m 717 741 l 678 322 q 656 272 675 290 q 609 254 637 254 q 562 272 581 254 q 540 322 543 290 l 500 741 q 498 783 498 773 q 530 868 498 836 q 609 901 562 901 q 688 868 656 901 q 720 786 720 836 q 717 741 720 776 m 302 51 q 279 0 302 21 q 218 -20 257 -20 q 156 0 178 -20 q 134 51 134 21 q 156 101 134 80 q 218 121 178 121 q 280 101 258 121 q 302 51 302 81 m 694 51 q 672 0 694 21 q 610 -20 650 -20 q 549 0 571 -20 q 526 51 526 21 q 548 101 526 80 q 610 121 570 121 q 672 101 650 121 q 694 51 694 81 z "},"ⁿ":{"ha":833,"x_min":186,"x_max":648,"o":"m 337 694 q 390 723 363 713 q 446 732 417 732 q 527 712 488 732 q 581 662 566 691 q 596 578 596 633 l 596 435 q 635 425 625 434 q 648 394 648 412 q 633 361 648 374 q 596 351 624 351 l 514 351 q 469 363 482 351 q 455 394 455 375 q 468 423 455 412 q 505 435 480 435 l 505 573 q 493 625 505 612 q 441 642 475 642 q 397 632 417 642 q 337 586 376 622 l 337 435 q 385 426 376 435 q 400 392 400 413 q 393 368 400 381 q 375 353 388 359 q 349 351 372 351 l 227 351 q 198 366 210 353 q 186 395 186 379 q 194 418 186 408 q 216 433 201 428 q 250 435 220 435 l 250 637 q 208 649 220 637 q 195 677 195 660 q 208 709 195 697 q 250 722 220 722 l 337 722 l 337 694 z "},"₧":{"ha":833,"x_min":1,"x_max":829,"o":"m 76 139 l 76 683 q 21 701 40 683 q 1 749 1 720 q 35 812 1 793 q 104 823 51 822 l 355 822 q 493 801 446 822 q 572 730 541 780 q 603 615 603 680 q 567 489 603 547 q 471 406 531 432 q 293 380 410 380 l 216 380 l 216 139 q 274 123 258 139 q 295 71 295 103 q 274 19 295 39 q 208 0 254 0 l 98 0 q 25 21 49 0 q 2 75 2 41 q 20 122 2 106 q 76 139 37 138 m 216 683 l 216 510 l 264 510 q 422 524 391 510 q 467 601 467 545 q 453 651 467 631 q 419 679 439 672 q 357 683 407 683 l 216 683 m 411 292 l 454 292 q 494 280 481 292 q 506 250 506 269 q 493 221 506 233 q 454 210 481 210 l 411 210 l 411 144 q 420 91 411 103 q 448 79 430 79 q 467 83 455 79 q 496 89 486 89 q 521 78 511 89 q 531 50 531 68 q 510 5 531 21 q 437 -11 490 -11 q 331 36 364 -11 q 313 132 313 60 l 313 210 q 261 220 274 210 q 248 252 248 231 q 260 281 248 271 q 313 292 273 292 q 321 337 313 326 q 363 357 334 357 q 398 343 385 357 q 411 292 411 328 m 741 292 q 781 326 757 326 q 811 309 798 326 q 823 245 823 292 q 812 205 823 218 q 779 193 800 193 q 742 214 758 193 q 716 230 730 224 q 690 235 703 235 q 654 227 667 235 q 647 214 647 221 q 656 197 647 205 q 699 185 665 190 q 805 151 780 174 q 829 92 829 128 q 799 23 829 50 q 712 -4 768 -4 q 633 15 676 -4 q 597 -7 618 -7 q 566 5 576 -7 q 551 64 551 24 q 562 101 551 89 q 590 113 573 113 q 624 96 606 113 q 692 71 647 71 q 733 80 720 71 q 742 95 742 86 q 736 105 742 101 q 695 115 730 110 q 585 146 608 130 q 554 218 554 171 q 583 284 554 259 q 666 309 611 309 q 703 305 684 309 q 741 292 722 300 z "},"←":{"ha":833,"x_min":1,"x_max":832,"o":"m 183 385 l 216 385 q 178 313 191 333 q 131 250 165 292 l 832 250 l 832 205 l 131 205 q 218 69 176 157 l 184 69 q 86 165 127 132 q 1 218 45 198 l 1 239 q 183 385 81 273 z "},"↑":{"ha":833,"x_min":258,"x_max":574,"o":"m 258 407 q 405 589 371 511 l 425 589 q 479 504 446 545 q 574 407 511 463 l 574 372 q 439 459 486 414 l 439 -189 l 394 -189 l 394 460 q 332 413 353 427 q 258 374 311 399 l 258 407 z "},"→":{"ha":833,"x_min":1,"x_max":832,"o":"m 650 385 q 832 239 752 273 l 832 218 q 747 165 788 198 q 650 69 706 132 l 616 69 q 703 205 657 157 l 1 205 l 1 250 l 703 250 q 656 312 669 291 q 616 385 643 334 l 650 385 z "},"↓":{"ha":833,"x_min":258,"x_max":574,"o":"m 258 -7 l 258 26 q 332 -13 311 1 q 394 -60 353 -26 l 394 589 l 439 589 l 439 -59 q 574 28 486 -14 l 574 -7 q 479 -104 511 -63 q 425 -189 446 -145 l 405 -189 q 258 -7 370 -109 z "},"↔":{"ha":833,"x_min":1,"x_max":832,"o":"m 832 237 l 832 218 q 751 166 791 199 q 653 70 710 134 l 618 70 q 703 206 648 145 l 130 206 q 215 70 185 145 l 180 70 q 82 166 123 134 q 1 218 42 199 l 1 237 q 82 288 43 256 q 180 386 121 319 l 215 386 q 130 249 184 310 l 703 249 q 618 386 649 310 l 653 386 q 751 288 712 319 q 832 237 791 256 z "},"↕":{"ha":833,"x_min":258,"x_max":574,"o":"m 406 643 l 427 643 q 574 465 465 560 l 574 429 q 438 515 500 459 l 438 -59 q 574 26 499 -4 l 574 -9 q 427 -188 465 -104 l 406 -188 q 355 -106 387 -146 q 258 -9 323 -66 l 258 26 q 395 -59 334 -5 l 395 515 q 258 429 333 459 l 258 465 q 355 562 323 522 q 406 643 387 602 z "},"↨":{"ha":833,"x_min":258,"x_max":574,"o":"m 406 643 l 427 643 q 574 465 465 560 l 574 429 q 438 515 500 459 l 438 -59 q 574 26 499 -4 l 574 -9 q 427 -188 465 -104 l 406 -188 q 355 -106 387 -146 q 258 -9 323 -66 l 258 26 q 395 -59 334 -5 l 395 515 q 258 429 333 459 l 258 465 q 355 562 323 522 q 406 643 387 602 m 259 -230 l 574 -230 l 574 -273 l 259 -273 l 259 -230 z "},"∟":{"ha":833,"x_min":1,"x_max":832,"o":"m 1 829 l 140 829 l 140 139 l 832 139 l 832 0 l 1 0 l 1 829 z "},"∩":{"ha":833,"x_min":75,"x_max":759,"o":"m 620 91 l 620 551 q 607 661 620 628 q 543 733 591 704 q 414 763 494 763 q 291 731 340 763 q 228 661 242 700 q 214 543 214 621 l 214 98 q 205 16 214 32 q 147 -20 184 -20 q 86 12 106 -20 q 75 91 75 31 l 75 573 q 100 718 75 662 q 220 850 137 800 q 416 900 304 900 q 624 845 542 900 q 732 724 705 789 q 759 543 759 659 l 759 91 q 753 23 759 41 q 729 -8 748 5 q 688 -20 711 -20 q 648 -9 665 -20 q 625 26 631 3 q 620 91 620 43 z "},"≡":{"ha":833,"x_min":28,"x_max":808,"o":"m 715 588 l 121 588 q 49 607 71 588 q 28 658 28 627 q 49 708 28 688 q 121 727 71 727 l 715 727 q 786 708 765 727 q 808 657 808 688 q 786 607 808 627 q 715 588 765 588 m 715 326 l 121 326 q 49 346 71 326 q 28 396 28 365 q 49 446 28 427 q 121 465 71 465 l 715 465 q 786 446 765 465 q 808 395 808 427 q 786 346 808 365 q 715 326 765 326 m 715 64 l 121 64 q 49 83 71 64 q 28 134 28 102 q 49 184 28 165 q 121 203 71 203 l 715 203 q 786 184 765 203 q 808 134 808 165 q 786 83 808 102 q 715 64 765 64 z "},"⌂":{"ha":833,"x_min":62,"x_max":772,"o":"m 62 0 l 62 488 l 416 888 l 772 488 l 772 0 l 62 0 m 201 139 l 633 139 l 633 433 l 416 675 l 201 433 l 201 139 z "},"⌐":{"ha":833,"x_min":-26,"x_max":777,"o":"m 113 326 l 113 93 q 93 21 113 43 q 43 0 74 0 q -7 21 12 0 q -26 93 -26 43 l -26 465 l 684 465 q 755 446 734 465 q 777 395 777 427 q 756 345 777 364 q 684 326 734 326 l 113 326 z "},"⌠":{"ha":833,"x_min":368,"x_max":659,"o":"m 466 -349 l 368 -349 l 368 879 q 428 1103 368 1027 q 566 1178 489 1178 q 635 1156 611 1178 q 659 1104 659 1134 q 642 1059 659 1077 q 600 1042 625 1042 q 557 1054 577 1042 q 532 1084 548 1060 q 501 1108 517 1108 q 474 1094 483 1108 q 466 987 466 1079 l 466 -349 z "},"⌡":{"ha":833,"x_min":174,"x_max":466,"o":"m 368 1178 l 466 1178 l 466 -50 q 405 -274 466 -199 q 268 -349 345 -349 q 198 -327 222 -349 q 174 -275 174 -305 q 192 -231 174 -248 q 233 -213 209 -213 q 277 -226 256 -213 q 301 -255 286 -231 q 332 -279 317 -279 q 359 -265 351 -279 q 368 -159 368 -250 l 368 1178 z "},"─":{"ha":833,"x_min":-10,"x_max":844,"o":"m 844 304 l -10 304 l -10 405 l 844 405 l 844 304 z "},"│":{"ha":833,"x_min":367,"x_max":467,"o":"m 367 -355 l 367 1064 l 467 1064 l 467 -355 l 367 -355 z "},"┌":{"ha":833,"x_min":367,"x_max":844,"o":"m 844 405 l 844 304 l 467 304 l 467 -355 l 367 -355 l 367 405 l 844 405 z "},"┐":{"ha":833,"x_min":-10,"x_max":467,"o":"m 367 304 l -10 304 l -10 405 l 467 405 l 467 -355 l 367 -355 l 367 304 z "},"└":{"ha":833,"x_min":367,"x_max":844,"o":"m 367 304 l 367 1064 l 467 1064 l 467 405 l 844 405 l 844 304 l 367 304 z "},"┘":{"ha":833,"x_min":-10,"x_max":467,"o":"m 467 304 l -10 304 l -10 405 l 367 405 l 367 1064 l 467 1064 l 467 304 z "},"├":{"ha":833,"x_min":367,"x_max":844,"o":"m 367 -355 l 367 1064 l 467 1064 l 467 405 l 844 405 l 844 304 l 467 304 l 467 -355 l 367 -355 z "},"┤":{"ha":833,"x_min":-10,"x_max":467,"o":"m 367 -355 l 367 304 l -10 304 l -10 405 l 367 405 l 367 1064 l 467 1064 l 467 -355 l 367 -355 z "},"┬":{"ha":833,"x_min":-10,"x_max":844,"o":"m 367 304 l -10 304 l -10 405 l 844 405 l 844 304 l 467 304 l 467 -355 l 367 -355 l 367 304 z "},"┴":{"ha":833,"x_min":-10,"x_max":844,"o":"m 844 304 l -10 304 l -10 405 l 367 405 l 367 1064 l 467 1064 l 467 405 l 844 405 l 844 304 z "},"┼":{"ha":833,"x_min":-10,"x_max":844,"o":"m 367 304 l -10 304 l -10 405 l 367 405 l 367 1064 l 467 1064 l 467 405 l 844 405 l 844 304 l 467 304 l 467 -355 l 367 -355 l 367 304 z "},"═":{"ha":833,"x_min":-10,"x_max":844,"o":"m 844 413 l -10 413 l -10 513 l 844 513 l 844 413 m 844 196 l -10 196 l -10 296 l 844 296 l 844 196 z "},"║":{"ha":833,"x_min":258,"x_max":575,"o":"m 475 -355 l 475 1064 l 575 1064 l 575 -355 l 475 -355 m 258 -355 l 258 1064 l 358 1064 l 358 -355 l 258 -355 z "},"╒":{"ha":833,"x_min":367,"x_max":844,"o":"m 367 -355 l 367 513 l 844 513 l 844 413 l 467 413 l 467 296 l 844 296 l 844 196 l 467 196 l 467 -355 l 367 -355 z "},"╓":{"ha":833,"x_min":258,"x_max":844,"o":"m 258 -355 l 258 405 l 844 405 l 844 304 l 575 304 l 575 -355 l 475 -355 l 475 296 l 358 296 l 358 -355 l 258 -355 z "},"╔":{"ha":833,"x_min":258,"x_max":844,"o":"m 358 -355 l 258 -355 l 258 513 l 844 513 l 844 413 l 358 413 l 358 -355 m 575 196 l 575 -355 l 475 -355 l 475 296 l 844 296 l 844 196 l 575 196 z "},"╕":{"ha":833,"x_min":-10,"x_max":467,"o":"m 367 196 l -10 196 l -10 296 l 367 296 l 367 413 l -10 413 l -10 513 l 467 513 l 467 -355 l 367 -355 l 367 196 z "},"╖":{"ha":833,"x_min":-10,"x_max":575,"o":"m 258 -355 l 258 304 l -10 304 l -10 405 l 575 405 l 575 -355 l 475 -355 l 475 304 l 358 304 l 358 -355 l 258 -355 z "},"╗":{"ha":833,"x_min":-10,"x_max":575,"o":"m 475 -355 l 475 413 l -10 413 l -10 513 l 575 513 l 575 -355 l 475 -355 m 258 196 l -10 196 l -10 296 l 358 296 l 358 -355 l 258 -355 l 258 196 z "},"╘":{"ha":833,"x_min":367,"x_max":844,"o":"m 367 196 l 367 1064 l 467 1064 l 467 513 l 844 513 l 844 413 l 467 413 l 467 296 l 844 296 l 844 196 l 367 196 z "},"╙":{"ha":833,"x_min":258,"x_max":844,"o":"m 844 304 l 258 304 l 258 1064 l 358 1064 l 358 405 l 475 405 l 475 1064 l 575 1064 l 575 405 l 844 405 l 844 304 z "},"╚":{"ha":833,"x_min":258,"x_max":844,"o":"m 358 1064 l 358 296 l 844 296 l 844 196 l 258 196 l 258 1064 l 358 1064 m 575 513 l 844 513 l 844 413 l 475 413 l 475 1064 l 575 1064 l 575 513 z "},"╛":{"ha":833,"x_min":-10,"x_max":467,"o":"m 467 196 l -10 196 l -10 296 l 367 296 l 367 413 l -10 413 l -10 513 l 367 513 l 367 1064 l 467 1064 l 467 196 z "},"╜":{"ha":833,"x_min":-10,"x_max":575,"o":"m 575 304 l -10 304 l -10 405 l 258 405 l 258 1064 l 358 1064 l 358 405 l 475 405 l 475 1064 l 575 1064 l 575 304 z "},"╝":{"ha":833,"x_min":-10,"x_max":575,"o":"m 475 1064 l 575 1064 l 575 196 l -10 196 l -10 296 l 475 296 l 475 1064 m 258 513 l 258 1064 l 358 1064 l 358 413 l -10 413 l -10 513 l 258 513 z "},"╞":{"ha":833,"x_min":367,"x_max":844,"o":"m 367 -355 l 367 1064 l 467 1064 l 467 513 l 844 513 l 844 413 l 467 413 l 467 296 l 844 296 l 844 196 l 467 196 l 467 -355 l 367 -355 z "},"╟":{"ha":833,"x_min":258,"x_max":844,"o":"m 475 -355 l 475 1064 l 575 1064 l 575 405 l 844 405 l 844 304 l 575 304 l 575 -355 l 475 -355 m 258 -355 l 258 1064 l 358 1064 l 358 -355 l 258 -355 z "},"╠":{"ha":833,"x_min":258,"x_max":844,"o":"m 258 -355 l 258 1064 l 358 1064 l 358 -355 l 258 -355 m 475 413 l 475 1064 l 575 1064 l 575 513 l 844 513 l 844 413 l 475 413 m 475 -355 l 475 296 l 844 296 l 844 196 l 575 196 l 575 -355 l 475 -355 z "},"╡":{"ha":833,"x_min":-10,"x_max":467,"o":"m 367 196 l -10 196 l -10 296 l 367 296 l 367 413 l -10 413 l -10 513 l 367 513 l 367 1064 l 467 1064 l 467 -355 l 367 -355 l 367 196 z "},"╢":{"ha":833,"x_min":-10,"x_max":575,"o":"m 258 -355 l 258 304 l -10 304 l -10 405 l 258 405 l 258 1064 l 358 1064 l 358 -355 l 258 -355 m 475 -355 l 475 1064 l 575 1064 l 575 -355 l 475 -355 z "},"╣":{"ha":833,"x_min":-10,"x_max":575,"o":"m 475 -355 l 475 1064 l 575 1064 l 575 -355 l 475 -355 m 358 1064 l 358 413 l -10 413 l -10 513 l 258 513 l 258 1064 l 358 1064 m 258 196 l -10 196 l -10 296 l 358 296 l 358 -355 l 258 -355 l 258 196 z "},"╤":{"ha":833,"x_min":-10,"x_max":844,"o":"m 844 413 l -10 413 l -10 513 l 844 513 l 844 413 m 367 196 l -10 196 l -10 296 l 844 296 l 844 196 l 467 196 l 467 -355 l 367 -355 l 367 196 z "},"╥":{"ha":833,"x_min":-10,"x_max":844,"o":"m 258 -355 l 258 304 l -10 304 l -10 405 l 844 405 l 844 304 l 575 304 l 575 -355 l 475 -355 l 475 296 l 358 296 l 358 -355 l 258 -355 z "},"╦":{"ha":833,"x_min":-10,"x_max":844,"o":"m 844 413 l -10 413 l -10 513 l 844 513 l 844 413 m 258 196 l -10 196 l -10 296 l 358 296 l 358 -355 l 258 -355 l 258 196 m 475 -355 l 475 296 l 844 296 l 844 196 l 575 196 l 575 -355 l 475 -355 z "},"╧":{"ha":833,"x_min":-10,"x_max":844,"o":"m 844 413 l -10 413 l -10 513 l 367 513 l 367 1064 l 467 1064 l 467 513 l 844 513 l 844 413 m 844 196 l -10 196 l -10 296 l 844 296 l 844 196 z "},"╨":{"ha":833,"x_min":-10,"x_max":844,"o":"m 844 304 l -10 304 l -10 405 l 258 405 l 258 1064 l 358 1064 l 358 405 l 475 405 l 475 1064 l 575 1064 l 575 405 l 844 405 l 844 304 z "},"╩":{"ha":833,"x_min":-10,"x_max":844,"o":"m 358 413 l -10 413 l -10 513 l 258 513 l 258 1064 l 358 1064 l 358 413 m 844 413 l 475 413 l 475 1064 l 575 1064 l 575 513 l 844 513 l 844 413 m 844 196 l -10 196 l -10 296 l 844 296 l 844 196 z "},"╪":{"ha":833,"x_min":-10,"x_max":844,"o":"m 367 196 l -10 196 l -10 296 l 367 296 l 367 413 l -10 413 l -10 513 l 367 513 l 367 1064 l 467 1064 l 467 513 l 844 513 l 844 413 l 467 413 l 467 296 l 844 296 l 844 196 l 467 196 l 467 -355 l 367 -355 l 367 196 z "},"╫":{"ha":833,"x_min":-10,"x_max":844,"o":"m 258 -355 l 258 304 l -10 304 l -10 405 l 258 405 l 258 1064 l 358 1064 l 358 405 l 475 405 l 475 1064 l 575 1064 l 575 405 l 844 405 l 844 304 l 575 304 l 575 -355 l 475 -355 l 475 304 l 358 304 l 358 -355 l 258 -355 z "},"╬":{"ha":833,"x_min":-10,"x_max":844,"o":"m 575 513 l 844 513 l 844 413 l 475 413 l 475 1064 l 575 1064 l 575 513 m 258 513 l 258 1064 l 358 1064 l 358 413 l -10 413 l -10 513 l 258 513 m 258 196 l -10 196 l -10 296 l 358 296 l 358 -355 l 258 -355 l 258 196 m 575 196 l 575 -355 l 475 -355 l 475 296 l 844 296 l 844 196 l 575 196 z "},"▀":{"ha":833,"x_min":-10,"x_max":844,"o":"m 844 355 l -10 355 l -10 1064 l 844 1064 l 844 355 z "},"▄":{"ha":833,"x_min":-10,"x_max":844,"o":"m 844 -355 l -10 -355 l -10 355 l 844 355 l 844 -355 z "},"█":{"ha":833,"x_min":-10,"x_max":844,"o":"m -10 -355 l -10 1064 l 844 1064 l 844 -355 l -10 -355 z "},"▌":{"ha":833,"x_min":-10,"x_max":417,"o":"m -10 -355 l -10 1064 l 417 1064 l 417 -355 l -10 -355 z "},"▐":{"ha":833,"x_min":417,"x_max":844,"o":"m 417 -355 l 417 1064 l 844 1064 l 844 -355 l 417 -355 z "}}}
